<?xml version="1.0" encoding="UTF-8"?>
<svg width="1062px" height="669px" viewBox="0 0 1062 669" version="1.1" xmlns="http://www.w3.org/2000/svg" xmlns:xlink="http://www.w3.org/1999/xlink">
    <!-- Generator: Sketch 49.3 (51167) - http://www.bohemiancoding.com/sketch -->
    <title>Rectangle 6</title>
    <desc>Created with Sketch.</desc>
    <defs>
        <radialGradient cx="50%" cy="44.8045123%" fx="50%" fy="44.8045123%" r="100%" gradientTransform="translate(0.500000,0.448045),scale(0.629944,1.000000),rotate(-90.000000),translate(-0.500000,-0.448045)" id="radialGradient-1">
            <stop stop-color="#718BFF" offset="0%"></stop>
            <stop stop-color="#9A4EA8" offset="100%"></stop>
        </radialGradient>
    </defs>
    <g id="Page-1" stroke="none" stroke-width="1" fill="none" fill-rule="evenodd">
        <g id="Desktop-HD" transform="translate(-88.000000, -511.000000)" fill="url(#radialGradient-1)" fill-rule="nonzero">
            <path d="M1144,517 L1144,511 L1150,517 L1144,517 Z M1144,517 L88,517 L88,511 L1150,511 L1150,1180 L88,1180 L88,1174 L1144,1174 L1144,517 Z M1144,1174 L1150,1174 L1144,1180 L1144,1174 Z M1144,1174 L1150,1174 L1144,1180 L1144,1174 Z M1144,1174 L1144,517 L88,517 L88,511 L1150,511 L1150,1180 L88,1180 L88,1174 L1144,1174 Z M1144,517 L1144,511 L1150,517 L1144,517 Z" id="Rectangle-6"></path>
        </g>
    </g>
</svg>