<?xml version="1.0" encoding="UTF-8"?>
<svg width="640px" height="150px" viewBox="0 0 640 150" version="1.1" xmlns="http://www.w3.org/2000/svg" xmlns:xlink="http://www.w3.org/1999/xlink">
    <!-- Generator: Sketch 49.3 (51167) - http://www.bohemiancoding.com/sketch -->
    <title>WORK</title>
    <desc>Created with Sketch.</desc>
    <defs>
        <radialGradient cx="48.1711845%" cy="187.21875%" fx="48.1711845%" fy="187.21875%" r="239.238903%" gradientTransform="translate(0.481712,1.872187),scale(0.234380,1.000000),rotate(-94.660428),translate(-0.481712,-1.872187)" id="radialGradient-1">
            <stop stop-color="#5C6FF7" offset="0%"></stop>
            <stop stop-color="#3140C1" offset="100%"></stop>
        </radialGradient>
    </defs>
    <g id="Page-1" stroke="none" stroke-width="1" fill="none" fill-rule="evenodd">
        <path d="M150.405954,95.3991881 L173.748309,3.04465494 L206.630582,3.04465494 L167.456022,146.955345 L134.370771,146.955345 L103.721245,51.556157 L72.8687415,146.955345 L39.1745602,146.955345 L0,3.04465494 L34.1001353,3.04465494 L57.8484438,95.1962111 L87.6860622,3.04465494 L120.568336,3.04465494 L150.405954,95.3991881 Z M246.211096,74.8985115 C246.211096,104.939107 267.726658,118.335589 287.82138,118.335589 C307.713126,118.335589 329.228687,104.939107 329.228687,74.8985115 C329.228687,44.8579161 307.713126,31.2584574 287.82138,31.2584574 C267.726658,31.2584574 246.211096,44.8579161 246.211096,74.8985115 Z M212.922869,75.1014885 C212.922869,29.4316644 247.225981,0 287.82138,0 C328.213802,0 362.516915,29.4316644 362.516915,75.1014885 C362.516915,120.568336 328.213802,150 287.82138,150 C247.225981,150 212.922869,120.568336 212.922869,75.1014885 Z M454.668471,146.955345 L428.890392,93.3694181 L417.523681,93.3694181 L417.523681,146.955345 L385.453315,146.955345 L385.453315,3.04465494 L442.489851,3.04465494 C470.906631,3.04465494 489.17456,22.5304465 489.17456,48.105548 C489.17456,67.5913396 478.416779,82.4086604 460.757781,88.7009472 L489.986468,146.955345 L454.668471,146.955345 Z M417.523681,65.7645467 L436.400541,65.7645467 C449.594046,65.7645467 456.698241,58.4573748 456.698241,48.308525 C456.698241,37.5507442 449.594046,30.8525034 436.400541,30.8525034 L417.523681,30.8525034 L417.523681,65.7645467 Z M600,146.955345 L561.231394,90.3247632 L544.993234,108.389716 L544.993234,146.955345 L512.922869,146.955345 L512.922869,3.04465494 L544.993234,3.04465494 L544.993234,63.5317997 L597.564276,3.04465494 L639.783491,3.04465494 L583.76184,65.3585927 L639.986468,146.955345 L600,146.955345 Z" id="WORK" fill="url(#radialGradient-1)"></path>
    </g>
</svg>