<?xml version="1.0" encoding="UTF-8"?>
<svg width="977px" height="148px" viewBox="0 0 977 148" version="1.1" xmlns="http://www.w3.org/2000/svg" xmlns:xlink="http://www.w3.org/1999/xlink">
    <!-- Generator: Sketch 49.3 (51167) - http://www.bohemiancoding.com/sketch -->
    <title>CONTACT</title>
    <desc>Created with Sketch.</desc>
    <defs>
        <radialGradient cx="56.4053859%" cy="50%" fx="56.4053859%" fy="50%" r="394.179483%" gradientTransform="translate(0.564054,0.500000),scale(0.151372,1.000000),rotate(174.026995),translate(-0.564054,-0.500000)" id="radialGradient-1">
            <stop stop-color="#2CB8B1" offset="0%"></stop>
            <stop stop-color="#3F648A" offset="100%"></stop>
        </radialGradient>
    </defs>
    <g id="Page-1" stroke="none" stroke-width="1" fill="none" fill-rule="evenodd">
        <path d="M73.6,147.8 C32.8,147.8 0,118.4 0,74.2 C0,30 33.6,0 73.2,0 C115.8,0 134.6,27.4 139.2,47.8 L109.4,57.2 C107.2,47.4 98.2,30.8 73.2,30.8 C54.2,30.8 32.8,44.4 32.8,74.2 C32.8,100.8 52.4,116.2 73.6,116.2 C98.2,116.2 108,99.8 110.8,89.6 L141,98.2 C136.4,117.8 117.6,147.8 73.6,147.8 Z M186.2,73.8 C186.2,103.4 207.4,116.6 227.2,116.6 C246.8,116.6 268,103.4 268,73.8 C268,44.2 246.8,30.8 227.2,30.8 C207.4,30.8 186.2,44.2 186.2,73.8 Z M153.4,74 C153.4,29 187.2,0 227.2,0 C267,0 300.8,29 300.8,74 C300.8,118.8 267,147.8 227.2,147.8 C187.2,147.8 153.4,118.8 153.4,74 Z M443.6,144.8 L410.2,144.8 L351.8,51.6 L351.8,144.8 L320.4,144.8 L320.4,3 L358.8,3 L412,89.2 L412,3 L443.6,3 L443.6,144.8 Z M581.6,33.2 L537.8,33.2 L537.8,144.8 L506.2,144.8 L506.2,33.2 L462.6,33.2 L462.6,3 L581.6,3 L581.6,33.2 Z M675.8,144.8 L665.6,116 L610.8,116 L600.6,144.8 L567.4,144.8 L620.8,3 L657.4,3 L710.2,144.8 L675.8,144.8 Z M638.6,38.2 L621.2,87.2 L655.6,87.2 L638.6,38.2 Z M781,147.8 C740.2,147.8 707.4,118.4 707.4,74.2 C707.4,30 741,0 780.6,0 C823.2,0 842,27.4 846.6,47.8 L816.8,57.2 C814.6,47.4 805.6,30.8 780.6,30.8 C761.6,30.8 740.2,44.4 740.2,74.2 C740.2,100.8 759.8,116.2 781,116.2 C805.6,116.2 815.4,99.8 818.2,89.6 L848.4,98.2 C843.8,117.8 825,147.8 781,147.8 Z M976.4,33.2 L932.6,33.2 L932.6,144.8 L901,144.8 L901,33.2 L857.4,33.2 L857.4,3 L976.4,3 L976.4,33.2 Z" id="CONTACT" fill="url(#radialGradient-1)"></path>
    </g>
</svg>