<svg id="Layer_1" data-name="Layer 1" xmlns="http://www.w3.org/2000/svg" width="100" height="100" viewBox="0 0 100 100">
  <title>stacks</title>
  <g>
    <path d="M50,54a2,2,0,0,1-.93-.23l-3.81-2L10.57,33.53A2,2,0,0,1,9.5,31.76,2,2,0,0,1,10.57,30L49.07,9.73a2,2,0,0,1,1.87,0L89.43,30a2,2,0,0,1,1.07,1.77,2,2,0,0,1-1.07,1.77L50.93,53.77A2,2,0,0,1,50,54ZM15.8,31.76,50,49.74l34.19-18L50,13.76Z" style="fill: #fff"/>
    <path d="M50,72.25a2,2,0,0,1-.93-.23L10.57,51.78A2,2,0,0,1,9.5,50a2,2,0,0,1,1.07-1.77l17.35-9.13a2,2,0,0,1,1.86,0L50,49.74,70.22,39.11a2,2,0,0,1,1.86,0l17.35,9.13A2,2,0,0,1,90.5,50a2,2,0,0,1-1.07,1.77L50.94,72A2,2,0,0,1,50,72.25ZM15.8,50,50,68,84.2,50l-13-6.87L50.93,53.77a2,2,0,0,1-1.85,0L28.85,43.14Z" style="fill: #fff"/>
    <path d="M50,90.5a2,2,0,0,1-.93-.23L10.57,70A2,2,0,0,1,9.5,68.26a2,2,0,0,1,1.07-1.77l17.35-9.13a2,2,0,0,1,1.86,0L50,68,70.22,57.36a2,2,0,0,1,1.86,0l17.35,9.13a2,2,0,0,1,1.07,1.77A2,2,0,0,1,89.43,70L50.94,90.27A2,2,0,0,1,50,90.5ZM15.8,68.26,50,86.24l34.19-18-13-6.87L50.94,72a2,2,0,0,1-1.86,0L28.85,61.39Z" style="fill: #fff"/>
  </g>
</svg>
