<?xml version="1.0" encoding="UTF-8"?>
<svg width="32px" height="32px" viewBox="0 0 32 32" version="1.1" xmlns="http://www.w3.org/2000/svg" xmlns:xlink="http://www.w3.org/1999/xlink">
    <!-- Generator: Sketch 49.3 (51167) - http://www.bohemiancoding.com/sketch -->
    <title>icon-dribbble</title>
    <desc>Created with Sketch.</desc>
    <defs></defs>
    <g id="Symbols" stroke="none" stroke-width="1" fill="none" fill-rule="evenodd">
        <g id="global/footer" transform="translate(-1244.000000, -24.000000)" fill="#FFFFFF" fill-rule="nonzero">
            <g id="Group-3" transform="translate(1244.000000, 24.000000)">
                <path d="M16,0 C7.17767189,0.000330496571 0.000330053427,7.17739403 0,16 C0.000330053427,24.822606 7.17767189,32 16,32 C24.8223281,32 31.9996699,24.822606 32,16 C31.9996699,7.17739403 24.8223281,0.000330496571 16,0 Z M26.5270541,7.55250764 C28.3515894,9.81673965 29.4618891,12.6778485 29.5133775,15.7931091 C28.9060792,15.6701644 26.3336428,15.1883004 23.2598552,15.1883004 C22.2683747,15.1883004 21.2247458,15.2388664 20.1784764,15.3674296 C20.0903521,15.1532678 20.0012377,14.937784 19.9091528,14.7216393 C19.6371888,14.0824589 19.3457516,13.4485665 19.0421024,12.8249194 C23.771438,10.8733372 26.0547476,8.16491779 26.5270541,7.55250764 Z M16,2.50384202 C19.4087918,2.50384202 22.5251563,3.77261836 24.9055016,5.86201768 C24.5282505,6.37726184 22.4852198,8.93365281 17.9242115,10.6608279 C15.8135198,6.7950095 13.5014956,3.59613319 12.9516265,2.8528464 C13.9318852,2.62513426 14.9517503,2.50384202 16,2.50384202 Z M10.1937001,3.8172354 C10.6597355,4.45905974 12.9734101,7.69230769 15.1385606,11.5273899 C9.32763991,13.056267 4.16692452,13.156738 2.92196299,13.156738 C2.87113476,13.156738 2.82723766,13.156738 2.78994162,13.156738 C3.68405636,9.02718334 6.4710275,5.59563745 10.1937001,3.8172354 Z M2.48266188,16.0208213 C2.48266188,15.9097744 2.48530231,15.7983971 2.48860284,15.6870197 C2.56946593,15.6883417 2.68795511,15.6896637 2.84308022,15.6896637 C4.51975163,15.6896637 10.3425542,15.5498637 16.3425955,13.7665042 C16.7066444,14.4803768 17.0538606,15.2041643 17.3753326,15.9272908 C17.2251583,15.9709163 17.074984,16.0152028 16.92646,16.0631248 C10.1712565,18.2483682 6.4568352,24.0320582 5.88584277,24.9769479 C3.76954019,22.5894406 2.48266188,19.4533587 2.48266188,16.0208213 Z M16,29.538131 C12.8984879,29.538131 10.0392351,28.486491 7.75559544,26.7239527 C8.14142789,25.9657936 10.9435815,20.912501 18.34767,18.3319838 C18.3529509,18.3303313 18.3582317,18.3283483 18.3631825,18.3263654 C20.2184129,23.1668181 21.0049302,27.2289515 21.2217753,28.4871519 C19.6144151,29.1636784 17.8499495,29.538131 16,29.538131 Z M23.6552592,27.1549203 C23.4740599,26.1138561 22.745962,22.3065356 21.0643398,17.6633892 C22.0076325,17.5173098 22.9255111,17.4594729 23.7856303,17.4594729 C26.6105576,17.4591424 28.8205953,18.0784929 29.3341585,18.2348178 C28.7235596,21.92349 26.6151783,25.1131125 23.6552592,27.1549203 Z" id="icon-dribbble"></path>
            </g>
        </g>
    </g>
</svg>