<svg id="Layer_1" data-name="Layer 1" xmlns="http://www.w3.org/2000/svg" width="100" height="100" viewBox="0 0 100 100">
  <title>rocket</title>
  <g>
    <path d="M25.12,54.51l-.21.22.34-.09Z" style="fill: #fff;fill-rule: evenodd"/>
    <path d="M45.17,74.57c0,.1,0,.2-.07.3l.19-.19Z" style="fill: #fff;fill-rule: evenodd"/>
    <path d="M45.75,74.48h-.23l-.75,0L25.58,55.23l0-.75A6.87,6.87,0,0,1,25.65,53c.43-2.58,2.27-8.25,9.76-17.17,1.94-2.31,4.18-4.73,6.64-7.19C58.24,12.44,83.24,11,86.11,13.89S87.56,41.76,71.37,58C55.71,73.61,47.39,74.48,45.75,74.48ZM29.6,53.59,46.41,70.4c2.09-.37,9.4-2.55,22.13-15.28C82.69,41,83.83,21.14,83.12,16.88c-4.27-.71-24.1.43-38.24,14.58-2.38,2.38-4.54,4.71-6.4,6.94C31.4,46.82,29.91,51.8,29.6,53.59ZM83.7,17Zm0,0ZM83,16.3Z" style="fill: #fff"/>
    <g>
      <path d="M13.94,62.41a3.17,3.17,0,0,1-.85-.12,2.82,2.82,0,0,1-2-2.57,23.19,23.19,0,0,1,7.24-17.54,24,24,0,0,1,18.74-7.07l3.93.27-2.53,3c-7.15,8.5-8.6,13.49-8.89,15.24l-.08.47L28.16,56,27,55.84A12.79,12.79,0,0,0,16.2,61.27,2.8,2.8,0,0,1,13.94,62.41ZM32.68,39.25A19.81,19.81,0,0,0,21.17,45a19.87,19.87,0,0,0-5.91,11.33,16.88,16.88,0,0,1,10.63-4.5C26.52,49.35,28.22,45.18,32.68,39.25Z" style="fill: #fff"/>
      <path d="M41.19,88.92l-.91,0a2.83,2.83,0,0,1-1.55-5.1h0A12.82,12.82,0,0,0,44.16,73L44,71.84l1.85-1.35.47-.08c1.75-.29,6.74-1.74,15.24-8.89l3-2.53.27,3.93a24,24,0,0,1-7.07,18.74A23.29,23.29,0,0,1,41.19,88.92Zm7-14.81a16.88,16.88,0,0,1-4.5,10.63A19.87,19.87,0,0,0,55,78.83a19.81,19.81,0,0,0,5.76-11.52C54.82,71.78,50.65,73.48,48.16,74.11Z" style="fill: #fff"/>
    </g>
    <g>
      <path d="M16.52,72.63a2,2,0,0,1-1.42-3.41L24.37,60a2,2,0,0,1,2.83,2.82l-9.27,9.27A2,2,0,0,1,16.52,72.63Z" style="fill: #fff"/>
      <path d="M29.37,85.48A2,2,0,0,1,28,82.07l9.27-9.27A2,2,0,0,1,40,75.63L30.78,84.9A2,2,0,0,1,29.37,85.48Z" style="fill: #fff"/>
      <path d="M15.47,86.53a2,2,0,0,1-1.41-3.42L30.79,66.38a2,2,0,1,1,2.83,2.83L16.89,85.94A2,2,0,0,1,15.47,86.53Z" style="fill: #fff"/>
    </g>
    <rect x="70.04" y="14.17" width="4" height="27.57" transform="translate(1.33 59.13) rotate(-45)" style="fill: #fff"/>
  </g>
</svg>
