<svg id="Layer_1" data-name="Layer 1" xmlns="http://www.w3.org/2000/svg" width="100" height="100" viewBox="0 0 100 100">
  <title>paperplane</title>
  <g>
    <path d="M29,64.31a1.91,1.91,0,0,1-.62-.1l-20-6.46A2,2,0,0,1,7,56,2,2,0,0,1,8.14,54l82-38.86a2,2,0,0,1,2,3.43L30.91,63a2,2,0,0,1-.34.63A2,2,0,0,1,29,64.31ZM14.41,55.49,28.23,60l44-31.87Z" style="fill: #fff"/>
    <path d="M39.27,82.68H39.1a2,2,0,0,1-1.58-1L27.09,63a2,2,0,0,1,.57-2.6l62.17-45a2,2,0,0,1,2.67.3,2,2,0,0,1,0,2.68l-44.56,48,1.67.54a2,2,0,0,1,1.3,1.34A2,2,0,0,1,50.51,70L40.82,81.94A2,2,0,0,1,39.27,82.68ZM31.45,62.56l8.13,14.57,6-7.37-1.87-.61a2,2,0,0,1-.85-3.26L75.66,30.56Z" style="fill: #fff"/>
    <path d="M76.44,79.63a2.16,2.16,0,0,1-.62-.09L43.69,69.15a2,2,0,0,1-.85-3.26l46.7-50.26a2,2,0,0,1,3.4,1.83L78.38,78.1a2,2,0,0,1-1.94,1.53ZM47.9,66.31,75,75.07,87.27,23.94Z" style="fill: #fff"/>
  </g>
</svg>
