<svg id="Layer_1" data-name="Layer 1" xmlns="http://www.w3.org/2000/svg" width="100" height="100" viewBox="0 0 100 100">
  <title>eye</title>
  <path d="M50,76.62h-.9A45.35,45.35,0,0,1,24.47,69a59.2,59.2,0,0,1-15-14.78,2,2,0,0,1,0-2.34C16.21,42.49,24.24,36,33.32,32.46A45.16,45.16,0,0,1,49.1,29.39h1.13A45.26,45.26,0,0,1,66,32.46c9.07,3.51,17.1,10,23.86,19.37a2,2,0,0,1,0,2.34C79.45,68.57,65.75,76.32,50.23,76.61Zm-.47-4H50C64,72.41,76.08,65.82,85.77,53c-6.11-8.08-13.24-13.73-21.2-16.81A41.34,41.34,0,0,0,50,33.39h-.61a41.45,41.45,0,0,0-14.59,2.79c-8,3.09-15.1,8.74-21.21,16.82A54.14,54.14,0,0,0,26.69,65.61a41.24,41.24,0,0,0,22.67,7Z" style="fill: #fff"/>
  <path d="M49.67,71.5A23.05,23.05,0,0,1,32.56,33a2,2,0,0,1,.75-.52A45.26,45.26,0,0,1,49.1,29.39h1.13A45.26,45.26,0,0,1,66,32.46a2,2,0,0,1,.75.52A23.05,23.05,0,0,1,49.67,71.5ZM35.21,36a19.07,19.07,0,1,0,28.91,0A41.65,41.65,0,0,0,50,33.39h-.61A41.65,41.65,0,0,0,35.21,36Z" style="fill: #fff"/>
  <circle cx="49.67" cy="48.44" r="9.69" style="fill: #fff"/>
  <circle cx="40.38" cy="48.44" r="2.73" style="fill: #fff"/>
</svg>
