<?xml version="1.0" encoding="UTF-8"?>
<svg width="32px" height="32px" viewBox="0 0 32 32" version="1.1" xmlns="http://www.w3.org/2000/svg" xmlns:xlink="http://www.w3.org/1999/xlink">
    <!-- Generator: Sketch 49.3 (51167) - http://www.bohemiancoding.com/sketch -->
    <title>icon-instagram</title>
    <desc>Created with Sketch.</desc>
    <defs></defs>
    <g id="Symbols" stroke="none" stroke-width="1" fill="none" fill-rule="evenodd">
        <g id="global/footer" transform="translate(-1301.000000, -24.000000)" fill="#FFFFFF" fill-rule="nonzero">
            <g id="Group-3" transform="translate(1241.000000, 23.000000)">
                <g id="icon-instagram" transform="translate(60.000000, 1.000000)">
                    <path d="M23.3536875,0 L8.6463125,0 C3.87875,0 0,3.87875 0,8.6463125 L0,23.3536875 C0,28.12125 3.87875,32 8.6463125,32 L23.3536875,32 C28.12125,32 32,28.12125 32,23.3536875 L32,8.6463125 C32,3.87875 28.12125,0 23.3536875,0 Z M29.41475,23.3536875 C29.41475,26.69575 26.6958125,29.41475 23.3536875,29.41475 L8.6463125,29.41475 C5.30425,29.41475 2.58525,26.6958125 2.58525,23.3536875 L2.58525,8.6463125 C2.58525,5.30425 5.3041875,2.58525 8.6463125,2.58525 L23.3536875,2.58525 C26.69575,2.58525 29.41475,5.3041875 29.41475,8.6463125 L29.41475,23.3536875 Z" id="Shape"></path>
                    <path d="M23.161625,14.8838125 C22.934125,13.349625 22.2341875,11.959125 21.1375,10.8624375 C20.0408125,9.7658125 18.6503125,9.0658125 17.1161875,8.838375 C16.4176875,8.7348125 15.7095,8.7348125 15.0110625,8.838375 C13.1150625,9.1195625 11.442125,10.1221875 10.3003125,11.661625 C9.1585,13.2010625 8.6844375,15.0930625 8.965625,16.9889375 C9.2468125,18.884875 10.2494375,20.5578125 11.788875,21.6996875 C13.038625,22.626625 14.5205,23.113375 16.0484375,23.113375 C16.402625,23.113375 16.759375,23.08725 17.116125,23.0343125 C19.012125,22.753125 20.6850625,21.7505 21.826875,20.2110625 C22.96875,18.6716875 23.4428125,16.77975 23.161625,14.8838125 Z M16.7369375,20.477 C15.524125,20.657125 14.3138125,20.3536875 13.329,19.62325 C12.3441875,18.8928125 11.7028125,17.8225625 11.523,16.60975 C11.343125,15.3969375 11.6463125,14.186625 12.37675,13.2018125 C13.10725,12.217 14.1774375,11.575625 15.3903125,11.39575 C15.6136875,11.362625 15.838625,11.3460625 16.0635625,11.3460625 C16.2885,11.3460625 16.5135,11.362625 16.736875,11.3958125 C18.7513125,11.6945 20.3055,13.248625 20.60425,15.263125 C20.9755,17.76675 19.2406875,20.10575 16.7369375,20.477 Z" id="Shape"></path>
                    <path d="M25.0030625,6.9969375 C24.7623125,6.75625 24.429125,6.6183125 24.089,6.6183125 C23.748875,6.6183125 23.4156875,6.7561875 23.1749375,6.9969375 C22.93425,7.2376875 22.7963125,7.5703125 22.7963125,7.911 C22.7963125,8.2516875 22.93425,8.5843125 23.1749375,8.8250625 C23.4156875,9.06575 23.748875,9.2036875 24.089,9.2036875 C24.429125,9.2036875 24.7623125,9.0658125 25.0030625,8.8250625 C25.24375,8.5843125 25.3816875,8.251125 25.3816875,7.911 C25.3816875,7.5708125 25.24375,7.237625 25.0030625,6.9969375 Z" id="Shape"></path>
                </g>
            </g>
        </g>
    </g>
</svg>