<?xml version="1.0" encoding="UTF-8"?>
<svg width="32px" height="32px" viewBox="0 0 32 32" version="1.1" xmlns="http://www.w3.org/2000/svg" xmlns:xlink="http://www.w3.org/1999/xlink">
    <!-- Generator: Sketch 49.3 (51167) - http://www.bohemiancoding.com/sketch -->
    <title>icon-linkedin</title>
    <desc>Created with Sketch.</desc>
    <defs></defs>
    <g id="Symbols" stroke="none" stroke-width="1" fill="none" fill-rule="evenodd">
        <g id="global/footer" transform="translate(-1358.000000, -24.000000)" fill="#FFFFFF" fill-rule="nonzero">
            <g id="Group-3" transform="translate(1241.000000, 23.000000)">
                <path d="M146.637086,1 L119.364402,1 C118.058475,1 117,2.02612649 117,3.29262235 L117,30.7049223 C117,31.9714926 118.058847,32.9985118 119.364402,32.9985118 L146.637086,32.9985118 C147.942715,32.9985118 149,31.970823 149,30.7049223 L149,3.29262235 C149,2.02649846 147.942715,1 146.637086,1 Z M126.701488,27.7849293 L121.866516,27.7849293 L121.866516,13.3379937 L126.701488,13.3379937 L126.701488,27.7849293 Z M124.284486,11.3643016 L124.251973,11.3643016 C122.630595,11.3643016 121.579559,10.2555226 121.579559,8.86739133 C121.579559,7.45128767 122.66147,6.37256411 124.314989,6.37256411 C125.968657,6.37256411 126.985841,7.45099009 127.017981,8.86739133 C127.017981,10.2558201 125.969029,11.3643016 124.284486,11.3643016 Z M144.130136,27.7849293 L139.296727,27.7849293 L139.296727,20.055317 C139.296727,18.1130938 138.596408,16.7878261 136.848477,16.7878261 C135.511303,16.7878261 134.717539,17.6819019 134.36898,18.545104 C134.239823,18.8533957 134.207831,19.2845876 134.207831,19.7151843 L134.207831,27.7846317 L129.375315,27.7846317 C129.375315,27.7846317 129.438555,14.6927218 129.375315,13.3377706 L134.208575,13.3377706 L134.208575,15.3859318 C134.850193,14.401764 135.996757,12.997861 138.56345,12.997861 C141.744753,12.997861 144.130136,15.0614964 144.130136,19.5010018 L144.130136,27.7849293 Z M134.177328,15.4516483 C134.189168,15.432235 134.205701,15.408875 134.222128,15.386155 L134.222128,15.4516483 L134.177328,15.4516483 Z" id="icon-linkedin"></path>
            </g>
        </g>
    </g>
</svg>