<svg id="Layer_1" data-name="Layer 1" xmlns="http://www.w3.org/2000/svg" width="100" height="100" viewBox="0 0 100 100">
  <title>lightbulb</title>
  <g>
    <path d="M59.15,88.35H40.91a3.71,3.71,0,0,1-3.8-3.79V69.73a12.86,12.86,0,0,0-4.37-9.44A25,25,0,0,1,25,39.93,25.24,25.24,0,0,1,48.84,17.19a24.55,24.55,0,0,1,18.32,6.74,25,25,0,0,1,0,36.56,12.66,12.66,0,0,0-4.19,9.24v15A3.75,3.75,0,0,1,59.15,88.35Zm-18-4H58.94V69.73A16.66,16.66,0,0,1,64.4,57.56a21,21,0,0,0,0-30.72,20.56,20.56,0,0,0-15.36-5.65A21.23,21.23,0,0,0,29,40.27a21,21,0,0,0,6.52,17.1,16.78,16.78,0,0,1,5.63,12.36Z" style="fill: #fff"/>
    <path d="M61,80.55H39.11a2,2,0,0,1,0-4H61a2,2,0,0,1,0,4Z" style="fill: #fff"/>
    <path d="M61,72.53H39.11a2,2,0,0,1,0-4H61a2,2,0,1,1,0,4Z" style="fill: #fff"/>
    <path d="M50.28,91.67a2,2,0,0,1-2-2V87.2a2,2,0,0,1,4,0v2.47A2,2,0,0,1,50.28,91.67Z" style="fill: #fff"/>
    <path d="M50,13.74a2,2,0,0,1-2-2V4.33a2,2,0,1,1,4,0v7.41A2,2,0,0,1,50,13.74Z" style="fill: #fff"/>
    <g>
      <path d="M88.45,44.78H81a2,2,0,0,1,0-4h7.41a2,2,0,1,1,0,4Z" style="fill: #fff"/>
      <path d="M19,44.78H11.55a2,2,0,1,1,0-4H19a2,2,0,0,1,0,4Z" style="fill: #fff"/>
    </g>
    <g>
      <path d="M77.19,72a2,2,0,0,1-1.42-.59l-5.24-5.24a2,2,0,1,1,2.83-2.83l5.24,5.24A2,2,0,0,1,77.19,72Z" style="fill: #fff"/>
      <path d="M28.05,22.83a2,2,0,0,1-1.41-.58L21.4,17a2,2,0,1,1,2.83-2.83l5.24,5.24a2,2,0,0,1-1.42,3.41Z" style="fill: #fff"/>
    </g>
    <g>
      <path d="M22.81,72a2,2,0,0,1-1.41-3.42l5.24-5.24a2,2,0,1,1,2.83,2.83l-5.24,5.24A2,2,0,0,1,22.81,72Z" style="fill: #fff"/>
      <path d="M72,22.83a2,2,0,0,1-1.42-3.41l5.24-5.24A2,2,0,1,1,78.6,17l-5.24,5.24A2,2,0,0,1,72,22.83Z" style="fill: #fff"/>
    </g>
  </g>
</svg>
