<?xml version="1.0" encoding="UTF-8"?>
<svg width="37px" height="37px" viewBox="0 0 37 37" version="1.1" xmlns="http://www.w3.org/2000/svg" xmlns:xlink="http://www.w3.org/1999/xlink">
    <!-- Generator: Sketch 49.3 (51167) - http://www.bohemiancoding.com/sketch -->
    <title>dc</title>
    <desc>Created with Sketch.</desc>
    <defs>
        <polygon id="path-1" points="2.96245989e-05 0.0962705812 36.9042784 0.0962705812 36.9042784 37 2.96245989e-05 37"></polygon>
        <polygon id="path-3" points="2.96245989e-05 0.0962705812 36.9042784 0.0962705812 36.9042784 37 2.96245989e-05 37"></polygon>
    </defs>
    <g id="Page-1" stroke="none" stroke-width="1" fill="none" fill-rule="evenodd">
        <g id="Desktop-HD" transform="translate(-670.000000, -657.000000)">
            <g id="dc" transform="translate(670.000000, 657.000000)">
                <g id="Group-3">
                    <mask id="mask-2" fill="white">
                        <use xlink:href="#path-1"></use>
                    </mask>
                    <g id="Clip-2"></g>
                    <path d="M35.1169507,22.2411512 C34.7649995,23.832452 34.1864358,25.3756228 33.3912867,26.7984683 C33.3692271,26.8826959 33.2398775,26.8726688 33.2569236,26.7794168 C33.2529127,25.3044304 33.2569236,23.8284412 33.2558206,22.352452 C33.25191,22.2291187 33.2689561,22.1017745 33.2347637,21.982452 C33.2087935,21.9112596 33.1195523,21.9182786 33.058387,21.9152705 C31.5733734,21.9172759 30.0883599,21.9142678 28.6033463,21.9172759 C28.504078,21.8972217 28.4288748,21.9874656 28.4409073,22.0817203 C28.4399046,22.9109615 28.4409073,23.7402027 28.4399046,24.5694439 C27.7630753,24.5714493 27.0852434,24.5714493 26.4084141,24.5704466 C25.7847285,24.5654331 25.1871133,24.1763816 24.9274114,23.6108531 C24.8221268,23.3862461 24.7679805,23.1385767 24.7679805,22.8909073 C24.7669778,20.1484954 24.7689832,17.4060835 24.7669778,14.6636715 C24.7760022,14.5563816 24.6927772,14.4791729 24.6114575,14.4250266 C24.2345388,14.1563003 23.863536,13.8795523 23.4865171,13.610826 C25.1378802,13.6058125 26.7904466,13.6078179 28.4409073,13.610826 C28.4378992,14.4871946 28.4429127,15.3645659 28.4389019,16.2419371 C28.4409073,16.308116 28.4338883,16.384322 28.4820184,16.4374656 C28.5271404,16.4675469 28.5852976,16.4615306 28.6374385,16.4655415 C29.998116,16.463536 31.3577908,16.4665442 32.7174656,16.463536 C32.8067068,16.4765713 32.8738883,16.401368 32.8768965,16.3161377 C33.1526417,14.5814493 33.4273843,12.8457583 33.7021268,11.1110699 C33.7372217,11.1070591 33.7733192,11.1040509 33.8094168,11.1000401 C35.4868504,14.5252976 35.9420808,18.521097 35.1169507,22.2411512 M9.22096152,14.4811783 C8.82689648,14.1863816 8.42380705,13.9036173 8.02773659,13.610826 C9.11958753,13.6058125 10.2106363,13.610826 11.3025875,13.6078179 C11.7708531,13.5977908 12.2401214,13.7953247 12.5559751,14.1422623 C12.8437528,14.4460835 13.0061919,14.8612054 13.0061919,15.2783328 C13.0071946,17.8161919 13.0061919,20.3550537 13.0061919,22.8929127 C13.0092,23.3581702 12.8076553,23.8194168 12.4617203,24.1302569 C12.1609073,24.4090103 11.7528043,24.5704466 11.3426959,24.5704466 C10.664864,24.5704466 9.98602927,24.5714493 9.30819729,24.5704466 C9.30819729,21.294593 9.30719458,18.0187393 9.30819729,14.7428856 C9.30518916,14.6506363 9.30719458,14.5393355 9.22096152,14.4811783 M31.754864,29.2360564 C29.8697691,31.5904195 27.3469507,33.4293897 24.5263274,34.500284 C21.1502027,35.7937799 17.3579534,35.9622352 13.8765442,34.9926146 C10.4613138,34.0500672 7.36293984,32.003536 5.15196423,29.2370591 C5.08367967,29.1839154 5.15296694,29.0906634 5.22716748,29.1107176 L14.1101756,29.1107176 C14.2615848,29.1077095 14.4320455,29.1357854 14.5603924,29.0325062 C15.70649,28.2052705 16.8465713,27.3690103 17.9926688,26.5407718 C18.0979534,26.4765984 18.165135,26.3632921 18.1490916,26.2379534 C18.1460835,21.4319642 18.151097,16.6259751 18.1460835,11.8199859 C18.1611241,11.667574 18.018639,11.5873572 17.9134547,11.5111512 C16.8746472,10.758116 15.8368423,10.0030753 14.7980347,9.2490374 C14.6456228,9.14575827 14.5022352,8.98632737 14.3016932,8.99735718 C11.0338612,8.99635447 7.765929,8.99635447 4.49819729,8.99735718 C4.44204553,9.00437615 4.39491816,8.97529756 4.35079892,8.94722168 C4.84613767,8.19117832 5.4287122,7.49329214 6.04437615,6.83150352 C7.78808889,4.98551436 9.94491816,3.53058211 12.3163274,2.62012141 C15.7566255,1.28651707 19.6320997,1.12307534 23.175677,2.14483686 C26.0885496,2.97708618 28.7617745,4.61350894 30.8434005,6.81245203 C31.4650808,7.48025691 32.0546743,8.18315664 32.5550266,8.94822439 C32.5089019,8.97529756 32.4627772,9.00437615 32.4075279,8.99735718 C31.6264168,8.99535176 30.8444033,8.99735718 30.0632921,8.99635447 C29.9790645,8.99334634 29.8787935,9.01039241 29.835677,9.09161192 C29.6361377,9.48266883 29.4746011,9.89177453 29.2691458,10.2788206 C28.7286851,9.8787393 28.1812054,9.48667967 27.6377366,9.0896065 C27.5505008,9.02242493 27.4412054,8.99134092 27.33191,8.99635447 C26.0504466,8.99635447 24.7699859,8.99735718 23.4885225,8.99635447 C23.3872488,8.99234363 23.2879805,9.0194168 23.2076634,9.08058211 C22.0566526,9.91483686 20.9065442,10.7520997 19.7554331,11.5873572 C19.6772217,11.6384954 19.6180618,11.7237257 19.6270862,11.8209886 C19.6250808,16.5868694 19.6280889,21.3537528 19.6250808,26.1196336 C19.6270862,26.2489832 19.6020184,26.4154331 19.7263545,26.4996607 C20.8453789,27.314864 21.9664087,28.1270591 23.0854331,28.9422623 C23.1937257,29.019471 23.3050266,29.1207447 23.4484141,29.1097149 C26.1928314,29.1117203 28.9372488,29.1107176 31.6805631,29.1107176 C31.7528585,29.0906634 31.8210428,29.1849182 31.754864,29.2360564 M4.14424065,27.6928856 C4.12619187,27.6999046 4.09009431,27.7129398 4.07204553,27.7189561 C3.82337344,27.3740238 3.62383415,26.9949995 3.41727588,26.622994 C2.62513496,25.1560293 2.05359024,23.5717474 1.72369864,21.9373301 C1.13711328,19.0204466 1.31860379,15.9501485 2.26716748,13.1275198 C2.30627317,13.0222352 2.32432195,12.9009073 2.41657127,12.8267068 C2.94600217,13.2047285 3.46841409,13.5927772 3.9988477,13.9718016 C4.08808889,14.0329669 4.1793355,14.1212054 4.16429485,14.2415306 C4.16529756,18.5993084 4.16429485,22.9560835 4.16429485,27.3138612 C4.1561729,27.4392 4.18735718,27.5735631 4.14424065,27.6928856 M35.9380699,12.6381973 C35.3285225,10.8303111 34.431097,9.1196878 33.297032,7.58554146 C31.7368152,5.47283144 29.721368,3.6990374 27.4271675,2.42158482 C24.5233192,0.79418645 21.1702569,-0.00898428184 17.8442678,0.107330081 C16.1055686,0.159471003 14.3748911,0.464294851 12.7214222,1.00375285 C10.1464629,1.84201843 7.76502656,3.26185583 5.79570407,5.12088022 C3.80331924,6.99695068 2.23407805,9.32123252 1.24540596,11.8731295 C0.634755556,13.4443762 0.242695935,15.1008531 0.0852704607,16.7793897 C-0.257656369,20.3169507 0.43822439,23.9527772 2.0987122,27.0982786 C3.33004011,29.4546472 5.0787664,31.5382786 7.18445745,33.1606634 C8.80985041,34.4170591 10.6468152,35.4007176 12.5960835,36.0504737 C16.0584412,37.2136173 19.8687393,37.3088748 23.3882515,36.3322352 C26.4414033,35.4919642 29.2621268,33.8374927 31.4991729,31.5974385 C33.698116,29.4025062 35.3325333,26.6450537 36.187845,23.6569778 C37.220536,20.0722894 37.1364087,16.1727501 35.9380699,12.6381973" id="Fill-1" fill="#FFFFFF" mask="url(#mask-2)"></path>
                </g>
                <g id="Group-6">
                    <mask id="mask-4" fill="white">
                        <use xlink:href="#path-3"></use>
                    </mask>
                    <g id="Clip-5"></g>
                    <path d="M35.1169507,22.2411512 C34.7649995,23.832452 34.1864358,25.3756228 33.3912867,26.7984683 C33.3692271,26.8826959 33.2398775,26.8726688 33.2569236,26.7794168 C33.2529127,25.3044304 33.2569236,23.8284412 33.2558206,22.352452 C33.25191,22.2291187 33.2689561,22.1017745 33.2347637,21.982452 C33.2087935,21.9112596 33.1195523,21.9182786 33.058387,21.9152705 C31.5733734,21.9172759 30.0883599,21.9142678 28.6033463,21.9172759 C28.504078,21.8972217 28.4288748,21.9874656 28.4409073,22.0817203 C28.4399046,22.9109615 28.4409073,23.7402027 28.4399046,24.5694439 C27.7630753,24.5714493 27.0852434,24.5714493 26.4084141,24.5704466 C25.7847285,24.5654331 25.1871133,24.1763816 24.9274114,23.6108531 C24.8221268,23.3862461 24.7679805,23.1385767 24.7679805,22.8909073 C24.7669778,20.1484954 24.7689832,17.4060835 24.7669778,14.6636715 C24.7760022,14.5563816 24.6927772,14.4791729 24.6114575,14.4250266 C24.2345388,14.1563003 23.863536,13.8795523 23.4865171,13.610826 C25.1378802,13.6058125 26.7904466,13.6078179 28.4409073,13.610826 C28.4378992,14.4871946 28.4429127,15.3645659 28.4389019,16.2419371 C28.4409073,16.308116 28.4338883,16.384322 28.4820184,16.4374656 C28.5271404,16.4675469 28.5852976,16.4615306 28.6374385,16.4655415 C29.998116,16.463536 31.3577908,16.4665442 32.7174656,16.463536 C32.8067068,16.4765713 32.8738883,16.401368 32.8768965,16.3161377 C33.1526417,14.5814493 33.4273843,12.8457583 33.7021268,11.1110699 C33.7372217,11.1070591 33.7733192,11.1040509 33.8094168,11.1000401 C35.4868504,14.5252976 35.9420808,18.521097 35.1169507,22.2411512 M9.22096152,14.4811783 C8.82689648,14.1863816 8.42380705,13.9036173 8.02773659,13.610826 C9.11958753,13.6058125 10.2106363,13.610826 11.3025875,13.6078179 C11.7708531,13.5977908 12.2401214,13.7953247 12.5559751,14.1422623 C12.8437528,14.4460835 13.0061919,14.8612054 13.0061919,15.2783328 C13.0071946,17.8161919 13.0061919,20.3550537 13.0061919,22.8929127 C13.0092,23.3581702 12.8076553,23.8194168 12.4617203,24.1302569 C12.1609073,24.4090103 11.7528043,24.5704466 11.3426959,24.5704466 C10.664864,24.5704466 9.98602927,24.5714493 9.30819729,24.5704466 C9.30819729,21.294593 9.30719458,18.0187393 9.30819729,14.7428856 C9.30518916,14.6506363 9.30719458,14.5393355 9.22096152,14.4811783 M31.754864,29.2360564 C29.8697691,31.5904195 27.3469507,33.4293897 24.5263274,34.500284 C21.1502027,35.7937799 17.3579534,35.9622352 13.8765442,34.9926146 C10.4613138,34.0500672 7.36293984,32.003536 5.15196423,29.2370591 C5.08367967,29.1839154 5.15296694,29.0906634 5.22716748,29.1107176 L14.1101756,29.1107176 C14.2615848,29.1077095 14.4320455,29.1357854 14.5603924,29.0325062 C15.70649,28.2052705 16.8465713,27.3690103 17.9926688,26.5407718 C18.0979534,26.4765984 18.165135,26.3632921 18.1490916,26.2379534 C18.1460835,21.4319642 18.151097,16.6259751 18.1460835,11.8199859 C18.1611241,11.667574 18.018639,11.5873572 17.9134547,11.5111512 C16.8746472,10.758116 15.8368423,10.0030753 14.7980347,9.2490374 C14.6456228,9.14575827 14.5022352,8.98632737 14.3016932,8.99735718 C11.0338612,8.99635447 7.765929,8.99635447 4.49819729,8.99735718 C4.44204553,9.00437615 4.39491816,8.97529756 4.35079892,8.94722168 C4.84613767,8.19117832 5.4287122,7.49329214 6.04437615,6.83150352 C7.78808889,4.98551436 9.94491816,3.53058211 12.3163274,2.62012141 C15.7566255,1.28651707 19.6320997,1.12307534 23.175677,2.14483686 C26.0885496,2.97708618 28.7617745,4.61350894 30.8434005,6.81245203 C31.4650808,7.48025691 32.0546743,8.18315664 32.5550266,8.94822439 C32.5089019,8.97529756 32.4627772,9.00437615 32.4075279,8.99735718 C31.6264168,8.99535176 30.8444033,8.99735718 30.0632921,8.99635447 C29.9790645,8.99334634 29.8787935,9.01039241 29.835677,9.09161192 C29.6361377,9.48266883 29.4746011,9.89177453 29.2691458,10.2788206 C28.7286851,9.8787393 28.1812054,9.48667967 27.6377366,9.0896065 C27.5505008,9.02242493 27.4412054,8.99134092 27.33191,8.99635447 C26.0504466,8.99635447 24.7699859,8.99735718 23.4885225,8.99635447 C23.3872488,8.99234363 23.2879805,9.0194168 23.2076634,9.08058211 C22.0566526,9.91483686 20.9065442,10.7520997 19.7554331,11.5873572 C19.6772217,11.6384954 19.6180618,11.7237257 19.6270862,11.8209886 C19.6250808,16.5868694 19.6280889,21.3537528 19.6250808,26.1196336 C19.6270862,26.2489832 19.6020184,26.4154331 19.7263545,26.4996607 C20.8453789,27.314864 21.9664087,28.1270591 23.0854331,28.9422623 C23.1937257,29.019471 23.3050266,29.1207447 23.4484141,29.1097149 C26.1928314,29.1117203 28.9372488,29.1107176 31.6805631,29.1107176 C31.7528585,29.0906634 31.8210428,29.1849182 31.754864,29.2360564 M4.14424065,27.6928856 C4.12619187,27.6999046 4.09009431,27.7129398 4.07204553,27.7189561 C3.82337344,27.3740238 3.62383415,26.9949995 3.41727588,26.622994 C2.62513496,25.1560293 2.05359024,23.5717474 1.72369864,21.9373301 C1.13711328,19.0204466 1.31860379,15.9501485 2.26716748,13.1275198 C2.30627317,13.0222352 2.32432195,12.9009073 2.41657127,12.8267068 C2.94600217,13.2047285 3.46841409,13.5927772 3.9988477,13.9718016 C4.08808889,14.0329669 4.1793355,14.1212054 4.16429485,14.2415306 C4.16529756,18.5993084 4.16429485,22.9560835 4.16429485,27.3138612 C4.1561729,27.4392 4.18735718,27.5735631 4.14424065,27.6928856 M35.9380699,12.6381973 C35.3285225,10.8303111 34.431097,9.1196878 33.297032,7.58554146 C31.7368152,5.47283144 29.721368,3.6990374 27.4271675,2.42158482 C24.5233192,0.79418645 21.1702569,-0.00898428184 17.8442678,0.107330081 C16.1055686,0.159471003 14.3748911,0.464294851 12.7214222,1.00375285 C10.1464629,1.84201843 7.76502656,3.26185583 5.79570407,5.12088022 C3.80331924,6.99695068 2.23407805,9.32123252 1.24540596,11.8731295 C0.634755556,13.4443762 0.242695935,15.1008531 0.0852704607,16.7793897 C-0.257656369,20.3169507 0.43822439,23.9527772 2.0987122,27.0982786 C3.33004011,29.4546472 5.0787664,31.5382786 7.18445745,33.1606634 C8.80985041,34.4170591 10.6468152,35.4007176 12.5960835,36.0504737 C16.0584412,37.2136173 19.8687393,37.3088748 23.3882515,36.3322352 C26.4414033,35.4919642 29.2621268,33.8374927 31.4991729,31.5974385 C33.698116,29.4025062 35.3325333,26.6450537 36.187845,23.6569778 C37.220536,20.0722894 37.1364087,16.1727501 35.9380699,12.6381973" id="Fill-4" fill="#FFFFFF" mask="url(#mask-4)"></path>
                </g>
            </g>
        </g>
    </g>
</svg>