<?xml version="1.0" encoding="UTF-8"?>
<svg width="68px" height="39px" viewBox="0 0 68 39" version="1.1" xmlns="http://www.w3.org/2000/svg" xmlns:xlink="http://www.w3.org/1999/xlink">
    <!-- Generator: Sketch 49.3 (51167) - http://www.bohemiancoding.com/sketch -->
    <title>dramafever</title>
    <desc>Created with Sketch.</desc>
    <defs></defs>
    <g id="Page-1" stroke="none" stroke-width="1" fill="none" fill-rule="evenodd">
        <g id="Desktop-HD" transform="translate(-345.000000, -656.000000)" fill="#FFFFFF" fill-rule="nonzero">
            <g id="dramafever" transform="translate(345.000000, 656.000000)">
                <g id="Group-2" transform="translate(0.000000, 30.000000)">
                    <path d="M3.57894737,0.917293233 L1.61904762,0.917293233 C1.19298246,0.917293233 0.795321637,1.21804511 0.795321637,1.66917293 L0.795321637,7.47368421 C0.795321637,7.92481203 1.19298246,8.28571429 1.61904762,8.28571429 L3.57894737,8.28571429 C5.79448622,8.28571429 7.35672515,6.66165414 7.35672515,4.55639098 L7.35672515,4.52631579 C7.38512949,2.45112782 5.79448622,0.917293233 3.57894737,0.917293233 Z M5.79448622,4.58646617 C5.79448622,5.90977444 4.85714286,6.81203008 3.60735171,6.81203008 L2.38596491,6.81203008 L2.38596491,2.39097744 L3.57894737,2.39097744 C4.85714286,2.39097744 5.79448622,3.26315789 5.79448622,4.58646617 Z" id="Shape"></path>
                    <path d="M11.0776942,0.917293233 L8.63492063,0.917293233 C8.20885547,0.917293233 7.92481203,1.21804511 7.92481203,1.66917293 L7.92481203,7.53383459 C7.92481203,7.98496241 8.18045113,8.34586466 8.63492063,8.34586466 C9.0609858,8.34586466 9.34502924,7.98496241 9.34502924,7.53383459 L9.34502924,5.96992481 L10.6800334,5.96992481 L12.1854637,7.95488722 C12.3558897,8.19548872 12.6115288,8.37593985 12.952381,8.37593985 C13.3216374,8.37593985 13.6908939,8.07518797 13.6908939,7.62406015 C13.6908939,7.35338346 13.5772765,7.20300752 13.4352548,6.9924812 L12.3274854,5.60902256 C13.1796157,5.2481203 13.7192982,4.4962406 13.7192982,3.32330827 L13.7192982,3.29323308 C13.7192982,2.60150376 13.5204678,2.03007519 13.122807,1.60902256 C12.6683375,1.12781955 11.9866332,0.917293233 11.0776942,0.917293233 Z M12.1002506,3.41353383 C12.1002506,4.04511278 11.7309942,4.4962406 10.9640769,4.4962406 L9.3166249,4.4962406 L9.3166249,2.39097744 L10.9356725,2.39097744 C11.7025898,2.39097744 12.1002506,2.69172932 12.1002506,3.41353383 Z" id="Shape"></path>
                    <path d="M18.6900585,1.36842105 C18.5196324,0.977443609 18.2071846,0.706766917 17.7811195,0.706766917 L17.6959064,0.706766917 C17.2698413,0.706766917 16.9573935,0.977443609 16.7869674,1.36842105 L14.3441938,7.23308271 C14.2873851,7.35338346 14.2589808,7.47368421 14.2589808,7.59398496 C14.2589808,8.01503759 14.5714286,8.37593985 14.9690894,8.37593985 C15.2815372,8.37593985 15.5655806,8.16541353 15.679198,7.86466165 L16.1620718,6.63157895 L19.2581454,6.63157895 L19.7410192,7.80451128 C19.8830409,8.13533835 20.1102757,8.37593985 20.4795322,8.37593985 C20.9055973,8.37593985 21.2180451,8.01503759 21.2180451,7.59398496 C21.2180451,7.47368421 21.1896408,7.38345865 21.1328321,7.26315789 L18.6900585,1.36842105 Z M16.7301587,5.12781955 L17.6959064,2.66165414 L18.6616541,5.12781955 L16.7301587,5.12781955 Z" id="Shape"></path>
                    <path d="M33.5171261,1.36842105 C33.3467001,0.977443609 33.0342523,0.706766917 32.6081871,0.706766917 L32.5229741,0.706766917 C32.0969089,0.706766917 31.7844612,0.977443609 31.6140351,1.36842105 L29.1712615,7.23308271 C29.1144528,7.35338346 29.0860485,7.47368421 29.0860485,7.59398496 C29.0860485,8.01503759 29.3984962,8.37593985 29.7961571,8.37593985 C30.1086048,8.37593985 30.3926483,8.16541353 30.5062657,7.86466165 L30.9891395,6.63157895 L34.085213,6.63157895 L34.5680869,7.80451128 C34.7101086,8.13533835 34.9373434,8.37593985 35.3065998,8.37593985 C35.732665,8.37593985 36.0451128,8.01503759 36.0451128,7.59398496 C36.0451128,7.47368421 36.0167084,7.38345865 35.9598997,7.26315789 L33.5171261,1.36842105 Z M31.5856307,5.12781955 L32.5513784,2.66165414 L33.5171261,5.12781955 L31.5856307,5.12781955 Z" id="Shape"></path>
                    <path d="M41.4419382,0.917293233 L37.4937343,0.917293233 C37.0676692,0.917293233 36.641604,1.21804511 36.641604,1.66917293 L36.641604,7.53383459 C36.641604,7.98496241 37.0108605,8.34586466 37.4369256,8.34586466 C37.8629908,8.34586466 38.2322473,7.98496241 38.2322473,7.53383459 L38.2322473,5.33834586 L40.9874687,5.33834586 C41.3851295,5.33834586 41.6975773,5.0075188 41.6975773,4.58646617 C41.6975773,4.16541353 41.3851295,3.83458647 40.9874687,3.83458647 L38.2322473,3.83458647 L38.2322473,2.36090226 L41.4419382,2.36090226 C41.839599,2.36090226 42.1520468,2.03007519 42.1520468,1.60902256 C42.1236424,1.21804511 41.8111947,0.917293233 41.4419382,0.917293233" id="Shape"></path>
                    <path d="M47.4636591,6.81203008 L44.2255639,6.81203008 L44.2255639,5.33834586 L46.952381,5.33834586 C47.3216374,5.33834586 47.6340852,5.0075188 47.6340852,4.61654135 C47.6340852,4.22556391 47.3216374,3.86466165 46.952381,3.86466165 L44.2255639,3.86466165 L44.2255639,2.39097744 L47.4068505,2.39097744 C47.7761069,2.39097744 48.0885547,2.06015038 48.0885547,1.66917293 C48.0885547,1.27819549 47.7761069,0.917293233 47.4068505,0.917293233 L43.487051,0.917293233 C43.0609858,0.917293233 42.6065163,1.21804511 42.6065163,1.66917293 L42.6065163,7.47368421 C42.6065163,7.92481203 43.0609858,8.28571429 43.487051,8.28571429 L47.4352548,8.28571429 C47.8045113,8.28571429 48.1169591,7.95488722 48.1169591,7.56390977 C48.1737678,7.17293233 47.86132,6.81203008 47.4636591,6.81203008" id="Shape"></path>
                    <path d="M54.4795322,0.766917293 C54.1102757,0.766917293 53.8262322,1.0075188 53.7410192,1.27819549 L51.9515455,6.15037594 L50.1904762,1.30827068 C50.0768588,0.977443609 49.8212197,0.736842105 49.3951546,0.736842105 C48.9690894,0.736842105 48.6282373,1.09774436 48.6282373,1.54887218 C48.6282373,1.69924812 48.6566416,1.81954887 48.7134503,1.93984962 L50.9857978,7.77443609 C51.1562239,8.16541353 51.4402673,8.46616541 51.8663325,8.46616541 L51.9799499,8.46616541 C52.406015,8.46616541 52.6900585,8.16541353 52.8604845,7.77443609 L55.1612364,1.90977444 C55.1896408,1.81954887 55.2464495,1.66917293 55.2464495,1.54887218 C55.2464495,1.12781955 54.9055973,0.766917293 54.4795322,0.766917293" id="Shape"></path>
                    <path d="M60.6716792,6.81203008 L57.3483709,6.81203008 L57.3483709,5.33834586 L60.160401,5.33834586 C60.5296575,5.33834586 60.8421053,5.0075188 60.8421053,4.61654135 C60.8421053,4.22556391 60.5296575,3.86466165 60.160401,3.86466165 L57.3483709,3.86466165 L57.3483709,2.39097744 L60.6148705,2.39097744 C60.984127,2.39097744 61.2965748,2.06015038 61.2965748,1.66917293 C61.2965748,1.27819549 60.984127,0.917293233 60.6148705,0.917293233 L56.695071,0.917293233 C56.2690058,0.917293233 55.9281537,1.21804511 55.9281537,1.66917293 L55.9281537,7.47368421 C55.9281537,7.92481203 56.2690058,8.28571429 56.695071,8.28571429 L60.6432749,8.28571429 C61.0125313,8.28571429 61.3249791,7.95488722 61.3249791,7.56390977 C61.3817878,7.17293233 61.06934,6.81203008 60.6716792,6.81203008" id="Shape"></path>
                    <path d="M67.9715957,3.32330827 C67.9715957,2.60150376 67.7727652,2.03007519 67.3751044,1.63909774 C66.9206349,1.15789474 66.2389307,0.917293233 65.3299916,0.917293233 L62.887218,0.917293233 C62.4611529,0.917293233 61.978279,1.21804511 61.978279,1.66917293 L61.978279,7.53383459 C61.978279,7.98496241 62.3475355,8.34586466 62.7736007,8.34586466 C63.1996658,8.34586466 63.5689223,7.98496241 63.5689223,7.53383459 L63.5689223,5.96992481 L64.9039265,5.96992481 L66.4093567,7.95488722 C66.5797828,8.19548872 66.8354219,8.37593985 67.176274,8.37593985 C67.5455305,8.37593985 67.914787,8.07518797 67.914787,7.62406015 C67.914787,7.35338346 67.8011696,7.20300752 67.6591479,6.9924812 L66.5513784,5.60902256 C67.4319131,5.21804511 67.9715957,4.4962406 67.9715957,3.32330827 Z M66.3809524,3.41353383 C66.3809524,4.04511278 66.0116959,4.4962406 65.2447786,4.4962406 L63.5689223,4.4962406 L63.5689223,2.39097744 L65.2163743,2.39097744 C65.9548872,2.39097744 66.3809524,2.69172932 66.3809524,3.41353383 Z" id="Shape"></path>
                </g>
                <path d="M37.8429895,12.8571429 C36.6676658,9.69924812 37.9300506,10.0150376 37.2335624,7.35338346 C36.5370742,5.23308271 35.9276471,4.19548872 35.9276471,4.19548872 C36.3629522,6.40601504 36.1017692,8.03007519 35.492342,7.93984962 C35.231159,7.44360902 34.7087928,6.18045113 34.4476098,5.72932331 C33.098164,3.20300752 37.2770929,0.045112782 37.451215,0 C37.2335624,0.045112782 32.2275538,1.98496241 30.8345775,5.45864662 C29.3980706,9.02255639 33.5334691,15.6541353 35.1440979,19.3082707 C36.1017692,21.112782 34.7523233,22.6917293 34.3170182,23.1428571 C33.9252437,22.6015038 32.4016758,20.6165414 34.2299572,18.8571429 L31.5310656,13.5338346 L30.5298639,11.3233083 C30.5298639,11.3233083 31.0957605,12.5413534 30.5298639,14.9774436 C30.5298639,14.9774436 30.5298639,14.9774436 30.5298639,14.9774436 C30.0945588,16.3308271 29.6157232,17.7293233 30.4863334,19.6691729 C31.7922487,22.6917293 34.1864267,24 34.1864267,24 L34.4040793,24 C34.4040793,24 37.0594404,23.0075188 38.3653557,19.9849624 C39.7148015,16.8721805 38.5394777,14.3007519 38.2347641,13.6691729 C38.1041726,13.443609 37.9735811,13.1729323 37.8429895,12.8571429" id="Shape"></path>
                <path d="M28.2768595,31 L28.1033058,31 C27.785124,31 27.553719,31.1653543 27.4090909,31.4409449 L25.5,34.4173228 L23.5909091,31.4409449 C23.4173554,31.1929134 23.214876,31 22.8966942,31 L22.7231405,31 C22.2892562,31 22,31.4409449 22,31.8543307 L22,37.2559055 C22,37.6692913 22.3760331,38 22.8099174,38 C23.2438017,38 23.6198347,37.6692913 23.6198347,37.2559055 L23.6198347,33.8661417 L24.9504132,35.9055118 C25.0950413,36.1259843 25.268595,36.2637795 25.5,36.2913386 C25.7603306,36.2637795 25.9049587,36.1259843 26.0495868,35.9055118 L27.3801653,33.8661417 L27.3801653,37.2559055 C27.3801653,37.6692913 27.7561983,38 28.1900826,38 C28.6239669,38 29,37.6692913 29,37.2559055 L29,31.8267717 C29,31.4133858 28.7396694,31 28.2768595,31" id="Shape"></path>
            </g>
        </g>
    </g>
</svg>