<?xml version="1.0" encoding="UTF-8"?>
<svg width="69px" height="32px" viewBox="0 0 69 32" version="1.1" xmlns="http://www.w3.org/2000/svg" xmlns:xlink="http://www.w3.org/1999/xlink">
    <!-- Generator: Sketch 49.3 (51167) - http://www.bohemiancoding.com/sketch -->
    <title>idj</title>
    <desc>Created with Sketch.</desc>
    <defs></defs>
    <g id="Page-1" stroke="none" stroke-width="1" fill="none" fill-rule="evenodd">
        <g id="Desktop-HD" transform="translate(-448.000000, -596.000000)" fill="#FFFFFF">
            <g id="idj" transform="translate(448.000000, 596.000000)">
                <path d="M34.1735652,13.1335101 C34.2077617,13.1363785 34.2364512,13.1408733 34.2651406,13.1409028 C34.892813,13.1412577 35.5205514,13.1460186 36.1481248,13.139513 C36.6247654,13.1345747 37.0956022,13.0915196 37.5532813,12.9539856 C38.0718349,12.7981474 38.5137514,12.5469136 38.8802179,12.1814478 C39.1610777,11.9013234 39.3533959,11.5773454 39.5027789,11.230864 C39.5796139,11.0526702 39.656218,10.8711054 39.6975704,10.68475 C39.7556088,10.4232256 39.7850897,10.1562306 39.8190883,9.89077334 C39.894901,9.29900197 39.8398305,8.71477116 39.6574052,8.14319667 C39.4044434,7.35063939 38.9002345,6.72376745 38.0973256,6.30510369 C37.4619038,5.97382173 36.7616174,5.85725353 36.0398634,5.83897876 C35.4532796,5.82413421 34.8658383,5.83587383 34.2787928,5.83619911 C34.24364,5.83622868 34.2085202,5.83965889 34.1735652,5.84149228 L34.1735652,13.1335101 Z M29,2.0008334 C31.9547495,2.00180924 34.909565,1.9951558 37.8642816,2.00831482 C38.7452126,2.01224774 39.6136125,2.14221152 40.4452438,2.41470668 C41.1571049,2.64799093 41.8105978,2.98024873 42.3862005,3.42602893 C43.1026783,3.98086634 43.66298,4.64502709 44.0696447,5.41094106 C44.4765073,6.17723944 44.7380429,6.98375415 44.8673103,7.82433445 C44.9825298,8.57377747 45.0376663,9.32673941 44.9716146,10.0818896 C44.9313175,10.5426622 44.8810285,11.0046768 44.7939379,11.4598014 C44.6422795,12.2520038 44.358221,13.0063851 43.9238231,13.7148726 C43.6479098,14.1648814 43.3245104,14.5848167 42.9263207,14.9482421 C42.518238,15.3206867 42.0713091,15.6620523 41.5513046,15.9085251 C41.1713837,16.0886115 40.787077,16.2656816 40.3894808,16.4104308 C39.8395337,16.6105661 39.2620184,16.7318361 38.6768855,16.8261966 C37.7428955,16.9768304 36.8004306,16.9998069 35.8556573,16.9998956 C33.6211119,17.0001026 31.3865006,17.0000435 29.1519552,16.9993338 C29.1013034,16.9993042 29.0506187,16.990019 29,16.9850215 L29,2.0008334 Z" id="Fill-1"></path>
                <path d="M62.4228391,28.7988231 C62.4277156,28.8519318 62.4314364,28.9513339 62.4468552,29.0489354 C62.4954228,29.3564228 62.6816881,29.5956197 62.9885128,29.6101366 C63.2028249,29.6202763 63.4065103,29.5377182 63.503251,29.3289957 C63.611154,29.0961708 63.641315,28.8489674 63.6160587,28.5966388 C63.5729313,28.1656467 63.3387467,27.9756799 62.9005949,28.0145487 C62.7850247,28.0248269 62.688876,28.0786282 62.6082869,28.1656744 C62.4521263,28.3344198 62.4235438,28.5385711 62.4228391,28.7988231 Z M62.8406111,32 C62.7009404,31.980995 62.5605367,31.9661179 62.4216834,31.9422924 C62.0380187,31.8764676 61.6827391,31.7491674 61.4207613,31.4481627 C61.2575255,31.2606062 61.1638573,31.0410792 61.1473674,30.7793035 L61.2468987,30.7793035 C61.6478144,30.7793035 62.0487583,30.7807164 62.4497021,30.7779183 C62.514365,30.7774473 62.5499945,30.7987241 62.5863568,30.8512233 C62.6424506,30.9323131 62.7039847,31.0144556 62.7796972,31.0768175 C62.9898094,31.2498848 63.3444407,31.1646393 63.4639289,30.9202341 C63.5617407,30.7201553 63.5783716,30.5047839 63.5855595,30.2880273 C63.5883219,30.2046935 63.5860105,30.1212212 63.5860105,30.0088812 C63.5380348,30.0584438 63.5056469,30.0888628 63.4767262,30.1222739 C63.1792035,30.4654442 62.7893656,30.5471989 62.3564286,30.502623 C62.0545931,30.4715391 61.7794234,30.3721923 61.5503972,30.1711162 C61.3561266,30.00057 61.225645,29.7873318 61.1342319,29.5485782 C60.9821303,29.1515235 60.9758726,28.7436643 61.0338268,28.3304027 C61.0664683,28.0976055 61.136346,27.8754466 61.2691389,27.6798005 C61.5118644,27.322141 61.8365884,27.0686765 62.2814207,27.0156233 C62.4882349,26.9909389 62.7042665,26.9965352 62.9108553,27.0251535 C63.1884491,27.0635236 63.4089063,27.2101612 63.5476186,27.459193 C63.5521287,27.4672826 63.5583864,27.4744857 63.564475,27.4815779 C63.5656589,27.4829354 63.569887,27.4817718 63.5829944,27.4817718 L63.5829944,27.0905073 L64.9995463,27.0905073 L64.9995463,27.1889122 C64.9995463,28.1972847 64.9988979,29.2057127 64.9999973,30.2141129 C65.0002791,30.45741 64.9788564,30.6983245 64.8994512,30.9290717 C64.7675321,31.3123851 64.5397462,31.6135006 64.1494855,31.7870112 C63.9067599,31.8949739 63.653915,31.9418769 63.3954043,31.9784462 C63.3616916,31.9832113 63.3286273,31.9926861 63.2952811,32 L62.8406111,32 Z" id="Fill-3"></path>
                <path d="M35.0176067,17.4096157 L38.6460162,17.4096157 C38.6488358,17.4326573 38.6548028,17.4572487 38.6544094,17.4817232 C38.65018,17.7567902 38.6489342,18.0319449 38.6392624,18.306895 C38.6060831,19.2515441 39.021447,19.9936724 39.8920751,20.5337476 C40.4860235,20.9021216 41.1440682,21.1270701 41.8547341,21.2328044 C42.3585542,21.3077775 42.8647677,21.3631008 43.3768498,21.3148537 C43.855392,21.2697646 44.3287212,21.2010198 44.7708384,21.0196107 C45.0939101,20.8870334 45.4046871,20.7374382 45.6943501,20.549099 C46.1658105,20.242569 46.4296382,19.8309481 46.5196026,19.3257862 C46.5493393,19.1587635 46.564552,18.9879687 46.5649454,18.8188114 C46.5715026,15.9236339 46.57465,13.0284272 46.5785843,10.1332497 C46.5786499,10.090997 46.5785843,10.0487442 46.5785843,10 L52.9988725,10 L52.9988725,10.1012897 C52.9988725,13.3862161 53.0034953,16.6711425 52.9940202,19.9560689 C52.9925448,20.4691257 52.9008428,20.9750771 52.6852759,21.4612325 C52.4445294,22.0041733 52.0964749,22.4797436 51.6580297,22.9092014 C51.3396464,23.2210532 50.9726416,23.4807103 50.5930143,23.7275309 C49.8592343,24.2046802 49.027982,24.4836654 48.1545671,24.6789346 C47.3902963,24.8497879 46.611698,24.9165151 45.8285753,24.9690606 C45.0570916,25.0208751 44.2873127,24.9995586 43.517665,24.963768 C42.3444563,24.9092049 41.1807227,24.7859263 40.0372836,24.5350998 C39.1465905,24.3396843 38.2905849,24.0640325 37.5047082,23.6365339 C36.2866812,22.9739695 35.4738218,22.0399639 35.1473731,20.7892234 C35.0523597,20.425294 34.9984598,20.0556626 35.0000335,19.6810896 C35.0031154,18.960541 35.0076726,18.2400216 35.0119348,17.5195314 C35.0121315,17.4845011 35.0154757,17.4494707 35.0176067,17.4096157" id="Fill-6"></path>
                <path d="M61.0651417,24 L59,24 L59,18.1372188 L60.9973609,18.1372188 L60.9973609,18.9017654 C61.0041821,18.9049198 61.0110322,18.9080742 61.0178534,18.9111977 C61.0361873,18.8867045 61.056133,18.8634174 61.0726249,18.8375635 C61.3770773,18.361647 61.8150191,18.1300441 62.3317362,18.0426479 C62.6859233,17.9827447 63.0371747,17.9833013 63.3830727,18.1008501 C63.7410302,18.2224811 64.0266306,18.442456 64.2129343,18.7991537 C64.2270949,18.8263065 64.241313,18.8534593 64.2562219,18.8801173 C64.2592152,18.8854984 64.2654321,18.8888075 64.2702674,18.8929825 C64.379724,18.7831342 64.4901305,18.674492 64.5982344,18.563252 C64.9272376,18.2248315 65.3317062,18.0785527 65.7736198,18.0226389 C66.0903908,17.9825591 66.4065861,17.9932594 66.714406,18.0743777 C67.3665408,18.2462321 67.7659439,18.7026344 67.9244733,19.3961136 C67.972366,19.6056047 67.994902,19.8268784 67.9959957,20.0429258 C68.002414,21.3244891 67.9991905,22.6061143 67.9991905,23.8877395 L67.9991905,23.9973713 L65.9352576,23.9973713 C65.9333005,23.9549102 65.9295589,23.9116142 65.9295589,23.8682563 C65.9292135,22.8880335 65.9320053,21.9077489 65.9270549,20.9274952 C65.9260187,20.7245604 65.9084044,20.5196154 65.8774065,20.3193402 C65.8218003,19.9601066 65.6121835,19.7796548 65.2714374,19.7867368 C65.1671039,19.7888707 65.0581941,19.8001586 64.9601926,19.8355067 C64.7477551,19.9120171 64.621749,20.0863765 64.5827211,20.3181341 C64.5502266,20.5111727 64.5292735,20.7091903 64.5282374,20.9051359 C64.5229128,21.8923169 64.525791,22.8795289 64.525791,23.8666791 L64.525791,23.9976187 L62.4580877,23.9976187 C62.4580877,23.9601367 62.4581165,23.9203662 62.4580589,23.8805957 C62.4565911,22.8068534 62.4575409,21.7330493 62.4508347,20.659338 C62.4499137,20.5126571 62.4221394,20.3630692 62.3869394,20.2205015 C62.3291459,19.9864863 62.1849497,19.8418156 61.9569127,19.801241 C61.7685942,19.7677175 61.5853126,19.7705626 61.4135149,19.874535 C61.2588135,19.9680855 61.1575308,20.1137767 61.1248061,20.2945068 C61.0887714,20.4936068 61.0688257,20.6991085 61.0676745,20.9019814 C61.0620908,21.8891316 61.0651417,22.8763436 61.0651417,23.8635556 L61.0651417,24 Z" id="Fill-8"></path>
                <path d="M55.716942,21.298739 C55.6196428,21.329271 55.5292894,21.3572361 55.4391714,21.3859259 C55.1197263,21.4877294 54.7973087,21.5810468 54.4828081,21.697014 C54.3883931,21.7318344 54.2871502,21.8134343 54.2391481,21.9021613 C54.0986735,22.161789 54.1530916,22.4179135 54.3989,22.5803583 C54.6081551,22.7186129 54.8370112,22.7328673 55.0806124,22.6708973 C55.3490828,22.6025853 55.5314084,22.4393856 55.6337109,22.1871568 C55.7476386,21.9062987 55.7285084,21.606928 55.716942,21.298739 M54.2346157,19.865094 L52.2652048,19.865094 C52.247811,19.622801 52.3048485,19.3993225 52.3926414,19.1841489 C52.5912424,18.6973885 52.973258,18.4188557 53.4388284,18.2483174 C53.8185484,18.1092473 54.2125424,18.039063 54.6165429,18.0164735 C55.1114856,17.9888407 55.6061339,17.9906225 56.0955141,18.0636456 C56.5200282,18.127035 56.9328581,18.2435458 57.2739644,18.5381147 C57.5650673,18.7894979 57.6907087,19.1212427 57.7172261,19.4984684 C57.7929523,20.5758464 57.7449207,21.6550363 57.7568992,22.7333807 C57.7600189,23.012155 57.7920105,23.2859766 57.8771252,23.5510101 C57.9097348,23.652572 57.956442,23.7493322 58,23.8563301 C57.974807,23.8584139 57.9476127,23.8625815 57.9204183,23.8625815 C57.2579833,23.8629439 56.5955189,23.8614339 55.9330839,23.8648464 C55.8585644,23.8652088 55.823718,23.8415624 55.8152124,23.7687507 C55.798525,23.6260566 55.7809841,23.4835135 55.7621187,23.3266256 C55.6707352,23.4037861 55.5874158,23.4830001 55.4955908,23.5499229 C55.2579053,23.7230886 54.9993826,23.8436462 54.710693,23.908455 C54.3536056,23.9886656 53.996371,24.023033 53.633986,23.9836525 C53.1613815,23.9322826 52.7253305,23.7862062 52.3905813,23.4178592 C52.1344719,23.1360346 52.0305213,22.7881027 52.0050045,22.4109072 C51.9898181,22.1864924 52.0088012,21.9644333 52.0673396,21.7483235 C52.1533372,21.4307726 52.3349271,21.1756144 52.5967755,20.9902481 C53.0352104,20.6799451 53.5407483,20.5595083 54.0571462,20.475885 C54.4694169,20.4091133 54.8833064,20.350435 55.2926634,20.26805 C55.4869675,20.2289412 55.6540183,20.1248425 55.7037274,19.8964112 C55.7571449,19.650917 55.6317684,19.4109796 55.3969083,19.3375035 C55.1136929,19.2488671 54.8272401,19.26442 54.5531189,19.3652873 C54.3417743,19.4430216 54.2367053,19.6198414 54.2346157,19.865094" id="Fill-10"></path>
                <path d="M47.9897863,5.36721429 C48.0084543,4.86382984 47.597644,4.42957106 47.1099657,4.41097074 C46.3932439,4.38365811 46.0450261,4.86494526 46.0165907,5.36721429 L47.9897863,5.36721429 Z M50,6.5021355 L46.0007258,6.5021355 C46.0166196,6.87667428 46.1383658,7.19073939 46.4311866,7.39582529 C46.8238202,7.67079053 47.2444269,7.67054936 47.6612768,7.45011894 C47.7500796,7.40318101 47.8160242,7.31026983 47.8952618,7.24195811 C47.9201717,7.22049387 47.9539531,7.19703998 47.9837756,7.1969194 C48.6081691,7.19432681 49.2325627,7.19495988 49.8550489,7.19495988 C49.8600193,7.20460673 49.8666369,7.21181171 49.8651631,7.21548957 C49.729546,7.55677688 49.5663027,7.87901166 49.3064831,8.13962722 C48.8707051,8.57671975 48.3478005,8.82449295 47.7574774,8.9322663 C47.1384588,9.04528512 46.5225613,9.02231357 45.9261985,8.82208123 C45.0074237,8.51359321 44.3747365,7.88817616 44.1064788,6.90305237 C43.9847904,6.4562527 43.9793865,5.99715329 44.0305355,5.53796345 C44.0849789,5.04901912 44.2545219,4.60411867 44.535697,4.21049723 C44.8913704,3.71250899 45.3346907,3.32747927 45.9146106,3.14856044 C46.1360251,3.08024871 46.3675249,3.02701018 46.5971174,3.01205757 C47.218101,2.97169155 47.8309932,3.02544257 48.4127048,3.28418905 C48.9424293,3.5198434 49.3341093,3.90987742 49.5939578,4.44479499 C49.8622156,4.99710704 49.961855,5.59041818 49.9845397,6.2022392 C49.9862736,6.24944845 49.987574,6.29668784 49.9899725,6.34386695 C49.9923421,6.39059385 49.9958387,6.43726047 50,6.5021355 Z" id="Fill-12"></path>
                <path d="M50.1039275,28.0796644 C50.1187653,28.2352206 50.124004,28.3601065 50.1436414,28.4832506 C50.208796,28.8920347 50.573248,29.090045 51.0286718,28.9696495 C51.1662275,28.9332913 51.2777778,28.8634326 51.3368467,28.7529158 C51.5341615,28.383674 51.5428195,28.0015053 51.4059539,27.6166153 C51.277966,27.2567623 50.9873267,27.1935438 50.5884936,27.2570889 C50.344595,27.295978 50.2230065,27.4638078 50.1700546,27.6591511 C50.1303093,27.8058082 50.1219023,27.958888 50.1039275,28.0796644 Z M53,29.9104978 L51.499404,29.9104978 L51.499404,29.5034554 C51.4057657,29.5810703 51.3298827,29.6365872 51.2640065,29.6999418 C51.0537047,29.9022791 50.7714725,29.9528975 50.4804567,29.9879221 C50.2440555,30.0163881 50.0147437,29.992603 49.7850242,29.9368683 C49.4113182,29.8461635 49.1471548,29.637322 48.9427505,29.3649081 C48.6761717,29.0095455 48.5371416,28.6174437 48.5422235,28.1925216 C48.5452036,27.9408722 48.5669427,27.689386 48.5812473,27.4193398 C48.4875463,27.3875536 48.3659891,27.4191221 48.2501098,27.4371379 C47.8541941,27.4986147 47.6772382,27.7409024 47.6145618,28.0577843 C47.582753,28.2186472 47.5713972,28.3840822 47.5692641,28.5475849 C47.5633666,28.9983332 47.567225,29.4491632 47.567225,29.9074498 L46,29.9074498 L46,26.3353722 L47.5043917,26.3353722 L47.5043917,26.8718995 C47.7769935,26.4390581 48.1999184,26.2488855 48.7636928,26.2384353 L48.7636928,26.9947171 C48.7717234,26.9984999 48.7797541,27.0023371 48.7877533,27.006147 C49.0589748,26.572081 49.4562708,26.3015722 50.0322479,26.2498924 C50.5901249,26.1997912 51.0782044,26.2970002 51.4200075,26.7343047 L51.4407742,26.7111182 L51.4407742,25 L53,25 L53,29.9104978 Z" id="Fill-14"></path>
                <path d="M50.8383179,9 L50.8383179,4.55615738 L50,4.55615738 L50,3.17428486 L50.8371448,3.17428486 C50.8371448,3.01109698 50.8300489,2.85740535 50.8383751,2.70463568 C50.8708217,2.11058262 51.066989,1.61183006 51.5596392,1.28425574 C51.7758353,1.1404906 52.0117168,1.08489608 52.2601592,1.06525822 C52.5155259,1.04509791 52.7703202,1.00437777 53.0257441,1.00062844 C53.3483215,0.995864954 53.6712709,1.01937507 54,1.03089964 L54,2.55417092 C53.8577386,2.53557795 53.7219723,2.50718141 53.5855478,2.50300184 C53.4464624,2.49873006 53.3031138,2.50011301 53.1682058,2.5315213 C52.9576463,2.58060059 52.8635398,2.73343173 52.8544982,2.98746394 C52.852524,3.04222868 52.8542121,3.09711636 52.8542121,3.16488082 L53.9459224,3.16488082 L53.9459224,4.54804408 L52.9036545,4.54804408 L52.9036545,9 L50.8383179,9 Z" id="Fill-16"></path>
                <path d="M56.4665257,31 L55,31 L55,27.1054799 L56.4065429,27.1054799 L56.4065429,27.5918652 C56.4690788,27.5190497 56.511278,27.4630377 56.5602855,27.4140199 C56.8142438,27.1600694 57.1263067,27.0347686 57.4778985,27.0083333 C57.7854422,26.985158 58.0877623,27.0030581 58.368484,27.1561278 C58.7780043,27.3794347 58.9790815,27.7427715 58.9882667,28.1939493 C59.006872,29.109641 58.9973052,30.0259254 58.9991247,30.9419728 C58.999154,30.9582726 58.9964836,30.9745724 58.9944881,30.997392 L57.5328337,30.997392 L57.5328337,30.8849236 C57.5328337,30.2708666 57.5348293,29.6568096 57.5313665,29.0427823 C57.5305448,28.8974179 57.5150502,28.7517869 57.5000839,28.6069263 C57.4615822,28.2344616 57.1937433,28.1457909 56.8692965,28.2107529 C56.6303045,28.2585853 56.5316146,28.4340894 56.4919978,28.651973 C56.4714264,28.7650934 56.467993,28.8825703 56.4675822,28.9981209 C56.4653812,29.6254252 56.4665257,30.252759 56.4665257,30.8800929 L56.4665257,31 Z" id="Fill-18"></path>
                <path d="M43.4056092,28.9700707 C43.4170459,29.1150594 43.4220547,29.2346881 43.4366915,29.3530444 C43.4752035,29.6646226 43.6268305,29.8665773 43.8614086,29.9270134 C44.0856909,29.9847602 44.3702733,29.8766982 44.4540592,29.6883633 C44.6418886,29.2661206 44.651934,28.8317039 44.4953816,28.3989645 C44.3795674,28.078798 44.1402588,28.015904 43.8214496,28.0870682 C43.5889863,28.1389738 43.5009152,28.3376898 43.4552796,28.5527728 C43.4246982,28.6968939 43.4194668,28.8467985 43.4056092,28.9700707 M43.9032876,27 C44.3116705,27.0084437 44.62113,27.0353074 44.912363,27.1667919 C45.4626336,27.4152159 45.7982222,27.8506446 45.935936,28.4531545 C46.0292107,28.8613436 46.0236176,29.270487 45.8994553,29.6696252 C45.7877038,30.0287426 45.6033249,30.339569 45.3061091,30.5755587 C44.9814007,30.8334096 44.6141733,30.9484405 44.2153627,30.9877095 C43.8851725,31.0202119 43.5606589,30.9892131 43.2474429,30.8832042 C42.7194056,30.7044697 42.3434963,30.3418245 42.1476528,29.8019483 C41.9353638,29.2166729 41.9526441,28.617662 42.1952641,28.053091 C42.3813405,27.6200623 42.7106681,27.3031345 43.1556986,27.1419524 C43.2376757,27.1122838 43.320432,27.0791452 43.4055257,27.0654676 C43.6018422,27.0338615 43.7998005,27.013186 43.9032876,27" id="Fill-20"></path>
                <path d="M33.3488323,28.5542079 L34.6529388,28.5542079 C34.669469,28.2451413 34.4083426,27.9498933 34.1136012,27.9305531 C33.6342547,27.899129 33.3748201,28.1445379 33.3488323,28.5542079 Z M33.3425642,29.3227837 C33.3779542,29.6206046 33.450648,29.8735587 33.728471,29.9998334 C34.0067377,30.1262816 34.3699571,30.052737 34.5865964,29.8266394 C34.606011,29.8063741 34.6392099,29.7898092 34.666113,29.7896647 C35.0728489,29.7878723 35.4795848,29.7890576 35.8863485,29.7898671 C35.8920064,29.7898671 35.8976644,29.7941167 35.9147215,29.8009103 C35.8282988,29.9969136 35.7407667,30.190344 35.5990401,30.3501532 C35.291707,30.696657 34.9009188,30.874939 34.4625925,30.9542654 C33.9903462,31.0396917 33.5249782,31.014483 33.0874008,30.8012788 C32.4460811,30.4887142 32.0621435,29.9749138 32.0085869,29.2199831 C31.9767469,28.7712281 32.0276964,28.3364361 32.2590075,27.9502691 C32.5774624,27.4186607 33.0267995,27.0796444 33.6419096,27.0177212 C34.0634006,26.9752827 34.4768207,27.0038738 34.8781482,27.1603873 C35.3160861,27.331182 35.6197028,27.6460592 35.7996761,28.0897552 C35.9577942,28.4795358 36.0101304,28.8906802 35.9984262,29.3227837 L33.3425642,29.3227837 Z" id="Fill-22"></path>
                <path d="M65.001041,29.6518653 L66.4191494,29.6518653 C66.4689733,29.7506783 66.5003249,29.8512285 66.5629072,29.928675 C66.6768553,30.0697 66.8486391,30.111854 67.0259858,30.1054267 C67.1387548,30.1013155 67.2530355,30.0754614 67.3617836,30.0439617 C67.4895784,30.00699 67.5503164,29.9082349 67.5420628,29.7856813 C67.5343534,29.6719001 67.4555663,29.5813962 67.3331227,29.5523285 C66.9398823,29.4590163 66.5452511,29.3707707 66.1530991,29.2734053 C65.8935489,29.2089582 65.6483897,29.1136194 65.4335843,28.9508226 C65.1938065,28.7691201 65.0952772,28.5283845 65.0871143,28.2474058 C65.0729653,27.7607812 65.3030383,27.4219275 65.7666006,27.220306 C66.0854981,27.0815972 66.4171842,27.0097964 66.7661635,27.002761 C67.1289291,26.9954362 67.4919366,26.9969417 67.8459346,27.0816551 C68.2503612,27.1783836 68.6022731,27.3575094 68.7782895,27.7451761 C68.8412044,27.8837402 68.8620349,28.0398202 68.905389,28.2000114 L67.5167578,28.2000114 C67.3971259,27.862142 67.0809494,27.7215803 66.7251374,27.8462474 C66.61128,27.8861432 66.542893,27.9815689 66.5493628,28.0915284 C66.5558629,28.2025013 66.6257616,28.2742732 66.7620216,28.3047017 C67.1729483,28.3963925 67.5845099,28.4854488 67.9950739,28.5785872 C68.3229808,28.6529938 68.6107383,28.7930633 68.814418,29.0615059 C68.9645247,29.2593636 69.0155278,29.4848994 68.9960275,29.7238109 C68.9572386,30.1977255 68.7182468,30.5470888 68.2667172,30.7526767 C67.8821537,30.9277492 67.4703502,30.9842055 67.0489326,30.9979867 C66.5743655,31.013476 66.1185428,30.9410382 65.6949182,30.7304126 C65.2758286,30.5220743 64.98015,30.1291673 65.001041,29.6518653" id="Fill-24"></path>
                <path d="M42,29.3787238 C41.9383414,29.7396248 41.8242269,30.0691054 41.5858749,30.3541701 C41.2604992,30.7433726 40.8277385,30.9066834 40.3502005,30.9736827 C39.7961069,31.051425 39.2693916,30.9631996 38.8089939,30.624882 C38.3129065,30.2603133 38.0141613,29.7765322 38.0008748,29.1451793 C37.996561,28.9398495 38.0080357,28.7315741 38.0389801,28.528699 C38.0872947,28.2118385 38.2386229,27.9376034 38.451092,27.7007089 C38.7733043,27.3414252 39.1650264,27.1007764 39.6486612,27.0345568 C40.1715803,26.9629368 40.6838013,26.9866754 41.1550123,27.2596976 C41.5987588,27.5168363 41.8706722,27.8984146 41.9513115,28.4110748 C41.9543312,28.4301927 41.9572934,28.4494261 41.95853,28.4687173 C41.9597666,28.4879507 41.9587888,28.5073574 41.9587888,28.53872 C41.9286209,28.5405394 41.8979642,28.5439471 41.8673362,28.543976 C41.4745213,28.5443226 41.0817064,28.5425609 40.6889491,28.5457376 C40.6194106,28.5462863 40.5793785,28.5290456 40.5731666,28.455895 C40.5548761,28.2407753 40.3315649,28.0527152 40.0552802,28.0614078 C39.7523362,28.0709378 39.5730258,28.2116075 39.501618,28.5129888 C39.4227905,28.8457039 39.4254938,29.1801517 39.508894,29.5110186 C39.5904536,29.8346079 39.9167784,30.0188559 40.2192335,29.9086825 C40.4250306,29.8337126 40.5537833,29.6761199 40.6087986,29.4627328 C40.6228041,29.4082959 40.6333585,29.3701179 40.7042199,29.3706377 C41.1195529,29.3736411 41.5349145,29.3721105 41.9502475,29.3724859 C41.9655759,29.3724859 41.980933,29.3762402 42,29.3787238" id="Fill-26"></path>
                <path d="M30.7047445,31 L29,31 L29,27.1051899 L30.643807,27.1051899 L30.643807,27.6794672 C30.9407276,27.2169874 31.3975365,27.0106079 32,27 L32,28.2886795 C31.8625228,28.2886795 31.7265169,28.2833756 31.5911953,28.2895981 C31.1131045,28.3116731 30.8448221,28.5591804 30.7633212,28.9569759 C30.7247947,29.1449546 30.7106296,29.338415 30.7072765,29.5296828 C30.6994069,29.9775249 30.7047445,30.4255448 30.7047445,30.8734759 L30.7047445,31 Z" id="Fill-28"></path>
                <polygon id="Fill-30" points="53 31 55 31 55 27 53 27"></polygon>
                <polygon id="Fill-32" points="53 25.9626048 55 25.9626048 55 25 53 25"></polygon>
                <path d="M25,12.2698759 L25,13.3001709 C24.9694067,13.5730429 24.9394314,13.845915 24.908529,14.1184748 C24.7481459,15.5290422 24.3541409,16.8724844 23.7490729,18.1506745 C22.6131026,20.5506373 20.9360321,22.471669 18.7160074,23.9050278 C18.6480222,23.9487373 18.5543881,23.9718408 18.4728059,23.9718408 C17.0101978,23.9758996 15.5475896,23.974963 14.0849815,23.974963 L13.9187268,23.974963 C13.8065513,23.3748942 13.8198393,22.7982413 13.9820766,22.2287692 C14.144314,21.6589848 14.4595179,21.1719363 14.8080964,20.7017472 C13.93356,21.1044988 13.3102596,21.7685708 12.8383807,22.6012364 C12.8275649,21.2003787 13.2703956,19.9237184 13.8272559,18.671473 C12.8226205,19.5215912 11.921508,20.4466711 11.5871446,21.8141535 C11.5621137,21.7545525 11.5423362,21.7148705 11.5281211,21.6733465 C11.289246,20.9680628 11.2042645,20.2378023 11.1888133,19.4972388 C11.1727441,18.7204588 11.2438195,17.9505475 11.3702101,17.1843828 C11.6069221,15.7491507 12.0009271,14.3616869 12.6081582,13.0404117 C12.7543263,12.7222691 12.934487,12.4203615 13.0973424,12.1137707 C13.9922744,12.37072 14.6384425,12.9136542 15.1681088,13.6164402 C15.6644005,14.2752045 16.0101978,15.0163925 16.3145859,15.7797473 C16.3374536,15.8375063 16.3627936,15.8940164 16.3868974,15.9511509 C16.4038937,15.9464678 16.42089,15.9417846 16.4375773,15.9371015 C16.6242274,14.6267536 16.4480841,13.3635496 15.9159456,12.1212637 C16.7873918,12.3457431 17.4199629,12.8917994 17.9786774,13.5633644 C18.0516069,13.1078492 17.9579728,12.4862379 17.6773795,11.5418009 C18.6106304,11.6482647 19.3850433,12.0837984 20.1260816,12.6623247 C20.1134116,12.5958238 20.1087763,12.5608562 20.0998146,12.5271375 C19.9465389,11.9330007 19.6177379,11.4412691 19.2150803,10.9944957 C18.6168109,10.3304238 17.8980222,9.81933508 17.1498764,9.34664825 C16.947157,9.21864191 16.7398022,9.09844084 16.5194685,8.96543913 C16.5889988,8.90611912 16.6387515,8.85210669 16.6983931,8.81495363 C16.8733004,8.70661655 17.0457355,8.58953759 17.2311496,8.50336746 C17.816131,8.23080762 18.4391224,8.1180996 19.0911619,8.10467455 C18.7197157,7.58234624 17.3646477,7.32227483 15.8581582,7.47244812 C15.8804079,7.43217295 15.8912237,7.38690242 15.9196539,7.36442325 C16.289555,7.07188194 16.6619283,6.78277494 17.0234858,6.50084878 C16.2249691,6.13525019 14.6273177,6.29322874 13.9054388,7.07562846 C13.5027812,6.1327525 12.8226205,5.47742248 11.9199629,5.05749925 C11.9712608,5.60979977 12.0219407,6.15367061 12.0723115,6.69722924 C12.0556242,6.70597113 12.038937,6.71440082 12.0222497,6.7228305 C11.2911001,6.0500167 10.4252163,5.69003789 9.44035847,5.55922166 C9.97713226,6.11620534 10.3362176,6.75686146 10.5775649,7.48431212 C10.5176143,7.48805865 10.4820766,7.49055633 10.4465389,7.49242959 C9.72682324,7.53208034 9.01081582,7.60357656 8.30809642,7.77248249 C7.62948084,7.93545641 6.97187886,8.15369161 6.4038937,8.58173232 C6.11897404,8.7965332 5.87360939,9.04911157 5.70488257,9.42157879 C6.33745365,9.13590611 6.97311496,9.06159999 7.6171199,9.06097557 C8.25556242,9.06035115 8.89122373,9.10156294 9.50278121,9.42282763 C8.66254635,9.83057466 7.99938195,10.4087887 7.40574784,11.0731728 C7.07416564,11.4443912 6.77410383,11.8408986 6.57169345,12.3029703 C6.54789864,12.3572949 6.53182942,12.4147417 6.50587145,12.4887356 C7.35105068,12.0906671 9.03275649,11.552416 9.3513597,11.574583 C8.76297899,12.5539876 8.32911001,13.7506907 8.39524104,14.2305584 C8.43170581,14.1768582 8.46260816,14.130651 8.49443758,14.0853805 C9.1078492,13.2121275 9.88380717,12.5580463 10.921199,12.2630073 C11.0936341,12.2139903 11.2741038,12.194321 11.4885661,12.1540458 C11.4490111,12.2336595 11.434487,12.2658172 11.4174907,12.2967261 C10.9706428,13.1078492 10.6436959,13.9689259 10.3822621,14.8565406 C9.91934487,16.430082 9.65698393,18.0404954 9.51143387,19.6733255 C9.39091471,21.027695 9.35568603,22.3833134 9.42305315,23.7417416 C9.42707046,23.8226042 9.42336218,23.9040911 9.42336218,23.9911979 C9.40018541,23.99432 9.38040791,23.9993154 9.36093943,23.9993154 C8.37206428,23.9999398 7.38318912,24.0011886 6.39431397,23.9971611 C6.33250927,23.9971611 6.26143387,23.970592 6.21075402,23.9337512 C5.68108776,23.5478589 5.1276267,23.1897533 4.63318912,22.762337 C3.06334981,21.4058133 1.87700865,19.7560613 1.06334981,17.8363097 C0.564894932,16.6602124 0.232076638,15.4388134 0.0911619283,14.1659308 C0.0602595797,13.8877512 0.0302843016,13.6095716 0,13.3313919 L0,11.6766758 C0.010197775,11.6317175 0.0234857849,11.5870714 0.0302843016,11.5414887 C0.117428925,10.9729532 0.161928307,10.3938026 0.296662546,9.83713108 C1.24289246,5.93293773 3.49721879,3.06903004 7.0553152,1.26632613 C8.41934487,0.575404106 9.87268232,0.18732635 11.3930779,0.0574467474 C11.592398,0.0405873759 11.7911001,0.0193570562 11.9901112,0 L13.0098888,0 C13.0908529,0.0106151599 13.1718171,0.0262256891 13.2533993,0.0309088478 C14.2169345,0.0839846471 15.1637824,0.243212045 16.0843634,0.53481673 C19.5639679,1.63785672 22.1199011,3.84393671 23.7444376,7.13994384 C24.4292336,8.52959315 24.81644,10.0091591 24.9400494,11.5577236 C24.9588999,11.7953159 24.9799135,12.0325959 25,12.2698759" id="Fill-33"></path>
                <path d="M4.89838113,29.7189061 C4.68825672,30.4758823 4.17602574,30.837689 3.51977374,30.9663134 C3.47954912,30.9740549 3.44016837,30.9886308 3.40050634,31 L3.00669888,31 C2.82667261,30.9452269 2.6418644,30.9050622 2.46802653,30.830563 C2.32541198,30.7693765 2.19433035,30.6705842 2.06240485,30.5802135 C2.03202542,30.5594509 1.99517629,30.5008557 2.00052082,30.4684647 C2.04187061,30.2277677 2.09306558,29.9896943 2.15073024,29.7023867 C2.20811361,29.7856638 2.24890081,29.837133 2.28209316,29.8944973 C2.52006538,30.3039188 2.82498487,30.5792417 3.27251891,30.6219978 C3.91639411,30.6835082 4.43706382,30.1020909 4.40190244,29.3558037 C4.38277465,28.9467062 4.20809292,28.657779 3.90739279,28.4790134 C3.61738173,28.3069852 3.30908675,28.1764821 3.01176212,28.0203578 C2.8803992,27.9510412 2.75044274,27.8739184 2.63033147,27.7826083 C2.19826843,27.4544881 2.06803067,26.9724786 2.12231984,26.4053133 C2.20614458,25.5343534 2.81992163,25.0827914 3.49417625,25.012503 C3.89839148,24.9703948 4.28741699,25.0286985 4.64353145,25.2787889 C4.74845301,25.3526079 4.80274218,25.4186854 4.73410716,25.5709228 C4.67700508,25.6978953 4.65703342,25.8465697 4.61568364,25.9836157 C4.60330683,26.0241044 4.57461514,26.0584064 4.55323702,26.0956883 C4.52651438,26.0622933 4.49191558,26.0341132 4.47447553,25.9952441 C4.23115878,25.457263 3.76646598,25.2392396 3.26717438,25.4319657 C2.64073923,25.6736021 2.47112074,26.6106718 2.97856977,27.101103 C3.15409538,27.2708315 3.37434627,27.3832281 3.58306422,27.5004833 C3.78840668,27.6157626 4.00893886,27.6954443 4.21596907,27.8069015 C4.95351418,28.203982 5.14451079,28.833014 4.89838113,29.7189061" id="Fill-34"></path>
                <path d="M24.0848502,28.265351 C23.8500638,29.0952957 23.1743975,29.6014692 22.2167408,29.6728562 C22.0020085,29.688848 21.7854251,29.6967456 21.5697672,29.6922488 C21.2834575,29.6863467 20.9977648,29.6649868 20.7046675,29.6500911 L20.7046675,25.2982919 C20.9042822,25.2898603 21.1072906,25.2833681 21.3100213,25.2721541 C21.7999257,25.2446111 22.2870842,25.2622892 22.7668381,25.3573127 C23.536604,25.5093333 23.9978466,25.9385269 24.1323628,26.6501489 C24.2347926,27.1914538 24.2357181,27.7319156 24.0848502,28.265351 M24.8953721,26.5750801 C24.6525333,25.6082915 23.8618186,25.0335415 22.7776364,25.0107763 C21.8792162,24.9916649 20.9795619,25.0040311 20.0805246,25.0029069 C20.0558427,25.0029069 20.0311609,25.0070946 20,25.0102142 L20,30 C20.8681849,29.9828278 21.7265279,29.9876337 22.581724,29.9417943 C23.2154312,29.9077871 23.7726245,29.6711699 24.2076425,29.2324487 C24.9709295,28.4618059 25.1409259,27.5528577 24.8953721,26.5750801" id="Fill-35"></path>
                <path d="M20,25.0143755 L20,29.985437 C19.821393,30.0297742 19.7271098,29.9680389 19.6205431,29.8656426 C19.0110218,29.2791298 18.3902131,28.7013722 17.7713963,28.1215941 C17.0748954,27.4691649 16.3767346,26.8178862 15.6779098,26.166832 C15.6337229,26.1256097 15.5783149,26.0924972 15.4880154,26.0265247 L15.4880154,29.9843146 L15,29.9843146 L15,25.0146561 C15.1772459,24.9896814 15.3253104,24.9815436 15.4720802,25.1173611 C16.7332846,26.2835678 18.0037846,27.4428152 19.2719607,28.6036902 C19.3357015,28.6620581 19.404422,28.7170585 19.4708187,28.7734902 C19.4870859,28.7661661 19.503685,28.7588701 19.5199522,28.7516022 L19.5199522,25.0143755 L20,25.0143755 Z" id="Fill-36"></path>
                <path d="M9.50587452,27.7506862 C9.78536822,27.1552784 10.0612282,26.567279 10.3543484,25.9433355 C10.6517078,26.5664558 10.9305959,27.1500652 11.2170543,27.7506862 L9.50587452,27.7506862 Z M12.9412548,29.862326 C12.1954336,28.2865532 11.4499152,26.7110548 10.7028828,25.1358308 C10.6732074,25.0732719 10.6635174,24.9989145 10.5466328,25.000012 C10.4315649,25.0008352 10.4194525,25.0735462 10.3885659,25.1363796 C9.68665213,26.560145 8.9856468,27.9844867 8.28464147,29.4087734 C8.19107316,29.5991942 8.09780766,29.7898893 8,29.9888159 C8.15836967,29.9888159 8.29917636,29.978115 8.43665213,29.9923828 C8.53688227,30.0025349 8.57261386,29.9808588 8.6068314,29.8936055 C8.82818556,29.3313979 9.06225775,28.7730316 9.28421754,28.2110983 C9.32449128,28.1082053 9.37657461,28.0719869 9.49921269,28.0733588 C10.0594113,28.079944 10.61961,28.0810415 11.1795058,28.0728101 C11.3148619,28.0708894 11.3730015,28.1125954 11.4187258,28.222348 C11.6521923,28.7809886 11.8929264,29.3368855 12.1351744,29.8919592 C12.153343,29.9336652 12.2036095,29.9926572 12.2411579,29.9940291 C12.4867369,30.0033581 12.7329215,29.998968 13,29.998968 C12.9763808,29.9438173 12.9603319,29.9026601 12.9412548,29.862326 Z" id="Fill-37"></path>
                <path d="M8,29.5915533 L8,30 L5,30 L5,25 L5.71694105,25 L5.71694105,29.680839 C6.4874137,29.6507937 7.24099841,29.6213152 8,29.5915533" id="Fill-38"></path>
                <polygon id="Fill-39" points="0 30 0.623778846 30 0.623778846 25 0 25"></polygon>
            </g>
        </g>
    </g>
</svg>