<?xml version="1.0" encoding="UTF-8"?>
<svg width="52px" height="23px" viewBox="0 0 52 23" version="1.1" xmlns="http://www.w3.org/2000/svg" xmlns:xlink="http://www.w3.org/1999/xlink">
    <!-- Generator: Sketch 49.3 (51167) - http://www.bohemiancoding.com/sketch -->
    <title>pg</title>
    <desc>Created with Sketch.</desc>
    <defs>
        <polygon id="path-1" points="0 0.419632653 22.9508369 0.419632653 22.9508369 22.6817551 0 22.6817551"></polygon>
        <polygon id="path-3" points="0.445822122 0.162630983 20.5905 0.162630983 20.5905 23 0.445822122 23"></polygon>
    </defs>
    <g id="Page-1" stroke="none" stroke-width="1" fill="none" fill-rule="evenodd">
        <g id="Desktop-HD" transform="translate(-250.000000, -664.000000)">
            <g id="pg" transform="translate(250.000000, 664.000000)">
                <g id="Group-3">
                    <mask id="mask-2" fill="white">
                        <use xlink:href="#path-1"></use>
                    </mask>
                    <g id="Clip-2"></g>
                    <path d="M22.2413286,8.26544898 C24.7408184,2.09487755 20.069002,0.419632653 17.0170429,0.419632653 L6.9261449,0.427142857 C7.76634898,1.00167347 7.6274102,1.7672449 7.4626551,2.23193878 L1.58310408,21.0346735 C1.34934898,21.7772449 0.468308163,22.5578367 -0.000140816327,22.6817551 L8.16767551,22.6817551 C7.7194102,22.5996122 7.07634898,21.9579592 7.30916531,21.0844286 L9.44487959,14.2872245 C9.44487959,14.2872245 19.2729204,15.6146531 22.2413286,8.26544898 Z M14.304451,2.14697959 C15.3737163,2.14697959 18.3308592,2.28826531 16.4265531,7.8927551 C14.4227367,13.7676122 9.98608367,12.5608163 9.98608367,12.5608163 L13.2502061,2.14697959 L14.304451,2.14697959 Z" id="Fill-1" fill="#FEFEFE" mask="url(#mask-2)"></path>
                </g>
                <path d="M27.7614403,22.6957641 L33,22.6957641 C31.3199863,22.140435 28.8396246,20.5363533 27.8533056,19.386549 C28.6545498,18.4971121 29.6422132,17.3882747 29.8192218,15.1164326 L27.0928406,15.1164326 C27.0928406,15.1164326 27.6234184,15.420498 27.6234184,16.0700509 C27.6234184,16.6722643 27.3850169,17.4966094 26.927035,18.0856224 C26.1298239,16.8862026 25.2739087,15.5165426 24.9817324,13.5064334 C26.0446805,12.9638496 27.5458931,12.3798437 28.74283,11.3233529 C29.8685154,10.3142016 30.1297712,9.37014218 30.1499367,8.74607975 L30.1499367,8.6696082 C30.1499367,8.02369676 29.8989878,7.41602109 29.4392134,6.9544607 C28.6545498,6.15469579 27.4087674,5.83378841 26.1087621,6.08232093 C25.0561208,6.28123799 24.1643558,6.8502227 23.7189213,7.27172657 C22.1285323,8.77612214 21.9246362,11.2664544 21.9246362,12.3921338 C21.9246362,12.6597842 21.9353912,12.8741776 21.9452499,12.9948024 C21.8551771,13.0280311 21.6947491,13.0953989 21.6947491,13.0953989 C20.5399357,13.5241857 17.4478859,14.3649175 16.341918,16.9458322 C16.2025517,17.2740226 16,17.9745565 16,18.8043638 C16,19.5121808 16.1510175,20.3019316 16.5973482,21.0238594 C17.3757381,22.2578734 18.703527,23.0394308 20.8159795,22.9984639 C23.1184363,22.9579522 25.3796658,21.3675262 25.7870097,21.0780267 C26.1849431,21.4535566 27.2178669,22.4358518 27.7614403,22.6957641 M27.752926,8.28360898 C27.4831558,10.0187847 25.2703237,11.7739888 24.7321278,12.012052 C24.6375738,11.0361294 24.6774568,9.49395325 25.4840784,8.2344487 C26.0115194,7.39872396 26.7186577,7.03366337 27.2891185,7.23485636 C27.742171,7.39553764 27.7990827,7.82341414 27.752926,8.28360898 M24.6774568,19.8959041 C24.3669074,20.0879933 23.1515974,20.7170628 22.0084353,20.8258527 C20.9517609,20.9241733 19.1875,20.509042 19.1919812,18.3569143 C19.1919812,16.5120382 21.1641712,15.173331 22.2262231,14.6994806 C22.6685207,16.4879133 23.6422923,18.4971121 24.6774568,19.8959041" id="Fill-4" fill="#FEFEFE"></path>
                <g id="Group-8" transform="translate(31.000000, 0.000000)">
                    <mask id="mask-4" fill="white">
                        <use xlink:href="#path-3"></use>
                    </mask>
                    <g id="Clip-7"></g>
                    <path d="M13.6443391,2.16800816 C16.8212739,1.3846 19.4389696,3.94276327 19.6822957,4.11502857 L20.5907739,1.14943673 C19.3280348,0.764538776 10.2135783,-2.4104 3.77844783,5.1566 C-0.183247826,9.80213061 -1.15563913,19.3386816 3.86929565,21.892151 C9.24894783,24.6249265 15.1846435,21.469702 15.6160565,21.2500286 L18.0835565,13.2089469 C18.3451435,12.2373143 18.9445565,11.6055184 20.0027739,11.2018449 L11.4649043,11.2018449 C12.7148609,11.7416408 12.6226435,12.7057633 12.517187,13.097702 L10.0652087,21.1373755 C9.7419913,21.2063755 2.87818696,22.9581306 6.7221,10.6169878 C7.54840435,7.96588571 9.86525217,3.1020898 13.6443391,2.16800816" id="Fill-6" fill="#FEFEFE" mask="url(#mask-4)"></path>
                </g>
            </g>
        </g>
    </g>
</svg>