<?xml version="1.0" encoding="UTF-8"?>
<svg width="85px" height="10px" viewBox="0 0 85 10" version="1.1" xmlns="http://www.w3.org/2000/svg" xmlns:xlink="http://www.w3.org/1999/xlink">
    <!-- Generator: Sketch 49.3 (51167) - http://www.bohemiancoding.com/sketch -->
    <title>spc</title>
    <desc>Created with Sketch.</desc>
    <defs></defs>
    <g id="Page-1" stroke="none" stroke-width="1" fill="none" fill-rule="evenodd">
        <g id="Desktop-HD" transform="translate(-543.000000, -608.000000)" fill="#FEFEFE">
            <g id="spc" transform="translate(543.000000, 608.000000)">
                <path d="M84.8111873,6.2939652e-06 C85.0205561,0.171296557 84.9650748,0.408264347 84.968033,0.630976305 C84.9697638,0.756950019 84.8968797,0.807144391 84.7830533,0.813501296 C84.7203025,0.816994447 84.6572369,0.814413921 84.5942973,0.814413921 C56.5442658,0.814413921 28.4942344,0.81447686 0.444234358,0.813312477 C0.29185746,0.813312477 0.127459089,0.855041466 6.2939652e-06,0.723812292 L6.2939652e-06,0.157355424 C0.0759115143,0.129536098 0.153547575,0.105461681 0.22674639,0.0717574972 C0.251355794,0.0604283599 0.26473047,0.0246156979 0.283234728,6.2939652e-06 L0.440583858,6.2939652e-06 C0.468529063,0.0246786375 0.495184006,0.0686419845 0.524671233,0.0706245835 C0.644225102,0.0786808589 0.765006294,0.0788382081 0.884497223,0.0703098852 C0.916376157,0.0680440578 0.945296927,0.0245527582 0.9755709,6.2939652e-06 L1.1014502,6.2939652e-06 C1.1612114,0.0248989263 1.2209726,0.0715372084 1.2807338,0.0715686783 C28.7841344,0.074684191 56.2875035,0.0746527212 83.7908726,0.0746212514 C83.8328219,0.0746212514 83.8779182,0.0838419104 83.9159023,0.0714742688 C83.9556172,0.0585401703 83.9885346,0.0247101074 84.0244417,6.2939652e-06 L84.8111873,6.2939652e-06 Z" id="Fill-1"></path>
                <path d="M10.6369932,8.51489782 C10.8359454,8.49554387 11.0297995,8.46744132 11.1777706,8.30691374 C11.2172023,8.26414624 11.2829113,8.24674343 11.3289202,8.20853906 C11.3749606,8.17030322 11.4284278,8.1272525 11.4491979,8.07469789 C11.5527651,7.8124913 11.7441016,7.59006257 11.7638647,7.28754313 C11.7774911,7.07914994 11.8799883,6.87601222 11.8896181,6.66805961 C11.910042,6.22852055 11.895975,5.78737653 11.8949365,5.3468619 C11.8948421,5.30031803 11.8998773,5.2478893 11.8811527,5.20826879 C11.8045552,5.04604184 11.7300661,4.88538837 11.746336,4.69861496 C11.7489165,4.66893891 11.7434722,4.63344095 11.7287758,4.60817068 C11.6177503,4.41758941 11.4650272,4.24116957 11.39957,4.03658423 C11.3112027,3.76027916 11.0146625,3.80606775 10.8736462,3.62930174 C10.8630094,3.61602147 10.822256,3.62083636 10.797269,3.62593447 C10.6839147,3.64906479 10.5721024,3.69038467 10.4580243,3.69759126 C10.1403678,3.7175746 9.96520678,3.92448871 9.8243793,4.16989041 C9.75473658,4.29123806 9.7080983,4.42778563 9.66507904,4.5619415 C9.61315383,4.72379082 9.57548445,4.89020326 9.53315753,5.05507368 C9.5254789,5.08506442 9.52768178,5.11750981 9.52113606,5.14794113 C9.47559922,5.35926101 9.4123134,5.56840948 9.38751518,5.7820896 C9.36469956,5.9786816 9.37552518,6.18043465 9.38587875,6.3791666 C9.39154332,6.48814661 9.42704128,6.59552166 9.44900722,6.70362051 C9.4697773,6.8061492 9.49529933,6.90801703 9.50986986,7.01142688 C9.52676916,7.1314528 9.50618789,7.26457016 9.55122121,7.37115846 C9.64471807,7.59245428 9.76697834,7.80210626 9.88524195,8.01210441 C9.93713569,8.10424806 10.0023726,8.19072714 10.0730539,8.26949611 C10.1079539,8.30839282 10.1748273,8.31676379 10.2169969,8.3513806 C10.3396977,8.45214698 10.4690702,8.52865013 10.6369932,8.51489782 Z M10.4165155,9.47243021 C10.389483,9.44782081 10.3635204,9.40325953 10.3352919,9.40178045 C10.0789387,9.38818549 9.89159885,9.24760977 9.70032525,9.09457201 C9.51635265,8.9474191 9.37546224,8.76215624 9.22157479,8.59105479 C9.11917197,8.47716549 9.08109348,8.30511996 9.01551037,8.15853351 C8.98680989,8.09446094 8.96097316,8.02909811 8.9345385,7.96401851 C8.81781692,7.67657312 8.75711163,7.38015883 8.70229119,7.07206923 C8.60385357,6.51864087 8.66506238,5.9707512 8.65445705,5.42169715 C8.64979952,5.18016623 8.73439041,4.93583451 8.78691355,4.69458682 C8.8319154,4.48801888 8.87861662,4.2806642 8.94432562,4.08016994 C8.9882575,3.94623436 9.06721529,3.8238482 9.12980877,3.6959863 C9.16669141,3.62064754 9.19325194,3.53835394 9.24070844,3.47059941 C9.30050111,3.38531618 9.37045853,3.30459608 9.44749667,3.23444983 C9.5992127,3.09626583 9.75423306,2.96066235 9.91768734,2.83692299 C9.97433302,2.79406109 10.0604659,2.79088264 10.1323745,2.76728027 C10.4061934,2.67740244 10.6787536,2.59246538 10.9653493,2.72435542 C11.1442553,2.80671196 11.3320987,2.87072158 11.507008,2.96041059 C11.739035,3.07933506 11.9226929,3.25392966 12.0460546,3.4890722 C12.1188758,3.6278856 12.2258732,3.75338726 12.2744626,3.89924991 C12.3375596,4.08857238 12.4809047,4.23427767 12.5002586,4.45349648 C12.5247736,4.73080859 12.6702901,5.00094558 12.6742238,5.27545687 C12.6774337,5.49838912 12.7427651,5.71402036 12.7154178,5.94091781 C12.6874097,6.17357423 12.7276281,6.41412958 12.7031446,6.64757275 C12.674035,6.92510515 12.6198754,7.20169345 12.553537,7.47305776 C12.5085981,7.65696742 12.4272171,7.83247464 12.3561268,8.00933506 C12.2807251,8.19692669 12.2010435,8.38294484 12.1172394,8.56691744 C12.0903327,8.62595483 12.0437573,8.67592892 12.0073782,8.73084376 C11.9686388,8.78937764 11.9319136,8.84923325 11.8931427,8.90770418 C11.8789813,8.92904073 11.8655752,8.95544391 11.8448051,8.96711922 C11.5876651,9.11200629 11.3938739,9.37078267 11.0702068,9.39875935 C11.049657,9.40055313 11.0329465,9.44684524 11.0144422,9.47243021 L10.4165155,9.47243021 Z" id="Fill-4"></path>
                <path d="M78.0137049,9.47242392 C77.9884661,9.44756275 77.9658393,9.40466938 77.9376109,9.40064124 C77.5696027,9.34789782 77.2661392,9.17132062 77.042137,8.8852599 C76.9207893,8.73030248 76.8809485,8.51117808 76.7584365,8.35760533 C76.5859504,8.14128175 76.6619185,7.87363088 76.5596731,7.64361792 C76.5072444,7.52566901 76.5293991,7.36023214 76.5601451,7.22598186 C76.5746213,7.16279045 76.6824369,7.09657793 76.7593177,7.07760163 C76.8909874,7.04506183 77.0319093,7.03876786 77.1682995,7.04301629 C77.2077312,7.04424361 77.2684994,7.11401222 77.2788215,7.16124843 C77.3146342,7.32523769 77.3164909,7.49769234 77.3621851,7.65815698 C77.403033,7.80156498 77.4613151,7.95274602 77.5544972,8.06521918 C77.6671277,8.2012003 77.8219907,8.30344576 77.9645805,8.41236283 C77.9968371,8.43697223 78.0538604,8.43401407 78.099649,8.43505257 C78.2254654,8.43785339 78.3526664,8.42419548 78.4769722,8.43829397 C78.8191751,8.47706479 78.980395,8.2431181 79.1254709,8.00448241 C79.2844565,7.7430311 79.1953969,7.44520067 79.1932884,7.16439541 C79.1928164,7.09632618 79.1564372,6.96651314 79.0197638,6.9392288 C78.9575479,6.92679822 78.9132384,6.8375498 78.8547675,6.7907227 C78.7511374,6.70767382 78.6438567,6.62893632 78.5358208,6.5516779 C78.5085994,6.53222954 78.47307,6.5231977 78.4402469,6.51290707 C78.2927793,6.46674084 78.1450914,6.42142429 77.9972147,6.37657979 C77.6934994,6.28449907 77.4491992,6.10389374 77.2120426,5.89609848 C77.023318,5.73078749 76.9243454,5.53665013 76.8260022,5.31170381 C76.690682,5.00219807 76.678692,4.69184265 76.6992418,4.37547649 C76.7113891,4.18851425 76.7820074,4.00513958 76.8282995,3.82063199 C76.8553321,3.71278489 76.8740881,3.60053203 76.9187438,3.50011181 C76.9672388,3.39097445 77.0295805,3.2828756 77.107846,3.19356424 C77.1821777,3.10878452 77.2984272,3.06057275 77.3721611,2.9754154 C77.506789,2.8200174 77.6845935,2.77426027 77.8705172,2.73712588 C77.9944769,2.7123906 78.1191603,2.66905665 78.2428053,2.67122806 C78.3938919,2.67384006 78.5489752,2.69980267 78.6939567,2.74345131 C78.9652266,2.82514698 79.2252932,2.95379563 79.3868908,3.18941022 C79.5276868,3.39475083 79.6164002,3.63653351 79.7225479,3.86478415 C79.8224646,4.07959719 79.8751137,4.30592817 79.8711485,4.54481562 C79.8684735,4.70590966 79.7929145,4.78769974 79.6272573,4.81205739 C79.5482995,4.82363828 79.4693732,4.84503776 79.3945065,4.87288856 C79.2670537,4.92037653 79.1666335,4.83827175 79.1263521,4.70055979 C79.0410374,4.40877157 79.0558282,4.06962125 78.7961077,3.85364384 C78.7010689,3.77456016 78.5639863,3.73701666 78.4397434,3.70507479 C78.3512188,3.6823221 78.2501692,3.71291077 78.1580885,3.69824583 C77.921813,3.66057645 77.739288,3.74242947 77.606926,3.93297927 C77.5600989,4.0004191 77.5285976,4.08331063 77.5089919,4.16377897 C77.4754136,4.3015224 77.4302858,4.44423806 77.4376183,4.58235913 C77.449923,4.81290707 77.5366224,5.03772751 77.7450785,5.15293854 C77.998033,5.29272751 78.273866,5.3893084 78.5498563,5.48428434 C78.8991714,5.60443613 79.2634976,5.72150389 79.4993639,6.03664272 C79.5910041,6.15906035 79.648405,6.30696853 79.7231773,6.44225731 C79.7426572,6.47747205 79.773592,6.50673899 79.7909004,6.54274047 C79.8208912,6.60523954 79.8529904,6.66877712 79.8689456,6.73555609 C79.9192658,6.94599482 79.9661559,7.15740911 80.0063428,7.36998778 C80.0195916,7.44003961 80.0168223,7.51591337 80.0064058,7.58694076 C79.9927479,7.68050056 79.9583514,7.77094484 79.9432458,7.86441022 C79.8941214,8.16888078 79.8630292,8.47791448 79.6319148,8.71717956 C79.5910041,8.75953795 79.5756468,8.82537282 79.5418167,8.87591337 C79.4038215,9.08194632 79.209338,9.22170381 78.9869408,9.32033025 C78.8961188,9.3606431 78.7915446,9.36879378 78.6960337,9.40007479 C78.6634624,9.41074306 78.6395139,9.44756275 78.6116316,9.47242392 L78.0137049,9.47242392 Z" id="Fill-7"></path>
                <path d="M6.4198508,9.47242392 C6.38913625,9.44737394 6.35816994,9.40023214 6.32783302,9.40064124 C6.02015254,9.40476379 5.77947131,9.24436209 5.55241651,9.0724739 C5.26733136,8.85665383 5.13248315,8.53909182 5.02133173,8.20815513 C4.92434173,7.91945094 4.86486375,7.6281033 4.87757756,7.32281451 C4.88406035,7.16656683 5.01827916,7.03039689 5.17314217,7.02970455 C5.2255709,7.0294528 5.27799963,7.03027101 5.33042836,7.0301766 C5.5243769,7.0298619 5.60796076,7.10611329 5.612398,7.29886598 C5.62227953,7.72704443 5.81865124,8.06251277 6.1400211,8.32515994 C6.22014328,8.39064865 6.34413439,8.4064465 6.45084857,8.43373084 C6.50497668,8.44754609 6.56694076,8.42794039 6.62301999,8.43738134 C6.9355783,8.48996742 7.19117623,8.398107 7.36133358,8.12790707 C7.43745909,8.007 7.50744798,7.86916216 7.53060977,7.73066346 C7.57734247,7.45149463 7.52349759,7.17238874 7.37602999,6.93321807 C7.30610404,6.81980081 7.17135024,6.72630396 7.04525065,6.67176675 C6.76834765,6.55202407 6.47482858,6.47130396 6.19496742,6.35769789 C6.05115031,6.29932136 5.89937134,6.2276331 5.79127249,6.12120215 C5.59971566,5.93263495 5.35620215,5.8149378 5.22616883,5.53451018 C5.07498778,5.2083569 5.01569863,4.88878082 5.0286642,4.54616883 C5.03851425,4.28522103 5.05572825,4.02115772 5.10856609,3.76656683 C5.13811625,3.62403999 5.24095964,3.49422695 5.3218371,3.36564124 C5.386602,3.26270344 5.45873084,3.16102444 5.54404554,3.07511181 C5.72310885,2.89478971 5.94327175,2.78291448 6.19452684,2.73854202 C6.34938986,2.71122621 6.50648723,2.666602 6.66062643,2.67361977 C6.80828286,2.68029137 6.95209996,2.76916216 7.0998508,2.77649463 C7.36737579,2.7897749 7.46952684,3.03782007 7.66602444,3.15189819 C7.81270529,3.237087 7.88851611,3.45762755 7.97518401,3.62841429 C8.03793484,3.75212218 8.07453425,3.8911244 8.10779785,4.02697964 C8.12844206,4.11141318 8.11531914,4.2035883 8.12806442,4.29072825 C8.14027471,4.37443799 8.18675565,4.45773862 8.1806505,4.53836431 C8.17394743,4.62685746 8.14958978,4.7441455 8.08838097,4.79232581 C7.94434358,4.90568012 7.75269234,4.92025065 7.58495816,4.87087449 C7.44029137,4.82832729 7.39736653,4.66260718 7.39595039,4.52807368 C7.39308663,4.26045428 7.26582266,4.0471518 7.11907886,3.84996187 C7.05884561,3.76895853 6.92195187,3.73292558 6.81259422,3.70435098 C6.72432136,3.68131507 6.62324028,3.71224991 6.53109663,3.69811996 C6.27512107,3.65878267 6.06546909,3.73053388 5.92322547,3.94805331 C5.85559682,4.05146316 5.79769234,4.16890855 5.76804776,4.28811625 C5.66300148,4.71047279 5.85997112,5.08921214 6.26813476,5.250495 C6.54903443,5.36148908 6.83943799,5.44844021 7.12068382,5.55861607 C7.27614476,5.61951018 7.44913439,5.67687967 7.5657301,5.78714994 C7.80543576,6.01379563 8.01206664,6.25797001 8.14386227,6.58730174 C8.32390115,7.03722584 8.27902518,7.48617438 8.2616853,7.93383265 C8.25315698,8.15424732 8.16557645,8.38171122 8.03236468,8.5956431 C7.92376231,8.77004887 7.82856609,8.95244798 7.66891966,9.07395298 C7.47912514,9.21839948 7.3031144,9.40901222 7.02929545,9.40101888 C7.00518956,9.40029508 6.979699,9.44749981 6.95483784,9.47242392 L6.4198508,9.47242392 Z" id="Fill-10"></path>
                <path d="M48.5579478,9.47242392 C48.4569611,9.4234254 48.3558171,9.37474158 48.2549878,9.32536542 C48.1295805,9.26396779 48.0003969,9.20895853 47.8799619,9.13896964 C47.5614558,8.95383265 47.4348212,8.62015809 47.3003191,8.31209996 C47.1637401,7.99922695 47.1002025,7.65821992 47.1365816,7.30610404 C47.1539845,7.13774047 47.2193473,7.04257571 47.387585,7.03045983 C47.491876,7.02293854 47.5989678,7.01768308 47.7016538,7.03288301 C47.8402155,7.05340133 47.8458486,7.18636135 47.8731959,7.28741096 C47.9309745,7.50115402 47.9278904,7.74879008 48.0393251,7.92634284 C48.1924258,8.17026546 48.3810559,8.42721659 48.7291437,8.4382625 C48.7672221,8.43945835 48.8035698,8.46891411 48.8423721,8.47832358 C48.8958708,8.49128915 48.9590307,8.51951759 49.0040011,8.50296446 C49.1790678,8.43854572 49.3581311,8.37478786 49.5164243,8.27893077 C49.6039733,8.22587264 49.6891622,8.11815143 49.7124184,8.02015439 C49.7627701,7.80789041 49.8009745,7.58451759 49.7895194,7.36857164 C49.7810855,7.20911403 49.7182718,7.02916957 49.6206209,6.90464347 C49.5314039,6.79084857 49.367635,6.72929359 49.2282236,6.66245168 C49.0279496,6.56646872 48.8201859,6.48590596 48.615097,6.39996187 C48.4643251,6.33680193 48.2801636,6.3103358 48.168729,6.20579304 C47.9769833,6.02594298 47.6979719,5.94399556 47.5796138,5.68289041 C47.5260837,5.56487856 47.4525072,5.45498593 47.4083551,5.33398445 C47.3569019,5.19281081 47.3071796,5.04537468 47.293679,4.89730914 C47.2742307,4.68403813 47.2720592,4.46617253 47.2928923,4.25324769 C47.309351,4.08529322 47.358318,3.91689819 47.4171981,3.75772381 C47.4847638,3.57510441 47.5616446,3.39110033 47.6666909,3.22852721 C47.7847027,3.04587634 47.9509263,2.90004517 48.1580607,2.8150137 C48.4316279,2.70266642 48.7197027,2.62427508 49.0116483,2.67333654 C49.1948027,2.70411403 49.3782088,2.7920722 49.537037,2.89293299 C49.7129848,3.00471381 49.8614909,3.15989152 50.0211374,3.29713143 C50.2204987,3.46851611 50.267609,3.70875676 50.3172999,3.94909182 C50.3590918,4.15115957 50.4146675,4.35061533 50.4497879,4.55369011 C50.4605191,4.61562273 50.4451618,4.71242392 50.4035902,4.74603369 C50.3392658,4.7979589 50.2432829,4.81363088 50.1583458,4.83553388 C50.1279774,4.84336986 50.0863743,4.81086153 50.0573277,4.82011366 C49.8281329,4.89299778 49.6521536,4.77640207 49.6561188,4.53027656 C49.6604617,4.25957312 49.4867168,4.06543576 49.3813873,3.84357349 C49.3505468,3.77865124 49.2444621,3.72757571 49.1646231,3.71168345 C48.8438826,3.64792558 48.3910633,3.63354387 48.1500359,3.99015994 C48.0848619,4.08658349 48.0372166,4.21258867 48.031552,4.32745354 C48.0223314,4.5140696 47.9758504,4.71412329 48.0990863,4.8862003 C48.1935272,5.01809034 48.2712892,5.15904369 48.4653006,5.18894002 C48.5673573,5.20470641 48.6543399,5.30352166 48.7540992,5.35274047 C48.8530089,5.40155017 48.9589049,5.43660755 49.0626294,5.47518956 C49.3168741,5.56975639 49.568381,5.65925657 49.8067964,5.80222399 C50.0667686,5.95812551 50.223268,6.17992484 50.3378812,6.43275342 C50.4366335,6.65068197 50.5440085,6.87534506 50.5386586,7.12833099 C50.5352599,7.2908097 50.5327738,7.45366605 50.5396971,7.61592447 C50.5508689,7.87696668 50.4759078,8.11654646 50.3927016,8.36005998 C50.297883,8.6375609 50.1236975,8.8573147 49.9392843,9.07285154 C49.8668408,9.15756831 49.7837919,9.23507849 49.6961799,9.30396594 C49.6651192,9.32844946 49.6014872,9.30698704 49.5611114,9.3251766 C49.4653173,9.36829026 49.3745583,9.42260718 49.2817538,9.47242392 L48.5579478,9.47242392 Z" id="Fill-13"></path>
                <path d="M64.8593177,9.47242392 C64.8451248,9.44919919 64.835023,9.41023954 64.8160152,9.40529878 C64.6936605,9.3733569 64.5682218,9.35296446 64.4464021,9.31929174 C64.41103,9.3095361 64.3829904,9.27001 64.3539437,9.24171862 C64.3365724,9.22478786 64.3235753,9.18630026 64.3087845,9.18639467 C64.2056894,9.18714994 64.1676424,9.0984365 64.1020592,9.05560607 C63.8865224,8.91493595 63.7473628,8.71186116 63.6589956,8.49931396 C63.5764502,8.30083377 63.4415076,8.11116512 63.4609245,7.86566901 C63.4750544,7.68739245 63.4104783,7.50426953 63.3984254,7.32215365 C63.3880404,7.16502481 63.5337456,7.03077453 63.6912521,7.02970455 C63.7279774,7.0294528 63.7646712,7.02983043 63.8013965,7.02989337 C64.1174165,7.03033395 64.0951988,7.0335124 64.1395083,7.3512003 C64.1925665,7.73154461 64.3268482,8.08907331 64.6568093,8.32560052 C64.742722,8.38718697 64.8609541,8.41179637 64.9683291,8.43319585 C65.1172758,8.46284043 65.2674813,8.46806442 65.4219037,8.44015068 C65.6027294,8.40745354 65.7748378,8.38932692 65.8444491,8.17605591 C65.8684291,8.10254239 65.9420685,8.04677786 65.9824757,7.97682044 C66.1317686,7.71835876 66.0691751,7.43037838 66.0380829,7.16773121 C66.0091307,6.92314772 65.7927442,6.75815143 65.5583569,6.66610218 C65.2769537,6.55554869 64.9833402,6.47482858 64.7064687,6.35480267 C64.5366261,6.28122621 64.3858227,6.16173528 64.2310226,6.05615402 C64.1258819,5.98443428 64.0106709,5.91567271 63.9324683,5.81924917 C63.8347545,5.69881414 63.7540344,5.55808108 63.6949026,5.41420104 C63.5394732,5.03580785 63.4935902,4.6305709 63.5497638,4.23329582 C63.6169204,3.75781822 63.789973,3.31459719 64.1985772,3.00959163 C64.3608671,2.88846427 64.508555,2.74414365 64.7331237,2.73344391 C64.8790178,2.72652055 65.0238734,2.67006368 65.1684458,2.67273862 C65.3083291,2.67531914 65.4468908,2.72755905 65.5868056,2.75383636 C65.8017131,2.79421214 65.9585587,2.94772195 66.1104321,3.07460829 C66.272187,3.20973973 66.3879015,3.41353832 66.4870944,3.60625953 C66.5883643,3.80313476 66.6754728,4.0150211 66.6479367,4.25091892 C66.6436568,4.28770715 66.6765113,4.32735913 66.6802247,4.36685376 C66.6890992,4.46069678 66.7172332,4.5648619 66.6874628,4.64658904 C66.661154,4.71881229 66.6400063,4.83553388 66.4923499,4.81920104 C66.3929996,4.80821807 66.2878589,4.8696157 66.1833791,4.88047279 C66.0475868,4.89460274 65.9842066,4.81728138 65.9805561,4.68340874 C65.9735383,4.42648908 65.8925035,4.1959726 65.7250526,3.99897149 C65.6589974,3.92130396 65.6028238,3.81748501 65.5176979,3.77704628 C65.223518,3.63728878 64.9122184,3.65132432 64.6250877,3.78784043 C64.5174295,3.83901037 64.438157,3.97546353 64.3745879,4.0890696 C64.1729922,4.44921029 64.2880144,4.84956942 64.5627775,5.12776268 C64.5808097,5.14601518 64.6001951,5.165495 64.6228219,5.1761318 C64.7495509,5.23579859 64.8752414,5.29851796 65.0054635,5.3494676 C65.1878312,5.42087264 65.3759893,5.47770715 65.5578849,5.55027656 C65.7411022,5.62338097 65.9546564,5.67102629 66.0899452,5.7986679 C66.2155098,5.91712033 66.3828978,5.99960274 66.4703525,6.15622806 C66.5545028,6.30687412 66.6415483,6.45840133 66.7024424,6.61899185 C66.783194,6.83194817 66.8091566,7.05698889 66.7946805,7.28725361 C66.790495,7.35356053 66.8273462,7.42229063 66.8443399,7.49013958 C66.8515779,7.51906035 66.871278,7.56359015 66.8594454,7.5756431 C66.7510318,7.68600777 66.8137197,7.8243806 66.7886698,7.94708145 C66.7577034,8.09876601 66.6899174,8.24299223 66.6592658,8.39470826 C66.595508,8.71028767 66.3684846,8.90719437 66.1521611,9.10797186 C65.9960078,9.25292188 65.8291233,9.3948508 65.5941066,9.40265531 C65.5687105,9.403505 65.5447619,9.44812921 65.520184,9.47242392 L64.8593177,9.47242392 Z" id="Fill-16"></path>
                <path d="M68.6356968,9.47242392 C68.6202766,9.44910478 68.6087901,9.40998778 68.5888067,9.40501555 C68.4611966,9.37332544 68.3245861,9.36655942 68.2048749,9.31759237 C68.0851322,9.26856238 67.9752081,9.18799963 67.8724906,9.10674454 C67.6634365,8.9413706 67.5157486,8.7192251 67.4065483,8.48408256 C67.3189363,8.29538949 67.3101877,8.07122991 67.2318593,7.87671492 C67.1568352,7.69047649 67.1619019,7.50496187 67.1626572,7.31567086 C67.1632866,7.16697593 67.3018797,7.03096335 67.4496305,7.02916957 C67.5895454,7.0274702 67.7294602,7.02879193 67.8612558,7.02879193 C67.8768649,7.1942288 67.8776516,7.34323843 67.9080829,7.48592262 C67.9381996,7.62709626 67.9743269,7.77704998 68.0500118,7.89641503 C68.2177146,8.1610448 68.4122925,8.37730544 68.7609782,8.45361977 C68.9567519,8.49648167 69.1136605,8.38510996 69.2887271,8.43448612 C69.3026683,8.43845131 69.3207949,8.43476934 69.3350507,8.42945094 C69.5238382,8.35936764 69.8242177,7.9186642 69.8236198,7.71436209 C69.8232421,7.58329026 69.8250044,7.45221844 69.8228645,7.32120955 C69.8188993,7.08137801 69.7257486,6.90319585 69.4951692,6.79717401 C69.3459078,6.72850685 69.2142066,6.62267382 69.0689104,6.54412514 C68.9855468,6.49902888 68.8895639,6.47797556 68.8013854,6.44109293 C68.6007338,6.35722584 68.3962743,6.28028212 68.203207,6.18130951 C68.0551414,6.10540429 67.9016631,6.02002666 67.7877423,5.90280155 C67.6500304,5.76106146 67.539823,5.59282377 67.4548545,5.40501185 C67.2605598,4.9755746 67.2756024,4.51976564 67.3282514,4.08230359 C67.3590918,3.82601333 67.4756875,3.55955831 67.6346731,3.31714624 C67.8032884,3.06006923 68.0226331,2.87833099 68.2807486,2.78023954 C68.5349304,2.68362718 68.8120222,2.59154646 69.1134717,2.71471936 C69.2634569,2.77599111 69.4413558,2.78326064 69.5807357,2.88490818 C69.7273221,2.99174824 69.8948675,3.05220178 70.0040363,3.23324769 C70.0991381,3.39088004 70.2328219,3.53365864 70.3038178,3.70863088 C70.356278,3.83797186 70.3805728,3.97927138 70.4116649,4.11657423 C70.4393584,4.23892892 70.451191,4.36531174 70.484612,4.48587264 C70.5208023,4.61647242 70.3961188,4.79912329 70.2620574,4.81331618 C70.1520389,4.82496001 70.0445694,4.87505998 69.9355265,4.87650759 C69.8771185,4.87726287 69.7868945,4.82433062 69.7652747,4.77284598 C69.7168741,4.65776083 69.6876072,4.52958423 69.6776312,4.40458608 C69.6604802,4.18882895 69.5575109,4.01577638 69.4247083,3.86173158 C69.3296064,3.7513669 69.1965835,3.69063014 69.0409652,3.69994521 C68.9626053,3.70460274 68.8820426,3.71111699 68.8054136,3.69871788 C68.5541899,3.65799593 68.3503913,3.73295705 68.2128367,3.94616512 C68.1432884,4.05398075 68.0700581,4.17580044 68.053977,4.29856424 C68.0133495,4.60857349 68.0296194,4.9167575 68.3255616,5.11822732 C68.4113799,5.17666679 68.5143806,5.21002481 68.6098915,5.25408256 C68.719973,5.30484339 68.8286383,5.35944354 68.9412058,5.40397334 C69.1373258,5.48154646 69.3386698,5.54634284 69.53287,5.62822732 C69.7607745,5.72433617 69.990756,5.83252943 70.1261392,6.04951388 C70.2336401,6.22177971 70.3424943,6.39146501 70.4273054,6.58434358 C70.6115298,7.00342725 70.5487475,7.42745168 70.5528071,7.85059496 C70.5542547,8.00017105 70.4907801,8.15531729 70.4347009,8.2992288 C70.3639567,8.48065235 70.289027,8.66553758 70.1821555,8.82653721 C70.0378034,9.04396224 69.8679922,9.24439356 69.5977608,9.32678156 C69.4923684,9.35891225 69.3966686,9.42292188 69.2965631,9.47242392 L68.6356968,9.47242392 Z" id="Fill-19"></path>
                <path d="M36.7882329,9.47242392 C36.7695083,9.44705924 36.7519482,9.40067271 36.7319019,9.39957127 C36.5029274,9.38701481 36.3232977,9.25701296 36.1418741,9.14302925 C36.0664409,9.09563569 36.0417057,8.97051166 35.9676257,8.91745354 C35.7950452,8.79384006 35.7532847,8.59274787 35.6557912,8.42794039 C35.5844806,8.30737949 35.5697212,8.15069123 35.5417131,8.00775528 C35.4900711,7.74403813 35.4466113,7.47868456 35.4012632,7.2137401 C35.3942769,7.17289226 35.393207,7.13065976 35.3931755,7.08905665 C35.3927979,5.74658534 35.3928293,4.40411403 35.3929552,3.06161126 C35.3929867,2.85671122 35.4366668,2.81293669 35.6413151,2.8119926 C35.7566835,2.81148908 35.8720833,2.81067086 35.9874202,2.81192966 C36.1417168,2.81359756 36.2028312,2.87464902 36.2029571,3.03102258 C36.2036494,3.72848834 36.2031144,4.42595409 36.2031459,5.12341984 C36.2031773,5.86805887 36.1814002,6.61373639 36.2151359,7.3568334 C36.2273147,7.62479896 36.2463225,7.91901037 36.4636846,8.15298852 C36.6026238,8.30250167 36.7336013,8.39269419 36.9376201,8.44911959 C37.2510281,8.53578749 37.4829293,8.38545613 37.71996,8.26369937 C37.8148101,8.21498408 37.8617631,8.04555054 37.9013521,7.92174824 C38.0457671,7.47031359 38.0574739,7.00399371 38.0537605,6.53323658 C38.0445398,5.35340133 38.053194,4.17340874 38.0471518,2.99351055 C38.046428,2.84774232 38.0854191,2.79704443 38.2316279,2.80887708 C38.3774906,2.82067827 38.5254302,2.80503776 38.6717964,2.81309404 C38.7677793,2.81838097 38.8622203,2.82454906 38.8186346,2.98315698 C38.7936161,3.07413625 38.8528738,3.18487856 38.8515205,3.28643169 C38.8489715,3.47669826 38.8305302,3.66674454 38.8168093,3.85675935 C38.8154247,3.87598741 38.7891474,3.89949537 38.794686,3.91217771 C38.8941936,4.140806 38.7574572,4.36436764 38.7839548,4.59507294 C38.8119315,4.83833469 38.7902488,5.08729248 38.7902488,5.33376416 L38.7902488,6.05744428 C38.7902488,6.54516364 38.8038438,7.03341799 38.7840807,7.52031914 C38.7752377,7.73865679 38.7065391,7.95605035 38.6519704,8.17054869 C38.6087308,8.34058016 38.5468297,8.50595409 38.4902155,8.67233506 C38.4808689,8.69977675 38.4570148,8.72284413 38.4378812,8.74632062 C38.3298767,8.87877712 38.2331699,9.02360126 38.1088956,9.138592 C38.0198045,9.22098001 37.8953099,9.26673713 37.7833717,9.32234432 C37.674077,9.37666124 37.5606912,9.42273306 37.4490992,9.47242392 L36.7882329,9.47242392 Z" id="Fill-22"></path>
                <path d="M54.1595768,9.47242392 C54.1267538,9.44762569 54.0954098,9.40375676 54.0609189,9.40114476 C53.8298045,9.38364754 53.6576646,9.25761088 53.477311,9.1269167 C53.1736901,8.9068482 53.019488,8.58381044 52.8553414,8.27068567 C52.7679811,8.10411588 52.7349063,7.90856238 52.6811244,7.72499889 C52.6316853,7.55635209 52.5872499,7.38622621 52.5408634,7.21669826 C52.5367723,7.20168715 52.5328386,7.18626694 52.5318315,7.17084672 C52.507348,6.7891492 52.4644861,6.40742021 52.4644232,6.02569123 C52.4643602,5.64987856 52.498033,5.2730274 52.5371814,4.89875676 C52.5520037,4.75704813 52.6632181,4.6205635 52.6608264,4.48288301 C52.6559485,4.2022351 52.8841362,4.01599667 52.9144732,3.75212218 C52.923033,3.67738134 53.0285198,3.61576342 53.0835605,3.54360311 C53.1101525,3.50870307 53.1220167,3.4627886 53.1420629,3.42260163 C53.2518297,3.20243873 53.4140881,3.03970826 53.6510559,2.95908256 C53.665532,2.95417327 53.6889456,2.95134098 53.6924387,2.94177416 C53.7629311,2.75005998 53.959649,2.8040622 54.0887068,2.73092632 C54.2441677,2.64287375 54.4051359,2.65067827 54.5579534,2.67195187 C54.8266427,2.70927508 55.0846953,2.76038208 55.3173517,2.95193891 C55.4754561,3.08212958 55.5974646,3.23324769 55.7141233,3.3858134 C55.8397508,3.55008589 55.9867464,3.71061348 56.0146287,3.94090966 C56.038766,4.13973602 56.1232625,4.33138726 56.1461725,4.53024509 C56.1701211,4.73816623 56.0603858,4.84689448 55.8471777,4.88229804 C55.8163688,4.88742762 55.7833884,4.8822351 55.7536494,4.89029137 C55.6980737,4.90539689 55.6206894,4.95870678 55.5940344,4.93922695 C55.5221888,4.88664087 55.4508467,4.8128756 55.417709,4.7318408 C55.3187049,4.48986931 55.2716575,4.22782007 55.1222073,4.00482488 C55.0268538,3.86251833 54.945221,3.71564865 54.7459226,3.69638912 C54.6317816,3.68537468 54.5170111,3.62038949 54.4079367,3.63171862 C54.2357653,3.64959348 54.0661744,3.68899371 53.9234272,3.81921585 C53.7442695,3.98267012 53.6007986,4.16909737 53.5143195,4.3892288 C53.4375331,4.5847823 53.3993602,4.79553573 53.3444454,4.99968049 C53.1856486,5.59027471 53.30001,6.19200926 53.2804043,6.78807923 C53.2742047,6.97727582 53.3527534,7.17273491 53.4106894,7.35969715 C53.4760837,7.57079674 53.5352784,7.79133728 53.6461151,7.97883451 C53.765197,8.18017845 53.8997619,8.39511736 54.1706542,8.439301 C54.2953377,8.45966198 54.4279515,8.52634654 54.5409596,8.50088745 C54.7035957,8.46428804 54.878033,8.3915298 54.9984365,8.2808819 C55.1192492,8.16985635 55.1963817,8.00039134 55.2624369,7.84379748 C55.3324887,7.67769974 55.3687105,7.49709441 55.4163558,7.32193336 C55.4440807,7.2197823 55.4630255,7.11527101 55.4899008,7.01289967 C55.5172795,6.90876601 55.6157171,6.87761088 55.7164206,6.92487856 C55.807274,6.96752018 55.9131699,6.98196483 55.9977923,7.03304036 C56.0827923,7.08433617 56.2039197,7.15879378 56.2133291,7.23495076 C56.2326516,7.39151314 56.2013077,7.55896409 56.1659985,7.71634469 C56.1285809,7.88316623 56.0773165,8.05042836 56.0056598,8.2052599 C55.8630385,8.51353832 55.7281588,8.83015624 55.4791696,9.07385857 C55.3169426,9.23259237 55.10899,9.31491744 54.9022962,9.39802925 C54.8702284,9.41093188 54.8474757,9.44702777 54.8204432,9.47242392 L54.1595768,9.47242392 Z" id="Fill-25"></path>
                <path d="M74.1743862,9.47242392 C74.0719833,9.42276453 73.9696435,9.3729478 73.8671148,9.32347723 C73.7590159,9.27130026 73.6284791,9.24228508 73.5469722,9.16285524 C73.357398,8.97822177 73.1689882,8.79881229 73.0485217,8.54179822 C72.939164,8.30848093 72.8376109,8.08268493 72.7645379,7.83331803 C72.7010948,7.61674269 72.6335605,7.41127619 72.6217908,7.18138912 C72.613294,7.01513402 72.49588,6.85114476 72.5010411,6.6885087 C72.5049434,6.56561903 72.4775961,6.44968419 72.479799,6.33000444 C72.4837642,6.11512847 72.4706727,5.89956016 72.4835439,5.685408 C72.4983032,5.4404154 72.5169334,5.19337727 72.5644213,4.9532625 C72.6200285,4.67211107 72.6727719,4.38076342 72.7923573,4.12444169 C72.9257579,3.83847538 73.0386716,3.53696298 73.2760485,3.29769789 C73.4134772,3.15919919 73.5655709,3.03511366 73.7007653,2.89365679 C73.7714465,2.8197027 73.8901507,2.77076712 73.9941899,2.75377342 C74.2515187,2.7117612 74.5164002,2.65681488 74.7714317,2.68054313 C74.948953,2.69706479 75.1214076,2.82495816 75.2845157,2.92251462 C75.4104265,2.99782192 75.536652,3.08798297 75.6293936,3.19935468 C75.7367371,3.32819215 75.852672,3.45426027 75.889712,3.63898815 C75.9125591,3.75290892 76.0383439,3.83054498 76.0517816,3.97483414 C76.0672962,4.14127805 76.1325017,4.30315883 76.176465,4.46689633 C76.1906579,4.51986005 76.2059208,4.57250907 76.2258097,4.64356794 C76.1256727,4.76828286 75.9912651,4.8577201 75.8058763,4.89101518 C75.7100822,4.90822917 75.6407542,4.97343465 75.5293195,4.89667975 C75.4624147,4.85060792 75.4428719,4.82036542 75.4340289,4.74726101 C75.4207801,4.63721103 75.3977127,4.52539874 75.3584698,4.42205183 C75.2681829,4.18423436 75.1585106,3.95658164 74.9658208,3.77877712 C74.81593,3.64046723 74.5668778,3.60320696 74.3733069,3.68395853 C74.2719111,3.72628545 74.1499341,3.72439726 74.0544861,3.77503221 C73.8687197,3.87365864 73.6920481,3.99195372 73.6616168,4.2311244 C73.6587531,4.25368826 73.632696,4.27244428 73.6217131,4.29507108 C73.5611337,4.4204154 73.4853543,4.54151129 73.4459226,4.67333839 C73.3840215,4.87996927 73.3457856,5.09380674 73.3003117,5.30515809 C73.2916261,5.34547094 73.2943325,5.38855313 73.294301,5.43034506 C73.2940178,5.82349759 73.2858986,6.21690189 73.2977627,6.60973973 C73.3043713,6.82861237 73.3030811,7.06287375 73.3811262,7.2602525 C73.4605246,7.46118734 73.4693362,7.69154646 73.6355598,7.87004332 C73.703629,7.94314772 73.7165317,8.08806627 73.7997379,8.18499334 C73.860097,8.25529693 74.0634235,8.41818475 74.1522629,8.43829397 C74.2205839,8.45371418 74.2834291,8.49887338 74.3516872,8.50781081 C74.6385031,8.54529137 74.8825516,8.43697223 75.0737623,8.23610033 C75.2272092,8.07491188 75.3049711,7.86507108 75.3685087,7.64862162 C75.4442566,7.39075787 75.5475091,7.14095039 75.6395898,6.88560422 C75.8364965,6.9684328 75.9941288,7.03244243 76.1498415,7.1008893 C76.2851618,7.16039874 76.3217297,7.28627805 76.2709374,7.42062273 C76.2266279,7.53784783 76.2144176,7.66681118 76.1750174,7.78630211 C76.0666039,8.11538208 76.0087623,8.46608182 75.7649341,8.73835876 C75.6820426,8.83091151 75.6291733,8.95587819 75.5348267,9.03140578 C75.3938419,9.14431951 75.2280903,9.22626694 75.0732588,9.32206109 C74.9934828,9.37143725 74.9145879,9.42226101 74.8352525,9.47242392 L74.1743862,9.47242392 Z" id="Fill-28"></path>
                <path d="M29.3928238,9.47242392 C29.3684661,9.44778304 29.3470981,9.40599111 29.3192473,9.40108182 C28.9204932,9.33077823 28.6371703,9.10539134 28.4351655,8.76259052 C28.3813206,8.67123362 28.3054783,8.59262199 28.2534587,8.50038393 C28.1872147,8.38290707 28.1291214,8.25992299 28.0781718,8.13495631 C28.0254598,8.00567827 27.9811503,7.87249796 27.9413725,7.73856238 C27.9068186,7.62209256 27.8853876,7.50178341 27.8552395,7.38389745 C27.76297,7.02306442 27.7872647,6.65480452 27.7790511,6.28821251 C27.7771944,6.2051007 27.7382347,6.12318475 27.7198878,6.03991559 C27.7110448,5.99969715 27.6919426,5.94667049 27.7089678,5.91825324 C27.8462392,5.68877527 27.7466686,5.43729989 27.7847157,5.20042651 C27.8197416,4.98252943 27.8712892,4.76696113 27.9234976,4.55230544 C27.9685624,4.36694817 28.0179385,4.182 28.0786438,4.00133173 C28.1172573,3.88643539 28.1660041,3.76990263 28.2345768,3.67102444 C28.4610652,3.34455646 28.701589,3.02532655 29.0615409,2.83364384 C29.1700803,2.77586524 29.3042991,2.76211292 29.4288567,2.73951759 C29.5936957,2.70965272 29.7633495,2.66040244 29.9258597,2.67519326 C30.1244343,2.69328841 30.3227257,2.75478045 30.4858652,2.88943984 C30.5768445,2.96452684 30.6774221,3.02822177 30.7661984,3.10563754 C30.9184495,3.23840874 31.0156283,3.41004517 31.1251118,3.5786605 C31.2275146,3.73629285 31.257883,3.91658349 31.3588067,4.06826805 C31.389836,4.11487486 31.3760837,4.18971011 31.3889234,4.25035246 C31.4152007,4.37402888 31.4488734,4.49622621 31.4719408,4.62040615 C31.4775739,4.65077453 31.4631607,4.70707405 31.4422332,4.71654646 C31.3064095,4.77775528 31.1637568,4.82392151 31.0283421,4.8858856 C30.935632,4.92830692 30.8449989,5.01459719 30.768779,4.87647612 C30.722896,4.79330137 30.6924961,4.70055979 30.6631033,4.60954906 C30.5570815,4.28150759 30.4518778,3.93788856 30.1441973,3.75161866 C29.9727497,3.64786264 29.7658041,3.55235172 29.5236438,3.67458053 C29.3762706,3.74897519 29.1956653,3.76842355 29.0897693,3.91032099 C28.9367001,4.11537838 28.759997,4.29869011 28.729786,4.58563199 C28.7016205,4.85290522 28.5949693,5.11174454 28.5257671,5.3750211 C28.5153821,5.41461014 28.5190326,5.45829026 28.5189696,5.50005072 C28.5184661,5.78847168 28.5088678,6.07736468 28.521676,6.36518771 C28.5328478,6.61515254 28.5509745,6.86769789 28.6002877,7.11221844 C28.6518982,7.36797371 28.7056801,7.63685191 28.8292307,7.86101148 C28.9698064,8.11601148 29.1225609,8.40128545 29.4780441,8.43945835 C29.5825239,8.45069308 29.6871925,8.51539504 29.7868575,8.50554498 C30.0799045,8.47656127 30.3059208,8.32512847 30.4398249,8.05826435 C30.5415983,7.85544132 30.6372351,7.64887338 30.7217316,7.43840318 C30.7492677,7.36983043 30.7403932,7.28313106 30.7349804,7.20565235 C30.7277423,7.1019278 30.7503377,6.99140578 30.8472018,6.97287005 C30.9552692,6.9521629 31.0770574,6.98344391 31.1889326,7.00918623 C31.2643658,7.0265261 31.3302951,7.08241651 31.4053506,7.10507479 C31.5111836,7.1370796 31.5771129,7.25839578 31.5387827,7.36363088 C31.4908541,7.49523769 31.4194806,7.62678156 31.4095046,7.76210181 C31.386217,8.07897149 31.2379626,8.34766087 31.0932014,8.60958423 C30.9027146,8.95427323 30.6308153,9.23507849 30.2528941,9.38956387 C30.1863354,9.41675379 30.12006,9.44479341 30.0536901,9.47242392 L29.3928238,9.47242392 Z" id="Fill-31"></path>
                <path d="M61.3596842,4.56691059 C61.080421,5.17915605 60.9957042,5.80940226 60.8237845,6.44735857 C60.8892732,6.46740485 60.9623147,6.50633302 61.0368667,6.50941707 C61.2510189,6.51826009 61.4661466,6.504791 61.6801414,6.51539633 C61.8176646,6.52219382 61.876702,6.45934857 61.8384347,6.34322492 C61.7635679,6.11607571 61.6835402,5.89540929 61.6707005,5.65029082 C61.6630533,5.50449111 61.5613428,5.36322307 61.5557412,5.21783247 C61.5469926,4.99068327 61.4541251,4.80158108 61.3596842,4.56691059 M59.4581514,8.85904869 C59.4891177,8.70642003 59.5170944,8.55309904 59.5522462,8.40144595 C59.5703414,8.32352666 59.6042029,8.24935228 59.6256968,8.17206238 C59.67287,8.00266031 59.7176831,7.83259737 59.761615,7.66234561 C59.7917945,7.54521492 59.8161836,7.42657368 59.8479052,7.30988356 C59.8900748,7.15467438 59.9375313,7.00091281 59.9810855,6.84608127 C59.989488,6.81634228 59.9882606,6.7839913 59.9953728,6.75378027 C60.0403117,6.56357664 60.0886179,6.37412829 60.1312595,6.18342114 C60.1633588,6.03982432 60.1840659,5.89358404 60.2183365,5.75055368 C60.253331,5.60481692 60.2988678,5.46162921 60.3395268,5.31724565 C60.3709652,5.20559071 60.4069981,5.09491133 60.4320167,4.98184024 C60.4636753,4.83890429 60.4795676,4.69228638 60.514625,4.55032599 C60.5506894,4.40446335 60.6035587,4.26281766 60.6448156,4.1181194 C60.6574036,4.07412458 60.6529663,4.02553517 60.6616835,3.98009274 C60.6836179,3.8661405 60.7082588,3.75269178 60.7324591,3.63918012 C60.7566594,3.52582581 60.7808282,3.41247149 60.8065705,3.29946335 C60.8358375,3.17084617 60.8531773,3.03687912 60.903592,2.91697908 C60.9247712,2.86659589 61.0149008,2.82401722 61.0781237,2.81681063 C61.2127516,2.80151629 61.3502432,2.81202721 61.4865705,2.81136635 C61.6638715,2.81048519 61.7340807,2.8799391 61.771278,3.05333784 C61.7984365,3.17997242 61.8519981,3.30094243 61.8940733,3.42433562 C61.8991085,3.43903203 61.9093676,3.45256405 61.9114761,3.46744928 C61.9380681,3.65444298 61.9600026,3.8421605 61.9915039,4.02827305 C62.001291,4.08608312 62.0428626,4.13785098 62.0585031,4.19547223 C62.1124424,4.39395243 62.1579478,4.59472991 62.2132718,4.792801 C62.252137,4.93208645 62.3056986,5.06724935 62.3453506,5.20631451 C62.3799359,5.32763069 62.4076294,5.4512127 62.4322388,5.57498352 C62.4608449,5.71895798 62.4704117,5.86784173 62.5105672,6.00819715 C62.571241,6.2201779 62.653629,6.42583321 62.7219185,6.63576842 C62.7529163,6.73109052 62.7758264,6.82943373 62.7961559,6.92771399 C62.8258949,7.07168845 62.843455,7.21840078 62.8783865,7.36099056 C62.9141048,7.50675879 62.9677294,7.64805831 63.0073499,7.79297686 C63.0420611,7.91976879 63.0642158,8.04999093 63.09899,8.17675139 C63.1666816,8.42372658 63.2477479,8.66739745 63.3060615,8.91644965 C63.3316779,9.02602758 63.3212299,9.14595909 63.3127331,9.26010015 C63.3109708,9.28345076 63.2451988,9.31847668 63.2078756,9.31986135 C63.0350748,9.32624972 62.8618334,9.32477064 62.6888123,9.32190689 C62.578605,9.32008164 62.5273406,9.25641818 62.5021962,9.14995576 C62.4363928,8.87122751 62.3573406,8.59561477 62.2910022,8.3170124 C62.2570148,8.1742338 62.2410281,8.02730118 62.2130515,7.88301203 C62.1890085,7.75889504 62.1732736,7.63018345 62.1261633,7.51481507 C62.1047638,7.46238634 62.0172462,7.40602388 61.958492,7.40470215 C61.5391566,7.3952612 61.119475,7.39677175 60.7000452,7.40413569 C60.6609596,7.40482803 60.601702,7.46345631 60.5879811,7.50666438 C60.5088345,7.75543336 60.4401673,8.0075696 60.3694232,8.25898204 C60.3624998,8.28355998 60.3619963,8.31134783 60.3647342,8.33696427 C60.3843084,8.51942632 60.3445305,8.68294354 60.232435,8.83251962 C60.2060004,8.8677973 60.2155987,8.93300278 60.2153469,8.98448741 C60.2140881,9.25884136 60.152722,9.33037227 59.889351,9.32008164 C59.7382958,9.31416531 59.5883736,9.27989467 59.4378219,9.25903017 C59.4174609,9.25622936 59.3886975,9.24785839 59.3771166,9.25770844 C59.2392788,9.37477619 59.075856,9.31894872 58.9248952,9.32030193 C58.2536753,9.3263756 57.5823924,9.32322862 56.9111096,9.32278804 C56.7164687,9.32266216 56.6712466,9.27681063 56.6712466,9.08185505 C56.6711836,7.06803795 56.671278,5.05418937 56.6714983,3.04037227 C56.6715298,2.86857849 56.7246823,2.81363217 56.8921333,2.81180692 C57.0075017,2.81054813 57.1237512,2.82020937 57.2380181,2.80884876 C57.3825905,2.79446705 57.4109448,2.85498352 57.4106301,2.98904498 C57.4063817,4.71440966 57.4099378,6.43983728 57.4044935,8.16520196 C57.4040215,8.32277138 57.4430126,8.37164402 57.6051766,8.36827675 C58.1241455,8.35751407 58.6434606,8.36361922 59.1626812,8.36399685 C59.3568815,8.3641542 59.4026701,8.41110718 59.4025442,8.60408016 C59.4024498,8.68892281 59.4025128,8.77376546 59.4025128,8.85860811 C59.4210485,8.85873399 59.4396157,8.85889134 59.4581514,8.85904869" id="Fill-34"></path>
                <path d="M15.8028375,7.00872677 C15.8060474,6.96403961 15.8119952,6.91935246 15.8120267,6.87466531 C15.8124672,5.62663495 15.8121211,4.37860459 15.8123414,3.1306057 C15.8123728,2.88407108 15.8852884,2.81080933 16.1259382,2.81172195 C16.2307956,2.81213106 16.3358419,2.80844909 16.440542,2.81285487 C16.5819989,2.81886561 16.633515,2.90295298 16.5854291,3.03644798 C16.5781596,3.05665161 16.5801422,3.0821107 16.58395,3.10404517 C16.5950903,3.16830655 16.6206753,3.23203295 16.6207382,3.29597964 C16.6229411,5.19427101 16.6239167,7.09256238 16.6195109,8.99085376 C16.6192906,9.08831581 16.5741629,9.18735135 16.5393573,9.28176083 C16.5312695,9.30366383 16.4798793,9.32043725 16.4480948,9.3210037 C16.2492055,9.32449685 16.0501903,9.32276601 15.8491925,9.32276601 C15.7138093,9.0324254 15.5746498,8.75196631 15.4522636,8.46436357 C15.3835335,8.30292336 15.3792221,8.10224028 15.2794943,7.96887116 C15.1644406,7.81498371 15.1242851,7.63950796 15.045642,7.47721807 C14.9652366,7.31127767 14.9233188,7.12714772 14.8505291,6.9569589 C14.775505,6.78154609 14.6814732,6.61437838 14.5997775,6.44170344 C14.5353588,6.30559645 14.4743073,6.16772714 14.4168434,6.0285361 C14.3609215,5.8930585 14.3137168,5.75399334 14.258676,5.6181381 C14.1811973,5.42699037 14.1000052,5.2373532 14.020418,5.04708663 C14.006886,5.04765309 13.9933225,5.04821955 13.9797904,5.04878601 C13.9748182,5.1048023 13.9655031,5.16088153 13.9654717,5.21689782 C13.9646535,6.49642947 13.9649052,7.77592966 13.9648108,9.05546131 C13.9648108,9.28733099 13.9321451,9.3202799 13.702856,9.32201074 C13.613702,9.32270307 13.5245794,9.32342688 13.4354254,9.32358423 C13.2316897,9.32396187 13.153676,9.24745872 13.1535502,9.03563532 C13.1524173,7.03245502 13.1522284,5.02927471 13.1525431,3.02609441 C13.1525431,2.87145168 13.2137834,2.81342133 13.3726746,2.81106109 C13.4722766,2.80955054 13.5719415,2.81071492 13.671575,2.81150167 C13.9021544,2.81335839 14.0750811,2.96863051 14.1108308,3.20153869 C14.1175968,3.24550204 14.1233873,3.30368974 14.1524339,3.32754387 C14.2431929,3.40222177 14.2677394,3.49058904 14.2637427,3.60366013 C14.2620118,3.65284746 14.3069822,3.70341947 14.3298923,3.75373973 C14.4492258,4.01578897 14.6038371,4.26880637 14.6747071,4.54341207 C14.7206216,4.72127953 14.8911251,4.83636468 14.8692221,5.05133506 C14.8598127,5.14357312 14.9845276,5.25824917 15.0269804,5.38343613 C15.1157568,5.64529656 15.2544128,5.88988004 15.3648719,6.14491151 C15.4691944,6.38578156 15.5620933,6.63152943 15.6636779,6.87359534 C15.6862418,6.92737727 15.7242258,6.97464495 15.7550977,7.02493373 C15.7710215,7.01952092 15.7869452,7.01413958 15.8028375,7.00872677" id="Fill-36"></path>
                <path d="M40.2672788,4.61840152 L40.2682544,4.61840152 C40.2682544,4.87503795 40.2731322,5.13176879 40.2661144,5.3882164 C40.2627471,5.51160959 40.3065217,5.55337005 40.4294113,5.55148186 C40.7959089,5.5459117 41.1625639,5.5506007 41.5291559,5.54959367 C41.5700981,5.54946779 41.6152258,5.54779989 41.6513217,5.5313097 C41.9689152,5.38639115 42.1136764,5.13164291 42.1139596,4.78811829 C42.1140855,4.64669289 42.1255091,4.5040087 42.1101203,4.36428267 C42.0969974,4.24516938 42.0814198,4.10937708 42.0162773,4.01650963 C41.8891392,3.8352749 41.6845224,3.72424935 41.4715346,3.70766475 C41.117562,3.68006572 40.7597816,3.7044863 40.4037949,3.6978147 C40.2852795,3.69561181 40.2640689,3.74728526 40.2658312,3.84855516 C40.2702055,4.10509719 40.2672788,4.36179656 40.2672788,4.61840152 Z M40.2679711,7.88931229 C40.2679711,8.2878147 40.2681599,8.6863171 40.2678767,9.08481951 C40.2677508,9.27461403 40.2188467,9.32225935 40.0245835,9.32288874 C39.9092466,9.32326638 39.7934061,9.31643743 39.6786357,9.32465106 C39.5613476,9.33302203 39.5239615,9.29016013 39.5256294,9.17246298 C39.531766,8.73732969 39.5306016,8.30207053 39.5264476,7.86690578 C39.5258497,7.80421788 39.489565,7.74263143 39.4778267,7.67903091 C39.4677249,7.62443077 39.4597945,7.56640041 39.4674102,7.5121779 C39.4805961,7.41779989 39.5241503,7.32524713 39.524465,7.23181322 C39.5287764,5.82133562 39.5305072,4.41085802 39.5251888,3.00038041 C39.5246224,2.84753147 39.5673899,2.80621159 39.718445,2.80787949 C40.410498,2.8155896 41.1027083,2.80699833 41.7947612,2.81533784 C41.9174306,2.81681692 42.0494465,2.85055257 42.1597797,2.90471214 C42.4330322,3.03889948 42.6009237,3.27086357 42.7074176,3.55371437 C42.767525,3.71351814 42.8465457,3.86608386 42.9122233,4.02390504 C42.9275176,4.06063032 42.9268882,4.10553776 42.9270455,4.14673177 C42.9279582,4.3721816 42.91087,4.59901611 42.9301611,4.82279804 C42.9599315,5.16849408 42.8492521,5.47730748 42.6759163,5.75458812 C42.5175287,6.00782581 42.3408256,6.26521751 42.0267882,6.36686505 C41.9375713,6.39572288 41.9627786,6.45378471 42.006144,6.51316827 C42.135013,6.68965106 42.2814106,6.85754258 42.382114,7.04919382 C42.4891429,7.25280359 42.5488097,7.48092836 42.6347853,7.69608756 C42.68199,7.81416235 42.7456535,7.92562847 42.7933932,8.04351444 C42.8667808,8.22478064 42.928147,8.41092466 43.0036431,8.59121529 C43.0556312,8.71533228 43.1368234,8.8283719 43.1788671,8.95503795 C43.2115957,9.05360144 43.2165365,9.16686135 43.2052073,9.27046001 C43.2025953,9.29447149 43.0841744,9.31640596 43.017836,9.32059145 C42.8924917,9.32852184 42.7662977,9.32279434 42.6404498,9.32292021 C42.413395,9.3231405 42.3277971,9.25302573 42.2634098,9.04324787 C42.2176213,8.89401796 42.1527934,8.75070437 42.0973436,8.60436968 C42.028047,8.4213097 41.9631877,8.23645594 41.889926,8.05500093 C41.8124787,7.8631294 41.7314754,7.67245372 41.6445243,7.48473621 C41.5603739,7.3030609 41.4700555,7.12402906 41.3758663,6.94729452 C41.3260496,6.85382914 41.2738726,6.75620974 41.2004535,6.68279063 C41.1565846,6.63889023 41.0672418,6.64376805 41.0023195,6.6170187 C40.7896779,6.52931229 40.5696409,6.48563217 40.3420196,6.52113014 C40.3105498,6.52603943 40.2713069,6.61295909 40.2706146,6.66239819 C40.2648871,7.07128563 40.2673732,7.48033043 40.2673732,7.88931229 L40.2679711,7.88931229 Z" id="Fill-38"></path>
                <path d="M44.2959232,5.47630674 C44.3291238,5.47630674 44.3791609,5.47630674 44.4291664,5.47630674 C45.0426392,5.47611792 45.656112,5.47596057 46.2695533,5.47564587 C46.4579632,5.47558293 46.5432464,5.55900944 46.5461731,5.7525174 C46.5485648,5.90977212 46.5477151,6.06708978 46.5465507,6.22437597 C46.5453863,6.37927046 46.4851216,6.43789874 46.3267025,6.43796168 C45.7446996,6.43821344 45.1626966,6.43761551 44.5807251,6.43761551 C44.3790979,6.43764698 44.3322708,6.48459996 44.3321449,6.6875174 C44.3317988,7.15415198 44.3339387,7.6208495 44.3301309,8.08745261 C44.32947,8.17062736 44.3051124,8.25358182 44.2884648,8.35651962 C44.3276762,8.35837634 44.3819617,8.36309682 44.4362471,8.36315976 C45.1336185,8.3636318 45.8309583,8.36309682 46.5283297,8.3636318 C46.7228132,8.36375768 46.7686648,8.41058478 46.7689165,8.60390392 C46.7691683,8.7979154 46.7650457,8.99202129 46.7706788,9.18584395 C46.773574,9.28538301 46.7438036,9.32516087 46.6378447,9.3248147 C45.6678502,9.32160478 44.6978558,9.32229711 43.7278613,9.32308386 C43.584296,9.32320974 43.5190591,9.25564402 43.5190905,9.11264513 C43.5197829,7.08350222 43.519122,5.05435931 43.5197514,3.0252164 C43.5198143,2.86182506 43.5786629,2.81131599 43.7559954,2.81131599 C44.6420913,2.81122158 45.5282186,2.81131599 46.4143145,2.81134746 C46.5958954,2.81134746 46.6922245,2.9037114 46.6957806,3.08784136 C46.6988332,3.24506461 46.6981409,3.40241374 46.6961268,3.55969993 C46.6941757,3.70990541 46.6283723,3.77303388 46.4738554,3.77325417 C45.8184648,3.77422973 45.1630113,3.77784876 44.5076836,3.77142892 C44.3708843,3.77010718 44.3260083,3.80569956 44.3291868,3.94677879 C44.3382816,4.35028489 44.3344422,4.75416864 44.3306973,5.15786357 C44.3297532,5.25689911 44.3096755,5.35571437 44.2959232,5.47630674" id="Fill-40"></path>
                <path d="M23.3482664,4.78347964 C23.3482664,5.0610435 23.3544659,5.33882766 23.3455285,5.61610829 C23.3413745,5.74415902 23.3876666,5.77685616 23.5082275,5.77433858 C23.8223278,5.76782432 24.1380646,5.79029378 24.4503082,5.76552703 C24.5972094,5.75385172 24.7376907,5.66044928 24.8805951,5.6028595 C24.8878332,5.5999328 24.8904767,5.58529933 24.8949454,5.57601573 C24.98561,5.38672473 25.0839532,5.20127305 25.0528924,4.97733377 C25.0452767,4.92241892 25.0804915,4.86196538 25.0938347,4.80352592 C25.1040309,4.7589017 25.1260913,4.70980877 25.1163671,4.66899241 C25.0744807,4.49323343 25.0340106,4.31571214 24.9721094,4.14643595 C24.8727277,3.87472547 24.7161338,3.77046594 24.4285626,3.7770746 C24.2974907,3.78009571 24.1667966,3.82418493 24.0362912,3.82229674 C23.8531053,3.81965328 23.6700768,3.79340744 23.487363,3.77354998 C23.3732849,3.76115087 23.3444271,3.81329637 23.3464411,3.91938116 C23.3519169,4.20729859 23.3482979,4.49543632 23.3482664,4.78347964 M22.5344567,6.0737425 C22.5344252,5.071995 22.5343937,4.0702475 22.5344567,3.06853147 C22.5344567,2.85570104 22.5779795,2.81274472 22.7909987,2.81268178 C23.4151083,2.81252444 24.0392808,2.81674139 24.6633275,2.80928304 C24.896928,2.80648223 25.0925759,2.90551777 25.2414596,3.05298538 C25.4169039,3.22676175 25.5615707,3.43864809 25.6870409,3.65305202 C25.755236,3.76958478 25.7383997,3.93266142 25.7904508,4.06247445 C25.9326944,4.41707645 25.8756396,4.78731896 25.8468447,5.14081951 C25.8185533,5.48821492 25.7837792,5.84813532 25.5324926,6.15698019 C25.3854656,6.33767993 25.2287144,6.4927003 25.04342,6.61568438 C24.9353841,6.68737264 24.7875703,6.71648223 24.6542327,6.72935339 C24.2845566,6.76507164 23.9133386,6.79487357 23.5422779,6.80097871 C23.3766836,6.80371659 23.3429165,6.85284098 23.3446788,7.0073893 C23.3526407,7.6943756 23.3482979,8.38145631 23.3476055,9.06850555 C23.3474167,9.28039189 23.3036736,9.32234117 23.0877906,9.32309645 C22.9829017,9.32350555 22.8780128,9.32306498 22.7731238,9.32246705 C22.5832349,9.32139708 22.5345196,9.27167475 22.5345196,9.07895354 C22.5344567,8.0772375 22.5344882,7.07549 22.5344567,6.0737425" id="Fill-42"></path>
                <path d="M18.8170709,5.45737764 C18.9210472,5.22871788 19.0319783,5.00292188 19.1265766,4.77042281 C19.1927577,4.60791262 19.207517,4.41859015 19.2965766,4.27257016 C19.4658528,3.99497482 19.5116414,3.66705924 19.691995,3.39500259 C19.7767118,3.2672351 19.820801,3.11098741 19.8736388,2.96418067 C19.9126614,2.85576712 19.9756955,2.80453425 20.0938332,2.80988412 C20.2403882,2.81646131 20.3879817,2.8043769 20.5340961,2.81498223 C20.6091516,2.82042651 20.6819098,2.85765531 20.7569654,2.88091151 C20.6512582,3.15051351 20.5618839,3.39100592 20.4626281,3.62734432 C20.3938665,3.79108182 20.3105344,3.94861977 20.2354474,4.10977675 C20.1139739,4.37047279 19.9920913,4.63104295 19.8737647,4.8931866 C19.7041424,5.26887338 19.5367858,5.64553573 19.3700587,6.02251277 C19.2925485,6.19776823 19.2160454,6.37359015 19.1454271,6.5516779 C19.1289998,6.59306072 19.1362693,6.6447027 19.1362379,6.69165568 C19.1357658,7.48359385 19.136112,8.27553203 19.1357029,9.0674702 C19.1356085,9.28127619 19.0931557,9.3224702 18.877493,9.32272195 C18.7988499,9.32281636 18.7201753,9.32265902 18.6415007,9.32224991 C18.4456325,9.3212114 18.3991201,9.27617808 18.3989313,9.0841492 C18.3984593,8.56492854 18.3986796,8.04570789 18.3986166,7.52648723 C18.3986166,7.30622991 18.3780983,7.08354943 18.4035259,6.86625028 C18.4397792,6.55620955 18.2509287,6.33308849 18.1464174,6.07638912 C18.0555326,5.85314217 17.9680779,5.62847908 17.8795218,5.40428804 C17.8237888,5.26324028 17.7751679,5.1189826 17.7122597,4.98123917 C17.5771912,4.68554869 17.4155937,4.40046353 17.3012638,4.09728323 C17.1908676,3.80470826 17.0949476,3.50845131 16.9403678,3.23416031 C16.8941387,3.15214994 16.8692146,3.05550611 16.8484759,2.96244983 C16.8268876,2.86539689 16.854707,2.79896409 16.9782575,2.81111144 C17.0664674,2.81976564 17.1563767,2.80960089 17.2454993,2.81130026 C17.3706862,2.81369197 17.5340776,2.77177416 17.6120283,2.83458793 C17.7313619,2.93069678 17.8060398,3.09336431 17.8738887,3.23973047 C17.9834667,3.47603739 18.0693164,3.72320141 18.1702086,3.96366235 C18.3135222,4.30526731 18.4645144,4.64369382 18.6059398,4.98608552 C18.6708621,5.14340318 18.7207732,5.30695187 18.7775133,5.4676368 C18.7906992,5.46423806 18.803885,5.46080785 18.8170709,5.45737764" id="Fill-44"></path>
                <path d="M33.7662233,6.5118308 C33.7662862,7.36633099 33.7663806,8.22086264 33.7662547,9.07536283 C33.7662233,9.27601444 33.7191129,9.32243243 33.5157234,9.32303036 C33.4370803,9.32325065 33.3584372,9.32284154 33.2797942,9.32290448 C33.0216157,9.32315624 32.9542703,9.2573843 32.9541759,8.9984191 C32.9534835,7.33656053 32.9533262,5.67470196 32.9532318,4.01284339 C32.9532003,3.77486857 32.9537982,3.77493151 32.7181522,3.7745224 C32.4455291,3.77405035 32.1729374,3.77370418 31.9003143,3.77282303 C31.7210622,3.7722251 31.6308067,3.68980563 31.6251107,3.51004998 C31.6198238,3.34247316 31.6229078,3.17458164 31.6241981,3.00681599 C31.6251422,2.88090522 31.6895294,2.81182895 31.8165731,2.81173454 C32.8441259,2.8109478 33.8716472,2.81088486 34.899137,2.81179748 C35.0342684,2.81192336 35.0961381,2.88688449 35.0952569,3.01965568 C35.0942184,3.1769104 35.0950367,3.33419659 35.0949108,3.49145131 C35.094722,3.69040355 35.0130892,3.77263421 34.8048849,3.77417623 C34.5113343,3.77634765 34.217595,3.77977786 33.9242332,3.77153277 C33.799298,3.76800815 33.762856,3.80784894 33.7635483,3.93256387 C33.7684576,4.79228804 33.7661288,5.65207516 33.7662233,6.5118308" id="Fill-46"></path>
                <path d="M26.3763465,6.05717993 C26.3763151,5.0607823 26.3761577,4.06441614 26.3764095,3.06804998 C26.3764409,2.85669863 26.4226701,2.81119326 26.63399,2.81103591 C26.723144,2.81097297 26.812298,2.81144502 26.9014206,2.81147649 C27.1027016,2.81163384 27.1892436,2.89241688 27.1893066,3.0964987 C27.1901877,5.07878304 27.1896842,7.06100444 27.1884569,9.04325731 C27.1883625,9.23320918 27.0953062,9.32421992 26.9130644,9.32368493 C26.8396453,9.32349611 26.7659115,9.31868123 26.6929015,9.32381081 C26.4318908,9.34218919 26.3713428,9.27896631 26.3734828,8.99907368 C26.3809726,8.01850537 26.376378,7.03781118 26.3763465,6.05717993" id="Fill-48"></path>
                <path d="M71.9055785,2.9351057 C71.9175056,2.99791947 71.9297158,3.06067031 71.9412967,3.12351555 C71.9495733,3.16848593 71.9638921,3.21358219 71.9639235,3.25864698 C71.9651823,5.07763439 71.9648676,6.89662181 71.96556,8.71560922 C71.9656229,8.82956146 71.9177573,8.93344335 71.9555211,9.06014087 C71.997848,9.2021642 71.8588458,9.32360626 71.7065948,9.32291392 C71.5808099,9.32231599 71.4549621,9.32319715 71.3292086,9.32058515 C71.2155711,9.31822492 71.1572575,9.25541114 71.1536385,9.14385061 C71.1506488,9.04959848 71.1521594,8.95515753 71.1521594,8.860811 C71.1521279,6.93174213 71.1521279,5.00267327 71.1521909,3.07357294 C71.1521909,2.85454295 71.1895141,2.81533154 71.4036662,2.81215309 C71.5084922,2.81054813 71.6141994,2.80268067 71.7178924,2.81347482 C71.798644,2.82187727 71.876878,2.85476324 71.956182,2.87679211 L71.9055785,2.9351057 Z" id="Fill-50"></path>
            </g>
        </g>
    </g>
</svg>