<?xml version="1.0" encoding="UTF-8"?>
<svg width="69px" height="27px" viewBox="0 0 69 27" version="1.1" xmlns="http://www.w3.org/2000/svg" xmlns:xlink="http://www.w3.org/1999/xlink">
    <!-- Generator: Sketch 49.3 (51167) - http://www.bohemiancoding.com/sketch -->
    <title>tacobell</title>
    <desc>Created with Sketch.</desc>
    <defs>
        <polygon id="path-1" points="0.362074074 0.519933333 19.385037 0.519933333 19.385037 10.4868133 0.362074074 10.4868133"></polygon>
        <polygon id="path-3" points="0 0.13501 13.5390111 0.13501 13.5390111 23 0 23"></polygon>
        <polygon id="path-5" points="0.362074074 0.519933333 19.385037 0.519933333 19.385037 10.4868133 0.362074074 10.4868133"></polygon>
        <polygon id="path-7" points="0 0.13501 13.5390111 0.13501 13.5390111 23 0 23"></polygon>
    </defs>
    <g id="Page-1" stroke="none" stroke-width="1" fill="none" fill-rule="evenodd">
        <g id="Desktop-HD" transform="translate(-551.000000, -662.000000)">
            <g id="tacobell" transform="translate(551.000000, 662.000000)">
                <path d="M49.6530831,3.3726628 C48.5195319,4.40607271 47.9815228,5.96619825 48.0009595,7.47088005 C47.975303,8.94552981 48.4635541,10.4817837 49.5403499,11.5329049 C50.8620488,12.8335228 52.8904678,13.2116184 54.6763161,12.8935869 C55.9630288,12.7103145 57.1471155,12.0288184 58,11.0639431 C57.2777305,10.5333772 56.5500186,10.0089718 55.8370787,9.46685508 C55.0899301,10.4948746 53.6648278,10.7975051 52.483851,10.440971 C51.6130847,10.1360303 51.0222076,9.31900508 50.8464994,8.44268579 C50.6249204,7.40234541 50.7329888,6.21877534 51.4023904,5.35400684 C52.0857864,4.43610474 53.4261445,4.15272557 54.4780613,4.54468208 C54.9849717,4.71948391 55.3682644,5.11760084 55.6878045,5.52880866 C56.3774203,5.00825345 57.108242,4.54391203 57.7893057,4.01103598 C57.3360407,3.47970004 56.8221331,2.9884068 56.203267,2.65343414 C55.0673835,2.01198074 53.7044788,1.89339272 52.4302056,2.08051538 C51.4101651,2.25146694 50.4103388,2.6588245 49.6530831,3.3726628" id="Fill-1" fill="#FFFFFF"></path>
                <path d="M65.1221366,10.0622901 C64.4647525,10.5881684 63.5544083,10.6489947 62.7525871,10.4919242 C61.8422428,10.2809569 61.1458217,9.51331315 60.9045726,8.64249561 C60.6086717,7.61383759 60.698457,6.44812781 61.2699595,5.53034311 C61.6166086,4.9859859 62.1803038,4.58714993 62.8189501,4.45240805 C63.760524,4.22989145 64.8574654,4.48320619 65.4875235,5.23545087 C66.0246735,5.84525413 66.219078,6.67449418 66.2346929,7.46446658 C66.2385966,8.42382879 65.9317653,9.46326617 65.1221366,10.0622901 M68.5144572,5.1238076 C68.1100332,4.1644454 67.3979973,3.33212554 66.4954604,2.79546787 C65.1845959,2.00857528 63.5505046,1.81993664 62.067877,2.16564581 C60.3947486,2.50673527 58.9472544,3.74636058 58.3757519,5.33862466 C57.9752316,6.3172357 57.944002,7.4028703 58.0564287,8.44307763 C58.2703518,10.0584403 59.2587702,11.5891081 60.737494,12.3529021 C62.402815,13.1967712 64.4764637,13.2198698 66.152715,12.3952495 C67.2114001,11.873221 68.0483547,10.960056 68.5105535,9.88905052 C69.1562264,8.38918088 69.1687183,6.62829696 68.5144572,5.1238076" id="Fill-3" fill="#FFFFFF"></path>
                <path d="M30,2.00163336 C30.0007622,2.69926136 29.9984756,3.39761529 30.0022866,4.09451734 C31.0708841,4.09306546 32.1402439,4.09814704 33.2088415,4.09088764 C33.2118902,6.72677447 33.2080793,9.36411317 33.2118902,12 C34.0609756,11.9985481 34.9115854,12 35.7606707,11.9985481 C35.7545732,9.36411317 35.7583841,6.72967823 35.7599085,4.09451734 C36.8391768,4.09233952 37.9199695,4.1010508 39,4.08870982 C38.992378,3.39325965 38.9954268,2.69708354 38.9984756,2.00163336 C35.9984756,1.99945555 32.9992378,1.99945555 30,2.00163336" id="Fill-5" fill="#FFFFFF"></path>
                <path d="M42.7450077,8.52804993 C42.1981567,8.52442122 41.6543779,8.57159446 41.1067588,8.56070832 C41.5698925,7.37484578 42.0253456,6.18462878 42.4923195,4.9980405 C42.9132104,6.17011394 43.3310292,7.3458161 43.7749616,8.50990638 C43.4339478,8.54982219 43.0898618,8.54256477 42.7450077,8.52804993 M43.6981567,2.01451484 C42.9631336,1.98548516 42.2242704,2.01088613 41.4900154,2 C40.0084485,5.33841353 38.4777266,8.6586835 37,12 C37.9070661,12 38.8141321,11.9963713 39.7250384,12 C39.9124424,11.5079469 40.1228879,11.0275056 40.3110599,10.5354525 L44.56298,10.5354525 C44.735023,11.0275056 44.9462366,11.5050439 45.1259601,11.9963713 C46.0829493,12 47.0437788,12 48,11.9963713 C46.5721966,8.66521518 45.1067588,5.35292837 43.6981567,2.01451484" id="Fill-7" fill="#FFFFFF"></path>
                <path d="M38.0415861,22.7670152 C37.1353698,23.0129823 36.1835217,22.879478 35.2559155,22.9157563 C35.2630455,22.2286448 35.2630455,21.5451611 35.2559155,20.8616773 C36.1728268,20.8979557 37.1211099,20.7390566 38.0130663,21.0314599 C38.7310521,21.2846827 38.7595719,22.4956533 38.0415861,22.7670152 M35.2594805,16.9530502 C35.9311216,16.9711893 36.6205875,16.8768657 37.2744037,17.0720431 C38.059411,17.3143823 37.9781296,18.6740941 37.1924093,18.8511323 C36.556418,18.9962457 35.8990368,18.923689 35.2559155,18.9382003 C35.2666104,18.2764836 35.2594805,17.6147669 35.2594805,16.9530502 M40.660416,20.7862184 C40.2875197,20.127404 39.5802289,19.7225378 38.8515482,19.6035449 C39.4062582,19.3067882 39.9317353,18.8656437 40.106419,18.2293218 C40.2803898,17.4558678 40.2803898,16.5155335 39.6871781,15.91549 C39.015537,15.2029836 37.9923895,15.0477123 37.0647833,15.0078062 C35.7108062,14.9932948 34.3539771,15.0041783 33,15.0005505 L33,24.9945046 C34.5956823,24.9945046 36.1870867,25.0090159 37.782056,24.9908768 C38.8094815,24.9509706 39.9816449,24.6650974 40.5855515,23.74 C41.1010468,22.857711 41.1466784,21.6895488 40.660416,20.7862184" id="Fill-9" fill="#FFFFFF"></path>
                <path d="M42,15.003628 C42.006071,18.3311911 42.0045532,21.6602054 42,24.9892196 C44.6666667,25.0073594 47.3333333,24.9979267 50,24.9942988 C49.9946879,24.2962797 49.9931702,23.5982605 50,22.900967 C48.1900968,22.8995158 46.3794346,22.8987902 44.5672548,22.9031438 C44.5566306,22.2617208 44.5649782,21.6210234 44.5627016,20.9810516 C46.0371846,20.9817772 47.5124265,20.9781492 48.9869095,20.9817772 C49.047619,20.3033491 48.9967748,19.6227441 49.024853,18.9428648 C47.538228,18.8637753 46.046291,18.9341577 44.5581484,18.9065852 C44.5664959,18.3021674 44.5627016,17.697024 44.560425,17.0933318 C46.3316259,17.0918806 48.1035857,17.0955086 49.8763043,17.091155 C49.8763043,16.3945871 49.8717511,15.6965679 49.8800987,15 C47.2528932,15.003628 44.6264466,14.9978232 42,15.003628" id="Fill-11" fill="#FFFFFF"></path>
                <path d="M52,15.0052982 C52.0059247,18.3363482 52.0059247,21.6666724 52,24.9984481 C54.3335802,25.0006253 56.6664198,25.0006253 59,24.9977224 C59,24.298855 58.9985188,23.6007134 58.9985188,22.9018461 C57.4980956,22.9025718 55.9976725,22.8974918 54.4987304,22.9054747 C54.4883623,20.2696635 54.4928058,17.6353037 54.4950275,15.0009439 C53.6648328,15.0031211 52.8324164,14.9951382 52,15.0052982" id="Fill-13" fill="#FFFFFF"></path>
                <path d="M61,15.0007256 C61.0089125,18.3340589 61.0044562,21.6666667 61.0029708,25 C63.3343236,24.9985488 65.6656764,24.9985488 67.9977719,25 C68,24.2998113 67.9955438,23.6017994 68,22.9023364 C66.4937931,22.9001596 64.9883289,22.899434 63.4813793,22.9037875 C63.4791512,20.2691917 63.4828647,17.6345958 63.4798939,15 C62.6532626,15.0007256 61.8266313,15.0021768 61,15.0007256" id="Fill-15" fill="#FFFFFF"></path>
                <path d="M49.6530831,3.3726628 C50.4103388,2.6588245 51.4101651,2.25146694 52.4302056,2.08051538 C53.7044788,1.89339272 55.0673835,2.01198074 56.203267,2.65343414 C56.8221331,2.9884068 57.3360407,3.47970004 57.7893057,4.01103598 C57.108242,4.54391203 56.3774203,5.00825345 55.6878045,5.52880866 C55.3682644,5.11760084 54.9849717,4.71948391 54.4780613,4.54468208 C53.4261445,4.15272557 52.0857864,4.43610474 51.4023904,5.35400684 C50.7329888,6.21877534 50.6249204,7.40234541 50.8464994,8.44268579 C51.0222076,9.31900508 51.6130847,10.1360303 52.483851,10.440971 C53.6648278,10.7975051 55.0899301,10.4948746 55.8370787,9.46685508 C56.5500186,10.0089718 57.2777305,10.5333772 58,11.0639431 C57.1471155,12.0288184 55.9630288,12.7103145 54.6763161,12.8935869 C52.8904678,13.2116184 50.8620488,12.8335228 49.5403499,11.5329049 C48.4635541,10.4817837 47.975303,8.94552981 48.0009595,7.47088005 C47.9815228,5.96619825 48.5195319,4.40607271 49.6530831,3.3726628" id="Fill-17" fill="#FFFFFF"></path>
                <path d="M65.1221366,10.0622901 C64.4647525,10.5881684 63.5544083,10.6489947 62.7525871,10.4919242 C61.8422428,10.2809569 61.1458217,9.51331315 60.9045726,8.64249561 C60.6086717,7.61383759 60.698457,6.44812781 61.2699595,5.53034311 C61.6166086,4.9859859 62.1803038,4.58714993 62.8189501,4.45240805 C63.760524,4.22989145 64.8574654,4.48320619 65.4875235,5.23545087 C66.0246735,5.84525413 66.219078,6.67449418 66.2346929,7.46446658 C66.2385966,8.42382879 65.9317653,9.46326617 65.1221366,10.0622901 M68.5144572,5.1238076 C68.1100332,4.1644454 67.3979973,3.33212554 66.4954604,2.79546787 C65.1845959,2.00857528 63.5505046,1.81993664 62.067877,2.16564581 C60.3947486,2.50673527 58.9472544,3.74636058 58.3757519,5.33862466 C57.9752316,6.3172357 57.944002,7.4028703 58.0564287,8.44307763 C58.2703518,10.0584403 59.2587702,11.5891081 60.737494,12.3529021 C62.402815,13.1967712 64.4764637,13.2198698 66.152715,12.3952495 C67.2114001,11.873221 68.0483547,10.960056 68.5105535,9.88905052 C69.1562264,8.38918088 69.1687183,6.62829696 68.5144572,5.1238076" id="Fill-19" fill="#FFFFFF"></path>
                <path d="M30,2.00163336 C32.9992378,1.99945555 35.9984756,1.99945555 38.9984756,2.00163336 C38.9954268,2.69708354 38.992378,3.39325965 39,4.08870982 C37.9199695,4.1010508 36.8391768,4.09233952 35.7599085,4.09451734 C35.7583841,6.72967823 35.7545732,9.36411317 35.7606707,11.9985481 C34.9115854,12 34.0609756,11.9985481 33.2118902,12 C33.2080793,9.36411317 33.2118902,6.72677447 33.2088415,4.09088764 C32.1402439,4.09814704 31.0708841,4.09306546 30.0022866,4.09451734 C29.9984756,3.39761529 30.0007622,2.69926136 30,2.00163336" id="Fill-21" fill="#FFFFFF"></path>
                <path d="M42.7450077,8.52804993 C42.1981567,8.52442122 41.6543779,8.57159446 41.1067588,8.56070832 C41.5698925,7.37484578 42.0253456,6.18462878 42.4923195,4.9980405 C42.9132104,6.17011394 43.3310292,7.3458161 43.7749616,8.50990638 C43.4339478,8.54982219 43.0898618,8.54256477 42.7450077,8.52804993 M43.6981567,2.01451484 C42.9631336,1.98548516 42.2242704,2.01088613 41.4900154,2 C40.0084485,5.33841353 38.4777266,8.6586835 37,12 C37.9070661,12 38.8141321,11.9963713 39.7250384,12 C39.9124424,11.5079469 40.1228879,11.0275056 40.3110599,10.5354525 L44.56298,10.5354525 C44.735023,11.0275056 44.9462366,11.5050439 45.1259601,11.9963713 C46.0829493,12 47.0437788,12 48,11.9963713 C46.5721966,8.66521518 45.1067588,5.35292837 43.6981567,2.01451484" id="Fill-23" fill="#FFFFFF"></path>
                <path d="M38.0415861,22.7670152 C37.1353698,23.0129823 36.1835217,22.879478 35.2559155,22.9157563 C35.2630455,22.2286448 35.2630455,21.5451611 35.2559155,20.8616773 C36.1728268,20.8979557 37.1211099,20.7390566 38.0130663,21.0314599 C38.7310521,21.2846827 38.7595719,22.4956533 38.0415861,22.7670152 M35.2594805,16.9530502 C35.9311216,16.9711893 36.6205875,16.8768657 37.2744037,17.0720431 C38.059411,17.3143823 37.9781296,18.6740941 37.1924093,18.8511323 C36.556418,18.9962457 35.8990368,18.923689 35.2559155,18.9382003 C35.2666104,18.2764836 35.2594805,17.6147669 35.2594805,16.9530502 M40.660416,20.7862184 C40.2875197,20.127404 39.5802289,19.7225378 38.8515482,19.6035449 C39.4062582,19.3067882 39.9317353,18.8656437 40.106419,18.2293218 C40.2803898,17.4558678 40.2803898,16.5155335 39.6871781,15.91549 C39.015537,15.2029836 37.9923895,15.0477123 37.0647833,15.0078062 C35.7108062,14.9932948 34.3539771,15.0041783 33,15.0005505 L33,24.9945046 C34.5956823,24.9945046 36.1870867,25.0090159 37.782056,24.9908768 C38.8094815,24.9509706 39.9816449,24.6650974 40.5855515,23.74 C41.1010468,22.857711 41.1466784,21.6895488 40.660416,20.7862184" id="Fill-25" fill="#FFFFFF"></path>
                <path d="M42,15.003628 C44.6264466,14.9978232 47.2528932,15.003628 49.8800987,15 C49.8717511,15.6965679 49.8763043,16.3945871 49.8763043,17.091155 C48.1035857,17.0955086 46.3316259,17.0918806 44.560425,17.0933318 C44.5627016,17.697024 44.5664959,18.3021674 44.5581484,18.9065852 C46.046291,18.9341577 47.538228,18.8637753 49.024853,18.9428648 C48.9967748,19.6227441 49.047619,20.3033491 48.9869095,20.9817772 C47.5124265,20.9781492 46.0371846,20.9817772 44.5627016,20.9810516 C44.5649782,21.6210234 44.5566306,22.2617208 44.5672548,22.9031438 C46.3794346,22.8987902 48.1900968,22.8995158 50,22.900967 C49.9931702,23.5982605 49.9946879,24.2962797 50,24.9942988 C47.3333333,24.9979267 44.6666667,25.0073594 42,24.9892196 C42.0045532,21.6602054 42.006071,18.3311911 42,15.003628" id="Fill-27" fill="#FFFFFF"></path>
                <path d="M52,15.0052982 C52.8324164,14.9951382 53.6648328,15.0031211 54.4950275,15.0009439 C54.4928058,17.6353037 54.4883623,20.2696635 54.4987304,22.9054747 C55.9976725,22.8974918 57.4980956,22.9025718 58.9985188,22.9018461 C58.9985188,23.6007134 59,24.298855 59,24.9977224 C56.6664198,25.0006253 54.3335802,25.0006253 52,24.9984481 C52.0059247,21.6666724 52.0059247,18.3363482 52,15.0052982" id="Fill-29" fill="#FFFFFF"></path>
                <path d="M61,15.0007256 C61.8266313,15.0021768 62.6532626,15.0007256 63.4798939,15 C63.4828647,17.6345958 63.4791512,20.2691917 63.4813793,22.9037875 C64.9883289,22.899434 66.4937931,22.9001596 68,22.9023364 C67.9955438,23.6017994 68,24.2998113 67.9977719,25 C65.6656764,24.9985488 63.3343236,24.9985488 61.0029708,25 C61.0044562,21.6666667 61.0089125,18.3340589 61,15.0007256" id="Fill-31" fill="#FFFFFF"></path>
                <g id="Group-35" transform="translate(7.000000, 0.000000)">
                    <mask id="mask-2" fill="white">
                        <use xlink:href="#path-1"></use>
                    </mask>
                    <g id="Clip-34"></g>
                    <path d="M0.362074074,1.80121333 C0.679851852,1.80048 1.02948148,1.74768 1.31466667,1.92368 C1.6642963,2.11508 1.82503704,2.51548 2.15911111,2.72228 C2.63466667,2.90488 3.14651852,2.73034667 3.63096296,2.67754667 C5.18133333,2.49934667 6.78355556,2.80148 8.17096296,3.50768 C9.06577778,3.97334667 9.87318519,4.58788 10.6146667,5.26474667 C11.7554074,6.25768 12.6924444,7.45374667 13.8228148,8.45841333 C14.190963,8.78328 14.6146667,9.04874667 15.0754074,9.22621333 C16.1517037,9.64494667 17.3420741,9.61194667 18.4272593,10.0035467 C18.7694815,10.1172133 19.0754074,10.3064133 19.385037,10.4868133 C19.1983704,9.88328 18.9998519,9.28414667 18.7472593,8.70481333 C17.6317037,6.10148 15.6591111,3.87361333 13.2087407,2.42454667 C10.8391111,1.00774667 8.02577778,0.354346667 5.26651852,0.55528 C3.56725926,0.644746667 1.91096296,1.12141333 0.362074074,1.80121333" id="Fill-33" fill="#FFFFFF" mask="url(#mask-2)"></path>
                </g>
                <g id="Group-38" transform="translate(0.000000, 4.000000)">
                    <mask id="mask-4" fill="white">
                        <use xlink:href="#path-3"></use>
                    </mask>
                    <g id="Clip-37"></g>
                    <path d="M1.19023333,5.94174333 C0.358788889,7.80627667 -0.0285444444,9.85097667 0.0049,11.8841767 C0.00567777778,15.40241 0.0111222222,18.9206433 0.00178888889,22.4396433 C-0.0161,22.6305433 0.101344444,22.79231 0.181455556,22.9571433 C1.56201111,23.04071 2.94878889,22.9732433 4.33167778,22.9931767 C3.65267778,22.7493767 2.87334444,22.3499433 2.7419,21.57331 C2.52801111,20.4547433 3.07401111,19.3668433 3.65967778,18.4445433 C4.60001111,17.0016767 5.84523333,15.7849767 7.12934444,14.6403433 C8.68723333,13.3101767 10.4107889,12.1831767 12.1786778,11.14511 C12.6531222,10.8445767 13.1983444,10.60691 13.5390111,10.1461433 C13.2294556,10.1714433 12.9253444,10.2465767 12.6430111,10.3761433 C11.4662333,10.88061 10.3509,11.5115767 9.2519,12.1609433 C8.20267778,12.80111 7.14567778,13.4351433 6.15867778,14.1680767 C5.46878889,14.6556767 4.82478889,15.20001 4.15667778,15.7159767 C4.00967778,14.61121 3.74212222,13.5271433 3.46134444,12.44921 C3.11678889,11.0178433 2.89278889,9.54201 2.98923333,8.06694333 C3.06078889,6.55737667 3.54923333,5.05777667 4.46001111,3.83494333 C4.81078889,3.32894333 5.29301111,2.92491 5.62512222,2.40587667 C5.91056667,1.96274333 5.48123333,1.50427667 5.51778889,1.04197667 C5.51156667,0.688543333 5.74878889,0.407176667 5.94478889,0.13501 C3.86656667,1.59934333 2.20445556,3.63177667 1.19023333,5.94174333" id="Fill-36" fill="#FFFFFF" mask="url(#mask-4)"></path>
                </g>
                <path d="M23.3748449,19.5789563 C21.7432135,20.8813322 19.9642821,22.002327 18.1015029,22.9560646 C15.571719,24.3454143 12.8493118,25.4359311 10,25.9860214 C15.8277944,26.0105525 21.6570996,25.9904816 27.4841387,25.9956851 C27.7462572,26.03211 28.0144189,25.8336315 27.9955342,25.5623032 C28.0030881,22.2996731 27.9955342,19.037043 27.9985558,15.7736695 C28.0000666,15.1819508 28.006865,14.590232 27.9690958,14 C27.0565908,16.2702375 25.247444,18.0424203 23.3748449,19.5789563" id="Fill-39" fill="#FFFFFF"></path>
                <g id="Group-43" transform="translate(7.000000, 0.000000)">
                    <mask id="mask-6" fill="white">
                        <use xlink:href="#path-5"></use>
                    </mask>
                    <g id="Clip-42"></g>
                    <path d="M0.362074074,1.80121333 C1.91096296,1.12141333 3.56725926,0.644746667 5.26651852,0.55528 C8.02577778,0.354346667 10.8391111,1.00774667 13.2087407,2.42454667 C15.6591111,3.87361333 17.6317037,6.10148 18.7472593,8.70481333 C18.9998519,9.28414667 19.1983704,9.88328 19.385037,10.4868133 C19.0754074,10.3064133 18.7694815,10.1172133 18.4272593,10.0035467 C17.3420741,9.61194667 16.1517037,9.64494667 15.0754074,9.22621333 C14.6146667,9.04874667 14.190963,8.78328 13.8228148,8.45841333 C12.6924444,7.45374667 11.7554074,6.25768 10.6146667,5.26474667 C9.87318519,4.58788 9.06577778,3.97334667 8.17096296,3.50768 C6.78355556,2.80148 5.18133333,2.49934667 3.63096296,2.67754667 C3.14651852,2.73034667 2.63466667,2.90488 2.15911111,2.72228 C1.82503704,2.51548 1.6642963,2.11508 1.31466667,1.92368 C1.02948148,1.74768 0.679851852,1.80048 0.362074074,1.80121333" id="Fill-41" fill="#FFFFFF" mask="url(#mask-6)"></path>
                </g>
                <g id="Group-46" transform="translate(0.000000, 4.000000)">
                    <mask id="mask-8" fill="white">
                        <use xlink:href="#path-7"></use>
                    </mask>
                    <g id="Clip-45"></g>
                    <path d="M1.19023333,5.94174333 C2.20445556,3.63177667 3.86656667,1.59934333 5.94478889,0.13501 C5.74878889,0.407176667 5.51156667,0.688543333 5.51778889,1.04197667 C5.48123333,1.50427667 5.91056667,1.96274333 5.62512222,2.40587667 C5.29301111,2.92491 4.81078889,3.32894333 4.46001111,3.83494333 C3.54923333,5.05777667 3.06078889,6.55737667 2.98923333,8.06694333 C2.89278889,9.54201 3.11678889,11.0178433 3.46134444,12.44921 C3.74212222,13.5271433 4.00967778,14.61121 4.15667778,15.7159767 C4.82478889,15.20001 5.46878889,14.6556767 6.15867778,14.1680767 C7.14567778,13.4351433 8.20267778,12.80111 9.2519,12.1609433 C10.3509,11.5115767 11.4662333,10.88061 12.6430111,10.3761433 C12.9253444,10.2465767 13.2294556,10.1714433 13.5390111,10.1461433 C13.1983444,10.60691 12.6531222,10.8445767 12.1786778,11.14511 C10.4107889,12.1831767 8.68723333,13.3101767 7.12934444,14.6403433 C5.84523333,15.7849767 4.60001111,17.0016767 3.65967778,18.4445433 C3.07401111,19.3668433 2.52801111,20.4547433 2.7419,21.57331 C2.87334444,22.3499433 3.65267778,22.7493767 4.33167778,22.9931767 C2.94878889,22.9732433 1.56201111,23.04071 0.181455556,22.9571433 C0.101344444,22.79231 -0.0161,22.6305433 0.00178888889,22.4396433 C0.0111222222,18.9206433 0.00567777778,15.40241 0.0049,11.8841767 C-0.0285444444,9.85097667 0.358788889,7.80627667 1.19023333,5.94174333" id="Fill-44" fill="#FFFFFF" mask="url(#mask-8)"></path>
                </g>
                <path d="M23.3748449,19.5789563 C25.247444,18.0424203 27.0565908,16.2702375 27.9690958,14 C28.006865,14.590232 28.0000666,15.1819508 27.9985558,15.7736695 C27.9955342,19.037043 28.0030881,22.2996731 27.9955342,25.5623032 C28.0144189,25.8336315 27.7462572,26.03211 27.4841387,25.9956851 C21.6570996,25.9904816 15.8277944,26.0105525 10,25.9860214 C12.8493118,25.4359311 15.571719,24.3454143 18.1015029,22.9560646 C19.9642821,22.002327 21.7432135,20.8813322 23.3748449,19.5789563" id="Fill-47" fill="#FFFFFF"></path>
                <path d="M14.0733566,20.8672278 C13.7148403,21.7501239 12.9699476,22.4450583 12.0872205,22.7588272 C10.9082958,23.1729421 9.52995105,22.8509359 8.64355807,21.9538116 C10.2169239,20.3684926 12.0798888,19.1081752 14.011771,18.0223403 C14.4172096,18.9089807 14.464132,19.9693547 14.0733566,20.8672278 M23.7027076,14.2353974 C23.2723415,13.9575734 22.7364,13.980039 22.2517798,14.0324586 C20.7722587,14.2166761 19.357989,14.737128 17.9833101,15.2987668 C14.9054956,16.6219877 11.9317901,18.2552332 9.28727439,20.3535156 C8.23518678,21.214695 7.19336343,22.1275452 6.41181263,23.2613066 C6.1764676,23.637979 5.88027011,24.1000205 6.05036371,24.5658062 C6.26371389,24.8683423 6.66475356,24.9237573 7.00127496,24.9686884 C8.18753124,25.0795185 9.37818649,24.8795751 10.5351163,24.6287098 C12.8761029,24.0850435 15.1364416,23.1841749 17.191495,21.9201133 C18.7355344,21.0110073 20.2297188,19.9948156 21.5684728,18.7869179 C22.3206971,18.0919835 23.0443281,17.342383 23.5612074,16.4445098 C23.8002182,16.0124224 24.0099026,15.5391482 23.9996383,15.0329244 C24.0025709,14.7491097 23.9739776,14.394154 23.7027076,14.2353974" id="Fill-49" fill="#FFFFFF"></path>
            </g>
        </g>
    </g>
</svg>