<?xml version="1.0" encoding="UTF-8"?>
<svg width="85px" height="32px" viewBox="0 0 85 32" version="1.1" xmlns="http://www.w3.org/2000/svg" xmlns:xlink="http://www.w3.org/1999/xlink">
    <!-- Generator: Sketch 49.3 (51167) - http://www.bohemiancoding.com/sketch -->
    <title>umg</title>
    <desc>Created with Sketch.</desc>
    <defs></defs>
    <g id="Page-1" stroke="none" stroke-width="1" fill="none" fill-rule="evenodd">
        <g id="Desktop-HD" transform="translate(-337.000000, -596.000000)" fill="#FEFEFE">
            <g id="umg" transform="translate(337.000000, 596.000000)">
                <path d="M0,29 L0.506835516,29 L0.506835516,30.5983108 C0.506835516,30.8516892 0.513167362,31.0165541 0.525831055,31.0915541 C0.547129083,31.2121622 0.598935099,31.3091216 0.680385667,31.3824324 C0.761836235,31.4557432 0.873219168,31.4918919 1.01453447,31.4918919 C1.15786444,31.4918919 1.26636926,31.4574324 1.33918549,31.3881757 C1.41228954,31.3189189 1.45632465,31.2344595 1.47100302,31.1334459 C1.4859692,31.0331081 1.49316448,30.8662162 1.49316448,30.6327703 L1.49316448,29 L2,29 L2,30.5496622 C2,30.9033784 1.98618506,31.1533784 1.958843,31.3 C1.93150094,31.4462838 1.88113398,31.5695946 1.80745431,31.6699324 C1.73377464,31.7709459 1.63563103,31.8506757 1.51216002,31.9101351 C1.38926464,31.9702703 1.22837818,32 1.03007627,32 C0.790617355,32 0.608720679,31.9675676 0.485249676,31.9023649 C0.361490862,31.8375 0.263635055,31.7527027 0.191682256,31.6493243 C0.120017269,31.5452703 0.0725284214,31.4361486 0.0497913369,31.3219595 C0.0166930494,31.1530405 0,30.9033784 0,30.5733108 L0,29 Z" id="Fill-1"></path>
                <polygon id="Fill-3" points="4 32 4 29 4.49306358 29 5.52947977 31.013176 5.52947977 29 6 29 6 32 5.4916185 32 4.47023121 30.0297892 4.47023121 32"></polygon>
                <polygon id="Fill-5" points="9 32 10 32 10 29 9 29"></polygon>
                <polygon id="Fill-7" points="12.1498953 32 11 29 11.7053824 29 12.520877 31.2214711 13.3090282 29 14 29 12.8504742 32"></polygon>
                <polygon id="Fill-8" points="15 32 15 29 16.9480755 29 16.9480755 29.5073327 15.5316226 29.5073327 15.5316226 30.1714024 16.850566 30.1714024 16.850566 30.6783914 15.5316226 30.6783914 15.5316226 31.493011 17 31.493011 17 32"></polygon>
                <path d="M20.4495788,30.2691647 L20.7817207,30.2691647 C20.9966811,30.2691647 21.1312229,30.257133 21.18458,30.2323823 C21.2381925,30.2079752 21.2803166,30.1653489 21.3104417,30.1051908 C21.3408221,30.0450327 21.3561399,29.9704366 21.3561399,29.8796837 C21.3561399,29.7789618 21.3359714,29.6971468 21.296145,29.6349261 C21.2563186,29.5727054 21.1998979,29.5335167 21.1271381,29.5170162 C21.0908859,29.5104847 20.9816186,29.5070471 20.7998468,29.5070471 L20.4495788,29.5070471 L20.4495788,30.2691647 Z M20,32 L20,29 L20.9458769,29 C21.1835588,29 21.3563952,29.0268133 21.4641307,29.0807838 C21.5718662,29.1347542 21.6581568,29.2303197 21.7230023,29.3681678 C21.7878478,29.5060158 21.8200153,29.6634582 21.8200153,29.8408388 C21.8200153,30.0660021 21.7709982,30.2516329 21.672964,30.3987625 C21.5749298,30.5452045 21.4281338,30.6373324 21.2330865,30.6754899 C21.3300996,30.7518047 21.410263,30.8360261 21.4733214,30.9274665 C21.5363799,31.0192506 21.6213939,31.1815057 21.7283635,31.4149192 L22,32 L21.4625989,32 L21.1393924,31.3471983 C21.0237427,31.1137848 20.9446005,30.9666552 20.9022211,30.9058096 C20.8595864,30.8453077 20.8149094,30.8037126 20.7671688,30.7806806 C20.7196834,30.75868 20.6441154,30.7469921 20.5407199,30.7469921 L20.4495788,30.7469921 L20.4495788,32 L20,32 Z" id="Fill-9"></path>
                <path d="M25,31.0075288 L25.4831477,30.9503986 C25.5121986,31.1420505 25.5714286,31.2825509 25.6602736,31.3722321 C25.7491186,31.4622453 25.8692709,31.5070859 26.0201664,31.5070859 C26.1800874,31.5070859 26.3008038,31.4672276 26.3817515,31.3871789 C26.4629812,31.3071302 26.5033141,31.2141275 26.5033141,31.1068423 C26.5033141,31.0387511 26.4863912,30.9802923 26.4522634,30.9317981 C26.4181357,30.883636 26.3586236,30.8421169 26.2740093,30.8065766 C26.2159075,30.7823295 26.0836271,30.7401461 25.8768862,30.6793623 C25.6111973,30.6019708 25.4247638,30.5063109 25.3173036,30.3927148 C25.1666902,30.2332817 25.0913834,30.0383082 25.0913834,29.8094553 C25.0913834,29.6613153 25.1266394,29.5231399 25.1977154,29.394597 C25.2687914,29.266054 25.3708927,29.1680691 25.5045833,29.1009743 C25.6382739,29.0335474 25.7993231,29 25.988013,29 C26.2965731,29 26.5286984,29.0800487 26.6846707,29.2401461 C26.840361,29.4005757 26.9224369,29.6144818 26.9303342,29.8818645 L26.4336483,29.9041187 C26.4124947,29.7546501 26.366803,29.6473649 26.2971372,29.5819309 C26.2274714,29.5164969 26.1228318,29.4836138 25.9832182,29.4836138 C25.8393739,29.4836138 25.7265548,29.518822 25.6453251,29.5889061 C25.5925821,29.6337467 25.5666338,29.6938663 25.5666338,29.7689327 C25.5666338,29.8376882 25.5908899,29.8964792 25.6402482,29.9456377 C25.7025807,30.0077502 25.8546044,30.0725199 26.0957552,30.1396147 C26.3366239,30.2067095 26.5151601,30.2764615 26.6307996,30.3485385 C26.7464391,30.4199513 26.8366944,30.5179362 26.9021295,30.6424934 C26.9672825,30.7673826 27,30.9211692 27,31.1045173 C27,31.2709256 26.9607954,31.426705 26.8826682,31.5708592 C26.8042589,31.7160097 26.6934142,31.8236271 26.550416,31.8947077 C26.4071358,31.965124 26.2285996,32 26.0150896,32 C25.704273,32 25.4650966,31.9153012 25.2986885,31.7465678 C25.1317163,31.5778344 25.0324355,31.3313773 25,31.0075288" id="Fill-10"></path>
                <path d="M30.8925346,30.8123066 L30.4771922,29.6998969 L30.072482,30.8123066 L30.8925346,30.8123066 Z M32,32 L31.3432034,32 L31.0835715,31.3196975 L29.8883046,31.3196975 L29.6406768,32 L29,32 L30.1640562,29 L30.8074768,29 L32,32 Z" id="Fill-11"></path>
                <polygon id="Fill-12" points="34 32 34 29 34.5737091 29 34.5737091 31.4885576 36 31.4885576 36 32"></polygon>
                <polygon id="Fill-13" points="41 32 41 29 41.94082 29 42.5016043 31.0468607 43.05918 29 44 29 44 32 43.4196078 32 43.4178253 29.6382906 42.8003565 32 42.1953654 32 41.5821747 29.6382906 41.5803922 32"></polygon>
                <path d="M46,29 L46.5069085,29 L46.5069085,30.5983108 C46.5069085,30.8516892 46.5129534,31.0165541 46.5256189,31.0915541 C46.5472078,31.2121622 46.5987334,31.3091216 46.6801957,31.3824324 C46.761658,31.4557432 46.8733448,31.4918919 47.0143926,31.4918919 C47.1577432,31.4918919 47.2662637,31.4574324 47.3393782,31.3881757 C47.412205,31.3189189 47.4562464,31.2344595 47.470639,31.1334459 C47.4858952,31.0331081 47.4930915,30.8662162 47.4930915,30.6327703 L47.4930915,29 L48,29 L48,30.5496622 C48,30.9033784 47.9864709,31.1533784 47.9588371,31.3 C47.9314911,31.4462838 47.8811169,31.5695946 47.8074266,31.6699324 C47.7337363,31.7709459 47.6358664,31.8506757 47.5123777,31.9101351 C47.3891767,31.9702703 47.228555,32 47.0299367,32 C46.7901554,32 46.6085204,31.9675676 46.4850317,31.9023649 C46.361255,31.8375 46.2633851,31.7527027 46.191422,31.6493243 C46.1194588,31.5452703 46.0725389,31.4361486 46.0495107,31.3219595 C46.0164076,31.1530405 46,30.9033784 46,30.5733108 L46,29 Z" id="Fill-14"></path>
                <path d="M51,31.0075288 L51.4829337,30.9503986 C51.5119887,31.1420505 51.5712271,31.2825509 51.6598025,31.3722321 C51.7489422,31.4622453 51.8691114,31.5070859 52.0200282,31.5070859 C52.1802539,31.5070859 52.3004231,31.4672276 52.3819464,31.3871789 C52.4629055,31.3071302 52.503244,31.2141275 52.503244,31.1068423 C52.503244,31.0387511 52.4863188,30.9802923 52.4521862,30.9317981 C52.4183357,30.883636 52.3588152,30.8421169 52.274189,30.8065766 C52.2157969,30.7823295 52.0834979,30.7401461 51.8767278,30.6793623 C51.6107193,30.6019708 51.4245416,30.5063109 51.3173484,30.3927148 C51.1664316,30.2332817 51.0911142,30.0383082 51.0911142,29.8094553 C51.0911142,29.6613153 51.1263752,29.5231399 51.1974612,29.394597 C51.2685472,29.266054 51.3703808,29.1680691 51.5043724,29.1009743 C51.6380818,29.0335474 51.7991537,29 51.9881523,29 C52.2964739,29 52.528914,29.0800487 52.6846262,29.2401461 C52.8406206,29.4005757 52.922426,29.6144818 52.9303244,29.8818645 L52.4335684,29.9041187 C52.4124118,29.7546501 52.3667137,29.6473649 52.2973202,29.5819309 C52.2273625,29.5164969 52.122708,29.4836138 51.9830748,29.4836138 C51.8394922,29.4836138 51.7263752,29.518822 51.645134,29.5889061 C51.5926657,29.6337467 51.5661495,29.6938663 51.5661495,29.7689327 C51.5661495,29.8376882 51.5909732,29.8964792 51.6400564,29.9456377 C51.7023977,30.0077502 51.8544429,30.0725199 52.0956276,30.1396147 C52.3368124,30.2067095 52.5148096,30.2764615 52.6307475,30.3485385 C52.7464034,30.4199513 52.8369535,30.5179362 52.9021157,30.6424934 C52.9675599,30.7673826 53,30.9211692 53,31.1045173 C53,31.2709256 52.9610719,31.426705 52.8829337,31.5708592 C52.8042313,31.7160097 52.6933709,31.8236271 52.5503526,31.8947077 C52.4067701,31.965124 52.2287729,32 52.0152327,32 C51.7038082,32 51.4651622,31.9153012 51.2984485,31.7465678 C51.1314528,31.5778344 51.032158,31.3313773 51,31.0075288" id="Fill-15"></path>
                <polygon id="Fill-16" points="55 32 56 32 56 29 55 29"></polygon>
                <path d="M59.5507514,30.8831874 L60,31.0604012 C59.9309254,31.3782556 59.8162404,31.614319 59.6559452,31.7689239 C59.4959135,31.9228638 59.2926443,32 59.0461376,32 C58.741102,32 58.4906407,31.8690014 58.2942262,31.6053419 C58.0980754,31.3423473 58,30.9826 58,30.5261 C58,30.0436662 58.098339,29.6682921 58.2955444,29.4009753 C58.4932771,29.1336584 58.7524387,29 59.0735566,29 C59.3546006,29 59.5823886,29.1050648 59.7574479,29.3145295 C59.8618508,29.4385459 59.9404166,29.6164247 59.9923543,29.8481658 L59.5333509,29.9878089 C59.5061956,29.8371938 59.4497759,29.7181647 59.3638281,29.631054 C59.2781439,29.5436108 59.1734775,29.5000554 59.0506196,29.5000554 C58.8810968,29.5000554 58.7434748,29.5771916 58.6374901,29.7317965 C58.5322963,29.8864014 58.4795676,30.1367616 58.4795676,30.4825446 C58.4795676,30.8492741 58.5315054,31.1112712 58.6356446,31.2668735 C58.7400475,31.4221434 58.8752966,31.4999446 59.042183,31.4999446 C59.1655682,31.4999446 59.2712892,31.450737 59.3598735,31.3513244 C59.4484577,31.2519118 59.5122594,31.0963094 59.5507514,30.8831874" id="Fill-17"></path>
                <path d="M66.6029917,30.8861798 L66.6029917,30.3951014 L68,30.3951014 L68,31.5511471 C67.8642717,31.6698437 67.6682197,31.7745761 67.4100049,31.8646792 C67.1528936,31.9551147 66.892104,32 66.6276361,32 C66.2925454,32 65.999387,31.9361631 65.7507357,31.8088219 C65.500613,31.6821456 65.3133889,31.4996121 65.187592,31.2628837 C65.0625307,31.0258229 65,30.7684805 65,30.4901917 C65,30.1879641 65.0695194,29.9196498 65.2096616,29.6845838 C65.3498038,29.4501829 65.5546837,29.2696442 65.824669,29.1442979 C66.0299166,29.0482101 66.2866601,29 66.5926925,29 C66.9910495,29 67.3022315,29.0758063 67.5258705,29.2270863 C67.7498774,29.3783664 67.8936979,29.5871661 67.9584355,29.8541505 L67.3143698,29.9622077 C67.2687592,29.8192397 67.1837911,29.7065278 67.0587298,29.6240718 C66.9347719,29.5412834 66.779181,29.5000554 66.5926925,29.5000554 C66.3102011,29.5000554 66.0854586,29.5811814 65.9188328,29.7434334 C65.752207,29.9056855 65.6683423,30.1470686 65.6683423,30.4659204 C65.6683423,30.810706 65.7525748,31.0693783 65.9221432,31.2412723 C66.090976,31.4138313 66.312408,31.4999446 66.5868073,31.4999446 C66.7221677,31.4999446 66.8582639,31.4760058 66.9939922,31.4277956 C67.1308239,31.379918 67.247793,31.3217333 67.3456351,31.2532417 L67.3456351,30.8861798 L66.6029917,30.8861798 Z" id="Fill-18"></path>
                <path d="M69.4494382,30.2691647 L69.781665,30.2691647 C69.9966803,30.2691647 70.1312564,30.257133 70.1851379,30.2323823 C70.2385087,30.2079752 70.2803882,30.1653489 70.3107763,30.1051908 C70.3411645,30.0450327 70.3562308,29.9704366 70.3562308,29.8796837 C70.3562308,29.7789618 70.3363126,29.6971468 70.2962206,29.6349261 C70.2563841,29.5727054 70.1999489,29.5335167 70.1271706,29.5170162 C70.0909091,29.5104847 69.9821246,29.5070471 69.7995403,29.5070471 L69.4494382,29.5070471 L69.4494382,30.2691647 Z M69,32 L69,29 L69.9456078,29 C70.1836057,29 70.3567416,29.0268133 70.4645046,29.0807838 C70.5720123,29.1347542 70.6588355,29.2303197 70.7231869,29.3681678 C70.788049,29.5060158 70.8204801,29.6634582 70.8204801,29.8408388 C70.8204801,30.0660021 70.7711951,30.2516329 70.6733912,30.3987625 C70.5750766,30.5452045 70.4284985,30.6373324 70.2334014,30.6754899 C70.3301839,30.7518047 70.4101124,30.8360261 70.4734423,30.9274665 C70.5367722,31.0192506 70.6215526,31.1815057 70.7288049,31.4149192 L71,32 L70.4624617,32 L70.1396834,31.3471983 C70.0240041,31.1137848 69.9445863,30.9666552 69.9021961,30.9058096 C69.8598059,30.8453077 69.8151175,30.8037126 69.7671093,30.7806806 C69.7198672,30.75868 69.6440245,30.7469921 69.5406027,30.7469921 L69.4494382,30.7469921 L69.4494382,32 L69,32 Z" id="Fill-19"></path>
                <path d="M74.6445285,30.4978389 C74.6445285,30.8266652 74.725715,31.0756954 74.8873789,31.2455946 C75.0490428,31.4154937 75.2539589,31.4999446 75.5031907,31.4999446 C75.7520681,31.4999446 75.9566296,31.4158262 76.1161664,31.2475895 C76.2760577,31.0790203 76.3554715,30.8266652 76.3554715,30.4901917 C76.3554715,30.1577081 76.2778303,29.9093428 76.1221933,29.7454283 C75.9669109,29.5818464 75.7602222,29.5000554 75.5031907,29.5000554 C75.2454502,29.5000554 75.038407,29.5831763 74.8806429,29.7484207 C74.7232333,29.9139976 74.6445285,30.1640253 74.6445285,30.4978389 M74,30.5177879 C74,30.2225424 74.0467974,29.9745096 74.1411014,29.7736895 C74.2116521,29.6260667 74.3073741,29.4934057 74.4300402,29.376039 C74.5509336,29.2586723 74.6845899,29.1715616 74.8292366,29.1143744 C75.0217443,29.0382356 75.2440321,29 75.4957457,29 C75.9516663,29 76.3164736,29.1323285 76.5894588,29.3979829 C76.8635074,29.6629724 77,30.0316968 77,30.5038236 C77,30.972293 76.8642165,31.33869 76.593004,31.6030145 C76.321437,31.868004 75.9587568,32 75.5046088,32 C75.0440794,32 74.678563,31.868669 74.406996,31.6050094 C74.1357835,31.3420149 74,30.9796077 74,30.5177879" id="Fill-20"></path>
                <path d="M79,29 L79.5066935,29 L79.5066935,30.5983108 C79.5066935,30.8516892 79.5127393,31.0165541 79.5256945,31.0915541 C79.5475745,31.2121622 79.5988196,31.3091216 79.6802937,31.3824324 C79.7617677,31.4557432 79.8737585,31.4918919 80.0148265,31.4918919 C80.1581978,31.4918919 80.2667338,31.4574324 80.3398589,31.3881757 C80.4124082,31.3189189 80.456456,31.2344595 80.4708507,31.1334459 C80.4861091,31.0331081 80.4933065,30.8662162 80.4933065,30.6327703 L80.4933065,29 L81,29 L81,30.5496622 C81,30.9033784 80.986469,31.1533784 80.959119,31.3 C80.932057,31.4462838 80.8813876,31.5695946 80.8076868,31.6699324 C80.7339859,31.7709459 80.6363898,31.8506757 80.5125954,31.9101351 C80.3893767,31.9702703 80.2287318,32 80.0300849,32 C79.7905571,32 79.6083201,31.9675676 79.4848136,31.9023649 C79.3615949,31.8375 79.2631352,31.7527027 79.1917374,31.6493243 C79.1197639,31.5452703 79.0725493,31.4361486 79.0495178,31.3219595 C79.0169857,31.1530405 79,30.9033784 79,30.5733108 L79,29 Z" id="Fill-21"></path>
                <path d="M83.5277986,29.5070471 L83.5277986,30.3609488 L83.8155253,30.3609488 C84.0229282,30.3609488 84.161097,30.3454795 84.2312303,30.3141973 C84.3007643,30.2825713 84.3559119,30.2330698 84.3954743,30.1660364 C84.4350367,30.0986593 84.4548179,30.0209694 84.4548179,29.9322791 C84.4548179,29.8226195 84.4269444,29.7322104 84.3711974,29.6610519 C84.3160498,29.5898934 84.2456167,29.5455483 84.1598981,29.5276727 C84.0972576,29.5139223 83.9710775,29.5070471 83.7819571,29.5070471 L83.5277986,29.5070471 Z M83,32 L83,29 L83.8460962,29 C84.1664918,29 84.3753934,29.0151255 84.4725011,29.0446889 C84.6223588,29.0897216 84.74734,29.1880371 84.8486438,29.3382606 C84.9490484,29.4895153 85,29.6840839 85,29.9226538 C85,30.1069096 84.9706279,30.2619457 84.9127829,30.3870746 C84.8546381,30.512891 84.7806084,30.6112066 84.6909936,30.6827088 C84.6016784,30.7545548 84.5099655,30.8019938 84.4176532,30.8250258 C84.2923722,30.8539017 84.1095459,30.8679959 83.8712723,30.8679959 L83.5277986,30.8679959 L83.5277986,32 L83,32 Z" id="Fill-22"></path>
                <path d="M43.028333,8.09188307 C43.1168252,7.93824854 43.2771201,8.02546022 43.3974384,8.01785455 C43.7063846,8.08579853 43.5480303,7.93875559 43.7944886,8.33272927 C44.0374539,8.56698389 44.0071803,8.25008099 44.3052591,8.49954695 C44.6126528,8.87932338 44.6138172,8.74242133 45,8.81442167 L45,8.85194297 L44.9437221,8.90721083 L44.8726955,8.92597148 L44.8012808,8.96298574 L44.7450029,8.98123935 L44.7166699,9 C44.572288,8.87526702 44.37745,8.87475998 44.22026,8.96298574 L44.22026,8.90721083 L44.2058995,8.85194297 L44.0498739,8.64811103 L43.9928197,8.61058972 L43.9361537,8.59233612 L43.8655152,8.59233612 L43.8088492,8.57357547 L43.7234621,8.53656121 L43.6241025,8.44377204 L43.4820493,8.29571501 L43.3687173,8.22168649 L43.2697458,8.16591158 L43.0993596,8.16591158 L43.0426936,8.18467224 L43,8.18467224 L43,8.14715093 L43.028333,8.09188307" id="Fill-23"></path>
                <path d="M50.9868696,15.3427694 L50.9471135,15.2286432 L50.9606087,15.114517 L50.9868696,15.0285315 L51,15 L44.0281044,15 L44.8013411,15.7289224 L44.8680875,15.7570631 L44.9344691,15.814517 L45.0012155,15.8567281 L45.0675971,15.914182 C45.2452227,16.0826354 45.3148869,16.3308208 45.3612082,16.5715801 L45.347713,16.6571748 L45.307957,16.7001675 L45.2678362,16.7713009 L45.214585,16.885818 L45.1879594,17.0855388 L45.1609691,17.4001675 C45.1653459,17.628029 45.1901478,18.0477945 44.9610947,18.1857621 L44.9344691,18.1568398 L44.9209739,18.1568398 C44.9107614,18.786488 44.6970271,19.39933 44.3614716,19.9144612 C44.1630561,20.114182 44.1327832,20.3506421 44.28123,20.5855388 C44.1564909,20.6691792 43.9821479,21.4254606 44.0014788,21.5431044 L44.0281044,21.6427694 L44.0678605,21.7568956 L44.1346069,21.8428811 L44.2148484,21.9140145 L44.3213508,21.9855388 L44.414358,22 L44.50773,21.9855388 L44.5478508,21.9573981 L44.5347203,21.9284757 L44.4811044,21.885483 L44.4413484,21.8428811 L44.414358,21.7854271 L44.4548435,21.7142937 L44.5613459,21.6286991 L44.7747155,21.514182 L44.8947131,21.4000558 L44.9209739,21.2710776 L44.8680875,21.1714126 L44.827602,21.1428811 L44.854957,21.1428811 L44.8947131,21.1139587 L45.0012155,21.085818 L45.0949522,21.028364 L45.214585,20.9286991 L45.3342179,20.7856505 L45.4545802,20.5855388 L45.574213,20.328364 L45.7208362,20.3428252 L45.8415632,20.3142937 L45.9207106,20.2713009 L46.0140825,20.2001675 L46.1340801,20.114182 L46.2945632,20.0285874 L46.5210632,19.9570631 L46.8409351,19.8570073 L46.9346718,19.8284757 L47.000324,19.7999442 L47.0674351,19.7569514 L47.1071911,19.7284199 L47.121051,19.6713568 L47.1341815,19.628364 C47.0791066,19.2386935 47.2104109,19.379397 47.574051,19.1570073 C48.2612104,18.6735343 48.6124495,18.2975433 49.0271523,17.5572864 L49.0804035,17.4283082 L49.1602803,17.314182 L49.2675122,17.214517 L49.4272658,17.1144612 L49.613645,17.0144054 L49.7609977,16.9573423 L49.9605073,16.9573423 L50.0403841,16.9858738 L50.0936353,16.9858738 L50.1603817,16.9428811 L50.2267633,16.8713568 L50.3606208,16.6712451 L50.4671232,16.5141262 C50.6024396,16.2233389 50.5925918,16.0087661 50.8132561,15.7289224 L50.8537416,15.6855388 L50.8934976,15.6284757 L50.9336184,15.5858738 L50.9606087,15.5143495 L51,15.4572864 L51,15.3857621 L50.9868696,15.3427694 Z" id="Fill-24"></path>
                <polygon id="Fill-25" points="45.2565 9.073 45.238 9.146 45.1835 9.201 45.037 9.201 45 9 45.074 9 45.128 9.037 45.1835 9.037"></polygon>
                <path d="M45,8.31932234 C44.7471349,8.37056495 44.4672828,8.35234536 44.2432532,8.5 C44.2,8.36031643 44.1112754,8.38992328 44,8.38878455 L44.0539741,8.31932234 L44.0676525,8.25023971 L44.0676525,8.04223265 C44.4469501,7.87597884 44.7341959,8.24948056 45,8.31932234" id="Fill-26"></path>
                <path d="M53,15 C49.3562309,26.8301047 34.6148638,27.1322691 31,15.1076 C34.8525675,25.8020088 49.2324481,25.7386279 53,15" id="Fill-27"></path>
                <path d="M53,8.98646287 C51.4467235,3.65283541 47.2317052,0.00147018897 41.9750621,6.71593463e-06 C36.4890578,-0.00548130794 32.6825465,3.35282343 31,8.86609222 C32.3768449,5.01203599 35.1284989,2.56108452 38.258463,1.49201747 C38.1973905,1.61531508 38.1556577,1.7119043 38.1556577,1.7119043 C38.0932281,1.83190908 38.0586203,1.98447615 37.9571722,2.07301627 C37.6867568,2.2039971 37.5649512,2.67340608 37.4363597,2.94195338 L37.3868232,3.04915278 L37.3868232,3.10256955 L37.3990376,3.1157408 L37.3990376,3.23611146 C37.2843571,3.62612702 36.9040114,3.92613899 36.7292762,4.29273899 L36.6302031,4.51994318 L36.5681128,4.72043898 L36.5185762,4.92130066 L36.4690397,5.0683797 L36.4568252,5.17521323 L36.4442714,5.20192161 C36.6715967,5.67206232 36.731312,6.21830363 36.6553107,6.74003177 L36.6553107,6.75320303 L36.6675252,6.76674015 L36.7048472,6.79308267 L36.7540445,6.8468653 L36.8164741,6.95369883 L36.8656714,7.06089823 L36.9033328,7.19480601 L36.95253,7.32834793 L37.0020666,7.47542697 L37.0393887,7.60896888 L37.0889252,7.67592277 L37.1136935,7.6894599 C37.3827517,7.24749104 36.8527783,6.50843716 36.95253,5.99109944 L36.9772983,5.99109944 L37.0393887,5.93768268 L37.0889252,5.92414555 C37.1381225,6.69868866 37.5252541,7.38835032 37.882528,8.03703474 L37.8455453,8.09045151 L37.7712404,8.21082217 L37.7712404,8.33119282 L37.9076356,8.37143833 L37.820777,8.58547126 L37.9076356,8.58547126 L37.9571722,8.59864252 L38.0192625,8.59864252 L38.0810136,8.62571677 L38.1556577,8.65205929 L38.2051942,8.70584192 L38.2672846,8.74608743 L38.3663577,8.85292096 L38.5153067,8.97329162 L38.577397,8.98646287 L38.6269336,9 L40.9208834,9 C40.9951882,8.67986527 41.0661002,8.34033953 41.2432103,8.064109 L41.2309958,8.064109 L41.1814593,8.03703474 L40.9582055,8.03703474 L40.8964544,8.02386349 L40.8343641,7.98361798 L40.797042,7.94337247 L40.7475054,7.94337247 C40.6409679,8.00557007 40.5344304,8.36997486 40.4621613,8.45156348 C40.3854814,8.71974491 39.9026696,8.70913473 39.6933268,8.7325503 C39.5056986,8.78047905 39.5491279,8.71425689 39.4205364,8.57193414 C39.3533567,8.44058743 39.286177,8.30850899 39.2094971,8.18447965 C38.8298299,7.30090781 39.6417544,5.94390244 40.610771,6.41879944 C41.1227618,5.98305034 41.2611928,6.44404435 41.702611,6.23184076 L41.8882035,6.19159525 L42.0123841,6.23184076 L42.086689,6.35221142 L42.1362255,6.52599884 L42.1861014,6.74003177 L42.2604062,6.94052757 L42.3720331,7.114315 L42.5457504,7.23468565 L42.6075014,6.98077308 L42.5701794,6.75320303 L42.5087676,6.52599884 L42.3594793,6.15134974 L42.3224966,5.97756232 L42.3594793,5.83048328 L42.4962138,5.69694136 C42.7211641,5.56413119 43.1714039,5.28899826 43.2650483,5.01496293 L43.3393532,4.85434677 L43.4011042,4.69409647 L43.5005166,4.45298929 L43.5500532,4.35969288 L43.5999291,4.27920186 L43.6491263,4.2257851 L43.6990022,4.19907672 L43.8102898,4.13212282 L43.8974877,4.05199768 L43.946685,3.97150666 L43.9843463,3.87821025 L43.9965608,3.79771924 L43.9965608,3.74430247 L43.9843463,3.6908857 L43.9843463,3.67734858 L44.0087753,3.67734858 L44.0583119,3.6908857 L44.1204022,3.70442283 L44.2198146,3.70442283 L44.3314415,3.6908857 L44.4427291,3.65100606 L44.5794636,3.59722343 L44.6914298,3.4903899 L44.6042319,3.45014439 L44.492605,3.39672763 L44.4057464,3.34331086 L44.3314415,3.27635697 L44.2567974,3.2229402 L44.1950463,3.14281505 L44.1950463,2.96866176 L44.2693512,2.88853661 L44.3813174,2.88853661 L44.5421415,2.90207374 L44.7158588,2.95549051 L44.889576,2.99537015 L45.062954,2.99537015 L45.2122423,2.92878212 L45.3235299,2.78170308 C44.8213784,2.56291386 44.5489274,2.20253363 44.1081877,1.97935399 L44.0335436,2.05947914 L43.9717925,2.09972465 L43.8353974,2.09972465 L43.7610925,2.07301627 L43.6990022,2.03277076 L43.6121436,1.96581687 L43.5252849,1.88569172 C43.1591894,1.54323903 43.0319551,1.87874022 42.7934332,1.61824202 L42.7438966,1.76532106 L42.7438966,1.96581687 L42.7934332,2.03277076 L42.8307552,2.07301627 L42.9053994,2.09972465 L42.9549359,2.12643303 L43.0044725,2.16631267 L43.0665628,2.24680369 L43.0665628,2.27351207 L43.0417945,2.25997495 L42.9671504,2.24680369 L42.8928456,2.25997495 L42.8185407,2.32692884 L42.7812187,2.4472995 L42.7812187,2.70157793 L42.7690042,2.78170308 L42.7438966,2.82158272 L42.6821456,2.86182823 L42.6200552,2.84865697 L42.5457504,2.82158272 C42.2132447,2.58962225 42.4504095,2.51425339 42.086689,2.36717435 C41.8301846,2.2179001 41.3416048,2.31631866 41.1319227,2.07301627 L41.1689055,2.00606238 L41.2187813,1.92593723 L41.30564,1.85898334 L41.3924986,1.76532106 L41.51634,1.68483005 L41.6527352,1.57799651 L41.8016841,1.47079711 L41.9750621,1.39067197 C42.548804,1.06139053 43.3098348,0.989680354 43.946685,1.08297676 C43.946685,1.08297676 43.8957912,1.05700011 43.8150399,1.01638874 C47.7358924,1.64568214 51.3836153,4.30371504 53,8.98646287" id="Fill-28"></path>
                <path d="M22,10 L20.4988043,10 L20.7249965,10.3059991 L20.7249965,12.6405208 L20.6735124,12.7874748 L20.6119004,12.9009456 C20.4768603,13.0990544 20.2059361,13.1616804 19.994936,13.1616804 L19.8407652,13.1502093 L19.7068505,13.116106 L19.573217,13.0708417 L19.4705303,12.9914742 L19.3880996,12.9009456 L19.3267689,12.7874748 L19.2750035,12.6405208 L19.2750035,10.3059991 L19.5011957,10 L18,10 L18.2261922,10.3059991 C18.3657336,12.4600837 17.5934731,13.9748876 19.994936,14 C22.4236883,13.9736475 21.6190744,12.4938769 21.7738078,10.3059991 L22,10 Z" id="Fill-29"></path>
                <polygon id="Fill-30" points="27 10 25.7391489 10 25.9563127 10.3121936 25.9563127 12.3352839 24.1369999 10 23 10 23.2276262 10.3121936 23.2276262 13.7108967 23 14 24.2611339 14 24.0442528 13.7108967 24.0442528 11.6647161 25.9766719 14 26.7726566 14 26.7726566 10.3121936"></polygon>
                <polygon id="Fill-31" points="32 14 31.7121439 13.7108967 31.7121439 10.3118773 32 10 30 10 30.3013493 10.3118773 30.3013493 13.7108967 30 14"></polygon>
                <polygon id="Fill-32" points="38 10 36.4380815 10 36.7151127 10.3121936 35.6193922 12.5203226 34.561574 10.3121936 34.8386052 10 33 10 35.027772 14 35.9343257 14"></polygon>
                <polygon id="Fill-33" points="44 14 44 12.9248774 43.6686808 13.1678001 41.509567 13.1678001 41.509567 12.4045548 42.8710977 12.4045548 43.1903323 12.6591808 43.1903323 11.3642258 42.8710977 11.6185355 41.509567 11.6185355 41.509567 10.8439032 43.6686808 10.8439032 44 11.0982129 44 10 40 10 40.2702249 10.3118773 40.2702249 13.7108967 40 14"></polygon>
                <path d="M46.3480249,11.8382225 L46.3480249,10.8441528 L47.3014767,10.8441528 L47.3890263,10.8786273 L47.4771756,10.9017158 C47.6339855,10.9858464 47.6879544,11.1272238 47.6960498,11.3065549 C47.6498763,11.9745394 46.7387002,11.8568831 46.3480249,11.8382225 Z M49,14 L47.9694925,12.4277694 C48.4800989,12.2161777 48.8293981,11.8293666 48.8246009,11.2255871 L48.8138071,10.9712975 L48.747845,10.7514826 L48.6495015,10.54337 L48.5067836,10.3583459 L48.2990031,10.219815 L48.0462484,10.1043726 L47.7398246,10.0347909 L47.3671389,10 L45,10 L45.2413612,10.3121689 L45.2413612,13.7109196 L45,14 L46.5890863,14 L46.3480249,13.7109196 L46.3480249,12.5897051 L46.8298478,12.5897051 L47.5536317,13.7109196 L47.3122704,14 L49,14 Z" id="Fill-34"></path>
                <path d="M56,12.7858837 C55.9822937,11.9590747 54.9671312,11.7227165 54.2109671,11.5287663 C53.9380814,11.5077106 52.9624977,11.2126335 53.5127825,10.9107355 C54.0043933,10.6835706 55.3111893,11.0664294 55.7719009,11.2683867 L55.7719009,10 L55.4160385,10.2930012 C54.5157936,9.98784104 53.2666299,9.86951364 52.4344327,10.3689205 C52.1796005,10.5498221 51.9761514,10.8125741 52.0025373,11.1058719 C51.9504599,11.8202847 52.7097487,12.1634045 53.3860607,12.3632859 L53.614507,12.4282325 L53.8429533,12.4715302 L54.0457081,12.514828 L54.2363114,12.569395 L54.3758789,12.6126928 L54.4897548,12.6883155 L54.5786336,12.7642349 L54.603978,12.8837485 C54.5994646,13.0972716 54.2571424,13.1705219 54.0585538,13.1654804 C53.3405798,13.1322657 52.6222586,12.9430605 52.0153831,12.6126928 L52.0153831,14 L52.3708983,13.6746738 C53.5027142,14.0447805 55.9566022,14.326809 56,12.7858837" id="Fill-35"></path>
                <path d="M57.7170619,12.5666166 L58.3831746,11.1332332 L59.060794,12.5666166 L57.7170619,12.5666166 Z M61,14 L59.0141277,10 L57.646743,10 L57.7873809,10.3121689 L56,14 L57.4834111,14 L57.2267468,13.7109196 L57.4370645,13.2833083 L59.3526178,13.2833083 L59.5514288,13.7109196 L59.2944448,14 L61,14 Z" id="Fill-36"></path>
                <polygon id="Fill-37" points="67 14 67 12.9248774 66.671342 13.1678001 64.5570563 13.1678001 64.5570563 10.3118773 64.8358442 10 63 10 63.2787879 10.3118773 63.2787879 13.7108967 63 14"></polygon>
                <path d="M66.5,10.1198686 L66.4636667,10.060208 L66.4023333,10.0197044 L66.3536667,10 L66.2926667,10 L66.183,10.0197044 L66.0853333,10.1198686 L66.0246667,10.2999453 L66,10.4997263 L66.0246667,10.7000547 L66.0853333,10.8401752 L66.183,10.9605911 L66.2926667,11 L66.3536667,10.9605911 L66.4023333,10.9605911 L66.4636667,10.9200876 L66.5,10.8604269 L66.5,10.7405583 L66.4636667,10.8002189 L66.4023333,10.8604269 L66.3536667,10.8806787 L66.2926667,10.9003831 L66.1953333,10.8604269 L66.1223333,10.7805145 L66.0486667,10.4997263 C66.1093333,10.0558292 66.3206667,9.95457033 66.5,10.2402846 L66.5,10.1198686 Z" id="Fill-38"></path>
                <path d="M66.0416193,10.495033 C66.0701086,9.90153041 66.9330501,9.90124272 66.9478645,10.495033 C66.9384631,11.1040709 66.0632711,11.1023447 66.0416193,10.495033 M66.0000248,10.495033 C65.994327,11.1426212 66.9703711,11.1935422 67,10.495033 C66.9641035,9.81062065 66.0011644,9.85981549 66.0000248,10.495033" id="Fill-39"></path>
            </g>
        </g>
    </g>
</svg>