<?xml version="1.0" encoding="UTF-8"?>
<svg width="35px" height="40px" viewBox="0 0 35 40" version="1.1" xmlns="http://www.w3.org/2000/svg" xmlns:xlink="http://www.w3.org/1999/xlink">
    <!-- Generator: Sketch 49.3 (51167) - http://www.bohemiancoding.com/sketch -->
    <title>wb</title>
    <desc>Created with Sketch.</desc>
    <defs></defs>
    <g id="Page-1" stroke="none" stroke-width="1" fill="none" fill-rule="evenodd">
        <g id="Desktop-HD" transform="translate(-259.000000, -592.000000)" fill="#FFFFFF">
            <g id="wb" transform="translate(259.000000, 592.000000)">
                <path d="M29.1183428,13.9582418 C29.5201011,11.7076923 28.0198813,9.93956044 26.2783428,8.65340659 C23.8405406,6.85846154 21.0809802,5.78681319 18.2409802,4.95626374 L18.2409802,34.6410989 C19.5003208,33.5426374 20.7594417,32.3103297 21.9649362,31.0512088 C24.5370241,28.2112088 26.9214197,25.3178022 27.9126285,21.8349451 C28.3146065,20.2542857 28.1001011,18.4591209 26.7605406,17.3874725 C27.9126285,16.4767033 28.9574637,15.3512088 29.1183428,13.9582418 Z M24.2154857,24.2193407 C23.3313098,25.8268132 22.1258153,27.3002198 20.7055956,28.6665934 L20.6790022,20.1738462 C21.6433978,19.4773626 22.6348263,18.8610989 23.8405406,18.7538462 C24.3227384,18.7538462 24.7513098,18.9147253 25.0728483,19.2896703 C26.1444967,20.9773626 24.8853758,22.7457143 24.2154857,24.2193407 Z M26.6535076,13.2883516 C26.412189,14.6281319 24.9387824,15.4048352 23.8939472,15.9676923 C22.849112,16.5035165 21.7774637,16.9320879 20.6790022,17.3338462 L20.6790022,8.65340659 C22.3669142,9.16263736 23.8939472,10.02 25.3405406,11.038022 C26.0106505,11.6006593 26.9214197,12.2971429 26.6535076,13.2883516 Z" id="Fill-2"></path>
                <path d="M16.0440571,34.4268132 L16.0440571,4.84923077 L13.6596615,6.08153846 L13.6596615,21.941978 C13.5526285,22.3973626 13.8739472,23.0940659 13.3649362,23.3083516 C13.2310901,23.3351648 13.1238373,23.2815385 13.0702109,23.1745055 C12.052189,19.3432967 11.6236175,15.2978022 11.436145,11.1450549 L11.3554857,7.52835165 L9.07834281,9.21626374 L9.07834281,10.1806593 C9.21218897,14.0118681 9.48032083,17.7626374 10.2036175,21.3525275 L9.29284831,22.3707692 C8.94449666,21.8883516 8.73021094,21.3793407 8.48889226,20.8703297 C7.33702413,17.8162637 6.90823292,14.4672527 6.74757358,11.0112088 L4.76493622,12.4848352 C4.95240875,17.7358242 5.94383732,22.6923077 9.13196918,26.6305495 C9.74823292,25.9340659 10.3644967,25.2105495 10.9805406,24.5406593 C11.3020791,25.9606593 11.7574637,27.327033 12.2932879,28.6665934 C13.1774637,30.7296703 14.1686725,32.8193407 16.0440571,34.4268132" id="Fill-3"></path>
                <path d="M34.289112,8.73384615 L30.7258153,7.84989011 L30.0827384,5.43868132 L26.4392219,4.58131868 L25.6888923,1.9556044 L17.089112,0 L8.64977138,1.9556044 L7.89966149,4.58131868 L4.25592523,5.43868132 C4.01482633,6.26901099 3.80054061,7.07296703 3.58603512,7.8767033 L0.0229581959,8.73384615 C-0.244953892,16.3158242 1.84471644,22.9868132 5.62229886,28.9345055 C8.38185929,33.1945055 12.5346065,37.6953846 17.089112,39.9191209 C20.1699912,38.4454945 22.9027384,35.9806593 25.3675736,33.2210989 C31.3418593,26.309011 34.6104307,18.218022 34.289112,8.73384615 Z M23.7869142,31.6674725 C21.8310901,33.8641758 19.634167,36.0342857 17.1693318,37.2936264 C14.8117494,36.1147253 12.7488923,34.0784615 10.8735076,32.0156044 C5.99724391,26.309011 2.75570545,19.9327473 2.21988127,12.458022 C2.1662549,11.8417582 2.13944171,11.2523077 2.1662549,10.6092308 L5.19372743,9.91274725 L5.89021094,7.4210989 L9.61438677,6.53692308 L9.64098017,6.4567033 L10.3108703,3.88461538 L17.0622989,2.30395604 L24.0280131,3.88461538 L24.6976835,6.51032967 L28.4752659,7.4210989 L29.1183428,9.91274725 L32.1726285,10.6092308 C32.092189,18.7538462 28.8504307,25.5857143 23.7869142,31.6674725 Z" id="Fill-4"></path>
            </g>
        </g>
    </g>
</svg>